M48
; DRILL file {KiCad (6.0.5)} date Fri Aug  5 22:50:18 2022
; FORMAT={-:-/ absolute / inch / decimal}
; #@! TF.CreationDate,2022-08-05T22:50:18+10:00
; #@! TF.GenerationSoftware,Kicad,Pcbnew,(6.0.5)
; #@! TF.FileFunction,Plated,1,2,PTH
FMAT,2
INCH
; #@! TA.AperFunction,Plated,PTH,ViaDrill
T1C0.0157
; #@! TA.AperFunction,Plated,PTH,ComponentDrill
T2C0.0181
; #@! TA.AperFunction,Plated,PTH,ComponentDrill
T3C0.0315
; #@! TA.AperFunction,Plated,PTH,ComponentDrill
T4C0.0354
; #@! TA.AperFunction,Plated,PTH,ComponentDrill
T5C0.0394
%
G90
G05
T1
X3.45Y-3.45
X3.45Y-3.6
X3.55Y-3.95
X3.6Y-3.95
X3.65Y-3.95
T2
X3.5625Y-4.2646
X3.8375Y-4.2646
T3
X2.9Y-3.4
X2.9Y-4.35
X3.0Y-4.35
X3.2Y-4.35
X3.3Y-3.4
X3.3Y-4.35
T4
X2.9Y-4.1
X3.0Y-4.1
X3.2Y-4.1
X3.3Y-4.1
T5
X2.95Y-3.6506
X2.95Y-3.8506
X3.25Y-3.55
X3.25Y-3.65
X3.25Y-3.75
X3.25Y-3.85
X3.2502Y-3.2
X3.3502Y-3.2
X3.4502Y-3.2
X3.5502Y-3.2
X3.6006Y-4.1
X3.6502Y-3.2
X3.7006Y-4.1
X3.7502Y-3.2
X3.8006Y-4.1
X3.8502Y-3.2
T0
M30
