%TF.GenerationSoftware,KiCad,Pcbnew,(6.0.5)*%
%TF.CreationDate,2022-08-05T22:50:17+10:00*%
%TF.ProjectId,stm8_target,73746d38-5f74-4617-9267-65742e6b6963,rev?*%
%TF.SameCoordinates,Original*%
%TF.FileFunction,Legend,Top*%
%TF.FilePolarity,Positive*%
%FSLAX46Y46*%
G04 Gerber Fmt 4.6, Leading zero omitted, Abs format (unit mm)*
G04 Created by KiCad (PCBNEW (6.0.5)) date 2022-08-05 22:50:17*
%MOMM*%
%LPD*%
G01*
G04 APERTURE LIST*
%ADD10C,0.150000*%
%ADD11C,0.120000*%
%ADD12C,0.100000*%
G04 APERTURE END LIST*
D10*
%TO.C,D2*%
X74191904Y-100632380D02*
X74191904Y-99632380D01*
X74430000Y-99632380D01*
X74572857Y-99680000D01*
X74668095Y-99775238D01*
X74715714Y-99870476D01*
X74763333Y-100060952D01*
X74763333Y-100203809D01*
X74715714Y-100394285D01*
X74668095Y-100489523D01*
X74572857Y-100584761D01*
X74430000Y-100632380D01*
X74191904Y-100632380D01*
X75144285Y-99727619D02*
X75191904Y-99680000D01*
X75287142Y-99632380D01*
X75525238Y-99632380D01*
X75620476Y-99680000D01*
X75668095Y-99727619D01*
X75715714Y-99822857D01*
X75715714Y-99918095D01*
X75668095Y-100060952D01*
X75096666Y-100632380D01*
X75715714Y-100632380D01*
%TO.C,D1*%
X81811904Y-100632380D02*
X81811904Y-99632380D01*
X82050000Y-99632380D01*
X82192857Y-99680000D01*
X82288095Y-99775238D01*
X82335714Y-99870476D01*
X82383333Y-100060952D01*
X82383333Y-100203809D01*
X82335714Y-100394285D01*
X82288095Y-100489523D01*
X82192857Y-100584761D01*
X82050000Y-100632380D01*
X81811904Y-100632380D01*
X83335714Y-100632380D02*
X82764285Y-100632380D01*
X83050000Y-100632380D02*
X83050000Y-99632380D01*
X82954761Y-99775238D01*
X82859523Y-99870476D01*
X82764285Y-99918095D01*
%TO.C,J4*%
X88577380Y-104473333D02*
X89291666Y-104473333D01*
X89434523Y-104520952D01*
X89529761Y-104616190D01*
X89577380Y-104759047D01*
X89577380Y-104854285D01*
X88910714Y-103568571D02*
X89577380Y-103568571D01*
X88529761Y-103806666D02*
X89244047Y-104044761D01*
X89244047Y-103425714D01*
%TO.C,U1*%
X93218095Y-93432380D02*
X93218095Y-94241904D01*
X93265714Y-94337142D01*
X93313333Y-94384761D01*
X93408571Y-94432380D01*
X93599047Y-94432380D01*
X93694285Y-94384761D01*
X93741904Y-94337142D01*
X93789523Y-94241904D01*
X93789523Y-93432380D01*
X94789523Y-94432380D02*
X94218095Y-94432380D01*
X94503809Y-94432380D02*
X94503809Y-93432380D01*
X94408571Y-93575238D01*
X94313333Y-93670476D01*
X94218095Y-93718095D01*
X88493600Y-89851380D02*
X88493600Y-90089476D01*
X88255504Y-89994238D02*
X88493600Y-90089476D01*
X88731695Y-89994238D01*
X88350742Y-90279952D02*
X88493600Y-90089476D01*
X88636457Y-90279952D01*
X88493600Y-89851380D02*
X88493600Y-90089476D01*
X88255504Y-89994238D02*
X88493600Y-90089476D01*
X88731695Y-89994238D01*
X88350742Y-90279952D02*
X88493600Y-90089476D01*
X88636457Y-90279952D01*
%TO.C,R1*%
X78573333Y-84442380D02*
X78240000Y-83966190D01*
X78001904Y-84442380D02*
X78001904Y-83442380D01*
X78382857Y-83442380D01*
X78478095Y-83490000D01*
X78525714Y-83537619D01*
X78573333Y-83632857D01*
X78573333Y-83775714D01*
X78525714Y-83870952D01*
X78478095Y-83918571D01*
X78382857Y-83966190D01*
X78001904Y-83966190D01*
X79525714Y-84442380D02*
X78954285Y-84442380D01*
X79240000Y-84442380D02*
X79240000Y-83442380D01*
X79144761Y-83585238D01*
X79049523Y-83680476D01*
X78954285Y-83728095D01*
%TO.C,J1*%
X82216666Y-87292380D02*
X82216666Y-88006666D01*
X82169047Y-88149523D01*
X82073809Y-88244761D01*
X81930952Y-88292380D01*
X81835714Y-88292380D01*
X83216666Y-88292380D02*
X82645238Y-88292380D01*
X82930952Y-88292380D02*
X82930952Y-87292380D01*
X82835714Y-87435238D01*
X82740476Y-87530476D01*
X82645238Y-87578095D01*
%TO.C,J3*%
X87332380Y-110933333D02*
X88046666Y-110933333D01*
X88189523Y-110980952D01*
X88284761Y-111076190D01*
X88332380Y-111219047D01*
X88332380Y-111314285D01*
X87332380Y-110552380D02*
X87332380Y-109933333D01*
X87713333Y-110266666D01*
X87713333Y-110123809D01*
X87760952Y-110028571D01*
X87808571Y-109980952D01*
X87903809Y-109933333D01*
X88141904Y-109933333D01*
X88237142Y-109980952D01*
X88284761Y-110028571D01*
X88332380Y-110123809D01*
X88332380Y-110409523D01*
X88284761Y-110504761D01*
X88237142Y-110552380D01*
%TO.C,SW1*%
X73596666Y-90799761D02*
X73739523Y-90847380D01*
X73977619Y-90847380D01*
X74072857Y-90799761D01*
X74120476Y-90752142D01*
X74168095Y-90656904D01*
X74168095Y-90561666D01*
X74120476Y-90466428D01*
X74072857Y-90418809D01*
X73977619Y-90371190D01*
X73787142Y-90323571D01*
X73691904Y-90275952D01*
X73644285Y-90228333D01*
X73596666Y-90133095D01*
X73596666Y-90037857D01*
X73644285Y-89942619D01*
X73691904Y-89895000D01*
X73787142Y-89847380D01*
X74025238Y-89847380D01*
X74168095Y-89895000D01*
X74501428Y-89847380D02*
X74739523Y-90847380D01*
X74930000Y-90133095D01*
X75120476Y-90847380D01*
X75358571Y-89847380D01*
X76263333Y-90847380D02*
X75691904Y-90847380D01*
X75977619Y-90847380D02*
X75977619Y-89847380D01*
X75882380Y-89990238D01*
X75787142Y-90085476D01*
X75691904Y-90133095D01*
%TO.C,J2*%
X99577380Y-81613333D02*
X100291666Y-81613333D01*
X100434523Y-81660952D01*
X100529761Y-81756190D01*
X100577380Y-81899047D01*
X100577380Y-81994285D01*
X99672619Y-81184761D02*
X99625000Y-81137142D01*
X99577380Y-81041904D01*
X99577380Y-80803809D01*
X99625000Y-80708571D01*
X99672619Y-80660952D01*
X99767857Y-80613333D01*
X99863095Y-80613333D01*
X100005952Y-80660952D01*
X100577380Y-81232380D01*
X100577380Y-80613333D01*
D11*
%TO.C,R3*%
X74830000Y-110490000D02*
X74760000Y-110490000D01*
X77570000Y-110490000D02*
G75*
G03*
X77570000Y-110490000I-1370000J0D01*
G01*
%TO.C,R2*%
X82450000Y-110490000D02*
X82380000Y-110490000D01*
X85190000Y-110490000D02*
G75*
G03*
X85190000Y-110490000I-1370000J0D01*
G01*
%TO.C,D2*%
X72370000Y-102595000D02*
X72370000Y-105685000D01*
X72370000Y-105684830D02*
G75*
G03*
X77920000Y-104139538I2560000J1544830D01*
G01*
X77920000Y-104140462D02*
G75*
G03*
X72370000Y-102595170I-2990000J462D01*
G01*
X77430000Y-104140000D02*
G75*
G03*
X77430000Y-104140000I-2500000J0D01*
G01*
%TO.C,D1*%
X79990000Y-102595000D02*
X79990000Y-105685000D01*
X79990000Y-105684830D02*
G75*
G03*
X85540000Y-104139538I2560000J1544830D01*
G01*
X85540000Y-104140462D02*
G75*
G03*
X79990000Y-102595170I-2990000J462D01*
G01*
X85050000Y-104140000D02*
G75*
G03*
X85050000Y-104140000I-2500000J0D01*
G01*
%TO.C,J4*%
X92725000Y-102810000D02*
X97865000Y-102810000D01*
X92725000Y-105470000D02*
X92725000Y-102810000D01*
X90125000Y-105470000D02*
X90125000Y-104140000D01*
X92725000Y-105470000D02*
X97865000Y-105470000D01*
X97865000Y-105470000D02*
X97865000Y-102810000D01*
X91455000Y-105470000D02*
X90125000Y-105470000D01*
%TO.C,U1*%
X97612200Y-90347800D02*
X97366739Y-90347800D01*
X90347800Y-90347800D02*
X90347800Y-90593261D01*
X90347800Y-97366739D02*
X90347800Y-97612200D01*
X97366739Y-97612200D02*
X97612200Y-97612200D01*
X90593261Y-90347800D02*
X90347800Y-90347800D01*
X97612200Y-90593261D02*
X97612200Y-90347800D01*
X90347800Y-97612200D02*
X90593261Y-97612200D01*
X97612200Y-97612200D02*
X97612200Y-97366739D01*
G36*
X92970500Y-88874600D02*
G01*
X92589500Y-88874600D01*
X92589500Y-88620600D01*
X92970500Y-88620600D01*
X92970500Y-88874600D01*
G37*
D12*
X92970500Y-88874600D02*
X92589500Y-88874600D01*
X92589500Y-88620600D01*
X92970500Y-88620600D01*
X92970500Y-88874600D01*
G36*
X99339400Y-94570499D02*
G01*
X99085400Y-94570499D01*
X99085400Y-94189499D01*
X99339400Y-94189499D01*
X99339400Y-94570499D01*
G37*
X99339400Y-94570499D02*
X99085400Y-94570499D01*
X99085400Y-94189499D01*
X99339400Y-94189499D01*
X99339400Y-94570499D01*
G36*
X92170499Y-99339400D02*
G01*
X91789499Y-99339400D01*
X91789499Y-99085400D01*
X92170499Y-99085400D01*
X92170499Y-99339400D01*
G37*
X92170499Y-99339400D02*
X91789499Y-99339400D01*
X91789499Y-99085400D01*
X92170499Y-99085400D01*
X92170499Y-99339400D01*
D11*
%TO.C,R1*%
X74700000Y-86360000D02*
X75470000Y-86360000D01*
X82010000Y-87730000D02*
X82010000Y-84990000D01*
X82010000Y-84990000D02*
X75470000Y-84990000D01*
X75470000Y-84990000D02*
X75470000Y-87730000D01*
X75470000Y-87730000D02*
X82010000Y-87730000D01*
X82780000Y-86360000D02*
X82010000Y-86360000D01*
%TO.C,J1*%
X81220000Y-88840000D02*
X82550000Y-88840000D01*
X81220000Y-91440000D02*
X83880000Y-91440000D01*
X83880000Y-91440000D02*
X83880000Y-99120000D01*
X81220000Y-91440000D02*
X81220000Y-99120000D01*
X81220000Y-99120000D02*
X83880000Y-99120000D01*
X81220000Y-90170000D02*
X81220000Y-88840000D01*
%TO.C,J3*%
X94230000Y-108405000D02*
X93730000Y-108405000D01*
X93980000Y-108905000D02*
X94230000Y-108405000D01*
X93730000Y-108405000D02*
X93980000Y-108905000D01*
%TO.C,SW1*%
X73600000Y-92725000D02*
X73600000Y-91395000D01*
X73600000Y-99135000D02*
X76260000Y-99135000D01*
X73600000Y-93995000D02*
X76260000Y-93995000D01*
X73600000Y-93995000D02*
X73600000Y-99135000D01*
X76260000Y-93995000D02*
X76260000Y-99135000D01*
X73600000Y-91395000D02*
X74930000Y-91395000D01*
%TO.C,J2*%
X81225000Y-79950000D02*
X81225000Y-82610000D01*
X99125000Y-79950000D02*
X99125000Y-81280000D01*
X96525000Y-82610000D02*
X81225000Y-82610000D01*
X96525000Y-79950000D02*
X81225000Y-79950000D01*
X97795000Y-79950000D02*
X99125000Y-79950000D01*
X96525000Y-79950000D02*
X96525000Y-82610000D01*
%TD*%
M02*
