%TF.GenerationSoftware,KiCad,Pcbnew,(6.0.5)*%
%TF.CreationDate,2022-08-05T22:50:17+10:00*%
%TF.ProjectId,stm8_target,73746d38-5f74-4617-9267-65742e6b6963,rev?*%
%TF.SameCoordinates,Original*%
%TF.FileFunction,Copper,L2,Bot*%
%TF.FilePolarity,Positive*%
%FSLAX46Y46*%
G04 Gerber Fmt 4.6, Leading zero omitted, Abs format (unit mm)*
G04 Created by KiCad (PCBNEW (6.0.5)) date 2022-08-05 22:50:17*
%MOMM*%
%LPD*%
G01*
G04 APERTURE LIST*
%TA.AperFunction,ComponentPad*%
%ADD10C,1.600000*%
%TD*%
%TA.AperFunction,ComponentPad*%
%ADD11O,1.600000X1.600000*%
%TD*%
%TA.AperFunction,ComponentPad*%
%ADD12R,1.800000X1.800000*%
%TD*%
%TA.AperFunction,ComponentPad*%
%ADD13C,1.800000*%
%TD*%
%TA.AperFunction,ComponentPad*%
%ADD14R,1.700000X1.700000*%
%TD*%
%TA.AperFunction,ComponentPad*%
%ADD15O,1.700000X1.700000*%
%TD*%
%TA.AperFunction,SMDPad,CuDef*%
%ADD16R,0.460000X0.890000*%
%TD*%
%TA.AperFunction,ComponentPad*%
%ADD17C,0.970000*%
%TD*%
%TA.AperFunction,SMDPad,CuDef*%
%ADD18R,2.665000X4.190000*%
%TD*%
%TA.AperFunction,ComponentPad*%
%ADD19C,1.700000*%
%TD*%
%TA.AperFunction,ViaPad*%
%ADD20C,0.800000*%
%TD*%
%TA.AperFunction,Conductor*%
%ADD21C,0.250000*%
%TD*%
G04 APERTURE END LIST*
D10*
%TO.P,R3,1*%
%TO.N,GND*%
X76200000Y-110490000D03*
D11*
%TO.P,R3,2*%
%TO.N,Net-(D2-Pad1)*%
X73660000Y-110490000D03*
%TD*%
D10*
%TO.P,R2,1*%
%TO.N,GND*%
X83820000Y-110490000D03*
D11*
%TO.P,R2,2*%
%TO.N,Net-(D1-Pad1)*%
X81280000Y-110490000D03*
%TD*%
D12*
%TO.P,D2,1,K*%
%TO.N,Net-(D2-Pad1)*%
X73660000Y-104140000D03*
D13*
%TO.P,D2,2,A*%
%TO.N,PD1*%
X76200000Y-104140000D03*
%TD*%
D12*
%TO.P,D1,1,K*%
%TO.N,Net-(D1-Pad1)*%
X81280000Y-104140000D03*
D13*
%TO.P,D1,2,A*%
%TO.N,PD0*%
X83820000Y-104140000D03*
%TD*%
D14*
%TO.P,J4,1,Pin_1*%
%TO.N,GND*%
X91455000Y-104140000D03*
D15*
%TO.P,J4,2,Pin_2*%
%TO.N,VCC*%
X93995000Y-104140000D03*
%TO.P,J4,3,Pin_3*%
%TO.N,GND*%
X96535000Y-104140000D03*
%TD*%
D10*
%TO.P,R1,1*%
%TO.N,VCC*%
X73660000Y-86360000D03*
D11*
%TO.P,R1,2*%
%TO.N,RESET*%
X83820000Y-86360000D03*
%TD*%
D14*
%TO.P,J1,1,Pin_1*%
%TO.N,VCC*%
X82550000Y-90170000D03*
D15*
%TO.P,J1,2,Pin_2*%
%TO.N,SWIM*%
X82550000Y-92710000D03*
%TO.P,J1,3,Pin_3*%
%TO.N,GND*%
X82550000Y-95250000D03*
%TO.P,J1,4,Pin_4*%
%TO.N,RESET*%
X82550000Y-97790000D03*
%TD*%
D16*
%TO.P,J3,2,Ext*%
%TO.N,GND*%
X90487500Y-108765000D03*
D17*
X97472500Y-108320000D03*
D18*
X90487500Y-111305000D03*
D16*
X97472500Y-108765000D03*
D17*
X90487500Y-108320000D03*
D18*
X97472500Y-111305000D03*
%TD*%
D19*
%TO.P,SW1,1*%
%TO.N,GND*%
X74930000Y-92725000D03*
D15*
%TO.P,SW1,2*%
%TO.N,RESET*%
X74930000Y-97805000D03*
%TD*%
D14*
%TO.P,J2,1,Pin_1*%
%TO.N,Net-(J2-Pad1)*%
X97795000Y-81280000D03*
D15*
%TO.P,J2,2,Pin_2*%
%TO.N,Net-(J2-Pad2)*%
X95255000Y-81280000D03*
%TO.P,J2,3,Pin_3*%
%TO.N,Net-(J2-Pad3)*%
X92715000Y-81280000D03*
%TO.P,J2,4,Pin_4*%
%TO.N,Net-(J2-Pad4)*%
X90175000Y-81280000D03*
%TO.P,J2,5,Pin_5*%
%TO.N,Net-(J2-Pad5)*%
X87635000Y-81280000D03*
%TO.P,J2,6,Pin_6*%
%TO.N,Net-(J2-Pad6)*%
X85095000Y-81280000D03*
%TO.P,J2,7,Pin_7*%
%TO.N,Net-(J2-Pad7)*%
X82555000Y-81280000D03*
%TD*%
D20*
%TO.N,PD1*%
X92710000Y-100330000D03*
%TO.N,PD0*%
X91440000Y-100330000D03*
%TO.N,VCC*%
X90170000Y-100330000D03*
%TO.N,SWIM*%
X87630000Y-87630000D03*
%TO.N,RESET*%
X87630000Y-91440000D03*
%TD*%
D21*
%TO.N,PD1*%
X87675489Y-105364511D02*
X77424511Y-105364511D01*
X92710000Y-100330000D02*
X87675489Y-105364511D01*
X77424511Y-105364511D02*
X76200000Y-104140000D01*
%TO.N,PD0*%
X87630000Y-104140000D02*
X83820000Y-104140000D01*
X91440000Y-100330000D02*
X87630000Y-104140000D01*
%TO.N,VCC*%
X82550000Y-100330000D02*
X90170000Y-100330000D01*
X73660000Y-86360000D02*
X81375489Y-94075489D01*
X81375489Y-94075489D02*
X81375489Y-99155489D01*
X81375489Y-99155489D02*
X82550000Y-100330000D01*
%TO.N,SWIM*%
X87630000Y-87630000D02*
X82550000Y-92710000D01*
%TO.N,GND*%
X95360489Y-105314511D02*
X96535000Y-104140000D01*
X92629511Y-105314511D02*
X95360489Y-105314511D01*
X91455000Y-104140000D02*
X92629511Y-105314511D01*
%TO.N,RESET*%
X82550000Y-97790000D02*
X87630000Y-92710000D01*
X87630000Y-92710000D02*
X87630000Y-91440000D01*
%TD*%
M02*
