%TF.GenerationSoftware,KiCad,Pcbnew,(6.0.5)*%
%TF.CreationDate,2022-08-05T22:50:17+10:00*%
%TF.ProjectId,stm8_target,73746d38-5f74-4617-9267-65742e6b6963,rev?*%
%TF.SameCoordinates,Original*%
%TF.FileFunction,Soldermask,Top*%
%TF.FilePolarity,Negative*%
%FSLAX46Y46*%
G04 Gerber Fmt 4.6, Leading zero omitted, Abs format (unit mm)*
G04 Created by KiCad (PCBNEW (6.0.5)) date 2022-08-05 22:50:17*
%MOMM*%
%LPD*%
G01*
G04 APERTURE LIST*
%ADD10C,1.600000*%
%ADD11O,1.600000X1.600000*%
%ADD12R,1.800000X1.800000*%
%ADD13C,1.800000*%
%ADD14R,1.700000X1.700000*%
%ADD15O,1.700000X1.700000*%
%ADD16R,1.473200X0.508000*%
%ADD17R,0.508000X1.473200*%
%ADD18R,1.780000X4.190000*%
%ADD19R,2.665000X4.190000*%
%ADD20C,1.700000*%
G04 APERTURE END LIST*
D10*
%TO.C,R3*%
X76200000Y-110490000D03*
D11*
X73660000Y-110490000D03*
%TD*%
D10*
%TO.C,R2*%
X83820000Y-110490000D03*
D11*
X81280000Y-110490000D03*
%TD*%
D12*
%TO.C,D2*%
X73660000Y-104140000D03*
D13*
X76200000Y-104140000D03*
%TD*%
D12*
%TO.C,D1*%
X81280000Y-104140000D03*
D13*
X83820000Y-104140000D03*
%TD*%
D14*
%TO.C,J4*%
X91455000Y-104140000D03*
D15*
X93995000Y-104140000D03*
X96535000Y-104140000D03*
%TD*%
D16*
%TO.C,U1*%
X89865200Y-91180001D03*
X89865200Y-91979999D03*
X89865200Y-92780000D03*
X89865200Y-93580001D03*
X89865200Y-94379999D03*
X89865200Y-95180000D03*
X89865200Y-95979999D03*
X89865200Y-96779999D03*
D17*
X91180001Y-98094800D03*
X91979999Y-98094800D03*
X92780000Y-98094800D03*
X93580001Y-98094800D03*
X94379999Y-98094800D03*
X95180000Y-98094800D03*
X95979999Y-98094800D03*
X96779999Y-98094800D03*
D16*
X98094800Y-96779999D03*
X98094800Y-95980001D03*
X98094800Y-95180000D03*
X98094800Y-94379999D03*
X98094800Y-93580001D03*
X98094800Y-92780000D03*
X98094800Y-91980001D03*
X98094800Y-91180001D03*
D17*
X96779999Y-89865200D03*
X95980001Y-89865200D03*
X95180000Y-89865200D03*
X94379999Y-89865200D03*
X93580001Y-89865200D03*
X92780000Y-89865200D03*
X91980001Y-89865200D03*
X91180001Y-89865200D03*
%TD*%
D10*
%TO.C,R1*%
X73660000Y-86360000D03*
D11*
X83820000Y-86360000D03*
%TD*%
D14*
%TO.C,J1*%
X82550000Y-90170000D03*
D15*
X82550000Y-92710000D03*
X82550000Y-95250000D03*
X82550000Y-97790000D03*
%TD*%
D18*
%TO.C,J3*%
X93980000Y-111305000D03*
D19*
X97472500Y-111305000D03*
X90487500Y-111305000D03*
%TD*%
D20*
%TO.C,SW1*%
X74930000Y-92725000D03*
D15*
X74930000Y-97805000D03*
%TD*%
D14*
%TO.C,J2*%
X97795000Y-81280000D03*
D15*
X95255000Y-81280000D03*
X92715000Y-81280000D03*
X90175000Y-81280000D03*
X87635000Y-81280000D03*
X85095000Y-81280000D03*
X82555000Y-81280000D03*
%TD*%
M02*
