%TF.GenerationSoftware,KiCad,Pcbnew,(6.0.5)*%
%TF.CreationDate,2022-09-08T00:46:35+10:00*%
%TF.ProjectId,shield_holes,73686965-6c64-45f6-986f-6c65732e6b69,rev?*%
%TF.SameCoordinates,Original*%
%TF.FileFunction,Soldermask,Top*%
%TF.FilePolarity,Negative*%
%FSLAX46Y46*%
G04 Gerber Fmt 4.6, Leading zero omitted, Abs format (unit mm)*
G04 Created by KiCad (PCBNEW (6.0.5)) date 2022-09-08 00:46:35*
%MOMM*%
%LPD*%
G01*
G04 APERTURE LIST*
%ADD10C,1.700000*%
%ADD11O,1.700000X1.700000*%
G04 APERTURE END LIST*
D10*
%TO.C,J1*%
X88900000Y-113025000D03*
D11*
X88900000Y-110485000D03*
X88900000Y-107945000D03*
X88900000Y-105405000D03*
X88900000Y-102865000D03*
X88900000Y-100325000D03*
X88900000Y-97785000D03*
X88900000Y-95245000D03*
X88900000Y-92705000D03*
X88900000Y-90165000D03*
X88900000Y-87625000D03*
X88900000Y-85085000D03*
X88900000Y-82545000D03*
X88900000Y-80005000D03*
X88900000Y-77465000D03*
X88900000Y-74925000D03*
X88900000Y-72385000D03*
X88900000Y-69845000D03*
X88900000Y-67305000D03*
X88900000Y-64765000D03*
%TD*%
D10*
%TO.C,J1*%
X73660000Y-113025000D03*
D11*
X73660000Y-110485000D03*
X73660000Y-107945000D03*
X73660000Y-105405000D03*
X73660000Y-102865000D03*
X73660000Y-100325000D03*
X73660000Y-97785000D03*
X73660000Y-95245000D03*
X73660000Y-92705000D03*
X73660000Y-90165000D03*
X73660000Y-87625000D03*
X73660000Y-85085000D03*
X73660000Y-82545000D03*
X73660000Y-80005000D03*
X73660000Y-77465000D03*
X73660000Y-74925000D03*
X73660000Y-72385000D03*
X73660000Y-69845000D03*
X73660000Y-67305000D03*
X73660000Y-64765000D03*
%TD*%
D10*
%TO.C,J1*%
X93980000Y-113025000D03*
D11*
X93980000Y-110485000D03*
X93980000Y-107945000D03*
X93980000Y-105405000D03*
X93980000Y-102865000D03*
X93980000Y-100325000D03*
X93980000Y-97785000D03*
X93980000Y-95245000D03*
X93980000Y-92705000D03*
X93980000Y-90165000D03*
X93980000Y-87625000D03*
X93980000Y-85085000D03*
X93980000Y-82545000D03*
X93980000Y-80005000D03*
X93980000Y-77465000D03*
X93980000Y-74925000D03*
X93980000Y-72385000D03*
X93980000Y-69845000D03*
X93980000Y-67305000D03*
X93980000Y-64765000D03*
%TD*%
D10*
%TO.C,J1*%
X91440000Y-113025000D03*
D11*
X91440000Y-110485000D03*
X91440000Y-107945000D03*
X91440000Y-105405000D03*
X91440000Y-102865000D03*
X91440000Y-100325000D03*
X91440000Y-97785000D03*
X91440000Y-95245000D03*
X91440000Y-92705000D03*
X91440000Y-90165000D03*
X91440000Y-87625000D03*
X91440000Y-85085000D03*
X91440000Y-82545000D03*
X91440000Y-80005000D03*
X91440000Y-77465000D03*
X91440000Y-74925000D03*
X91440000Y-72385000D03*
X91440000Y-69845000D03*
X91440000Y-67305000D03*
X91440000Y-64765000D03*
%TD*%
D10*
%TO.C,J1*%
X99060000Y-113025000D03*
D11*
X99060000Y-110485000D03*
X99060000Y-107945000D03*
X99060000Y-105405000D03*
X99060000Y-102865000D03*
X99060000Y-100325000D03*
X99060000Y-97785000D03*
X99060000Y-95245000D03*
X99060000Y-92705000D03*
X99060000Y-90165000D03*
X99060000Y-87625000D03*
X99060000Y-85085000D03*
X99060000Y-82545000D03*
X99060000Y-80005000D03*
X99060000Y-77465000D03*
X99060000Y-74925000D03*
X99060000Y-72385000D03*
X99060000Y-69845000D03*
X99060000Y-67305000D03*
X99060000Y-64765000D03*
%TD*%
D10*
%TO.C,J1*%
X78740000Y-113025000D03*
D11*
X78740000Y-110485000D03*
X78740000Y-107945000D03*
X78740000Y-105405000D03*
X78740000Y-102865000D03*
X78740000Y-100325000D03*
X78740000Y-97785000D03*
X78740000Y-95245000D03*
X78740000Y-92705000D03*
X78740000Y-90165000D03*
X78740000Y-87625000D03*
X78740000Y-85085000D03*
X78740000Y-82545000D03*
X78740000Y-80005000D03*
X78740000Y-77465000D03*
X78740000Y-74925000D03*
X78740000Y-72385000D03*
X78740000Y-69845000D03*
X78740000Y-67305000D03*
X78740000Y-64765000D03*
%TD*%
D10*
%TO.C,J1*%
X76200000Y-113025000D03*
D11*
X76200000Y-110485000D03*
X76200000Y-107945000D03*
X76200000Y-105405000D03*
X76200000Y-102865000D03*
X76200000Y-100325000D03*
X76200000Y-97785000D03*
X76200000Y-95245000D03*
X76200000Y-92705000D03*
X76200000Y-90165000D03*
X76200000Y-87625000D03*
X76200000Y-85085000D03*
X76200000Y-82545000D03*
X76200000Y-80005000D03*
X76200000Y-77465000D03*
X76200000Y-74925000D03*
X76200000Y-72385000D03*
X76200000Y-69845000D03*
X76200000Y-67305000D03*
X76200000Y-64765000D03*
%TD*%
D10*
%TO.C,J1*%
X50800000Y-113030000D03*
D11*
X50800000Y-110490000D03*
X50800000Y-107950000D03*
X50800000Y-105410000D03*
X50800000Y-102870000D03*
X50800000Y-100330000D03*
X50800000Y-97790000D03*
X50800000Y-95250000D03*
X50800000Y-92710000D03*
X50800000Y-90170000D03*
X50800000Y-87630000D03*
X50800000Y-85090000D03*
X50800000Y-82550000D03*
X50800000Y-80010000D03*
X50800000Y-77470000D03*
X50800000Y-74930000D03*
X50800000Y-72390000D03*
X50800000Y-69850000D03*
X50800000Y-67310000D03*
X50800000Y-64770000D03*
%TD*%
D10*
%TO.C,J1*%
X81280000Y-113025000D03*
D11*
X81280000Y-110485000D03*
X81280000Y-107945000D03*
X81280000Y-105405000D03*
X81280000Y-102865000D03*
X81280000Y-100325000D03*
X81280000Y-97785000D03*
X81280000Y-95245000D03*
X81280000Y-92705000D03*
X81280000Y-90165000D03*
X81280000Y-87625000D03*
X81280000Y-85085000D03*
X81280000Y-82545000D03*
X81280000Y-80005000D03*
X81280000Y-77465000D03*
X81280000Y-74925000D03*
X81280000Y-72385000D03*
X81280000Y-69845000D03*
X81280000Y-67305000D03*
X81280000Y-64765000D03*
%TD*%
D10*
%TO.C,J1*%
X63500000Y-113025000D03*
D11*
X63500000Y-110485000D03*
X63500000Y-107945000D03*
X63500000Y-105405000D03*
X63500000Y-102865000D03*
X63500000Y-100325000D03*
X63500000Y-97785000D03*
X63500000Y-95245000D03*
X63500000Y-92705000D03*
X63500000Y-90165000D03*
X63500000Y-87625000D03*
X63500000Y-85085000D03*
X63500000Y-82545000D03*
X63500000Y-80005000D03*
X63500000Y-77465000D03*
X63500000Y-74925000D03*
X63500000Y-72385000D03*
X63500000Y-69845000D03*
X63500000Y-67305000D03*
X63500000Y-64765000D03*
%TD*%
D10*
%TO.C,J2*%
X111760003Y-113030000D03*
D11*
X111760000Y-110490000D03*
X111760000Y-107950000D03*
X111760000Y-105410000D03*
X111760000Y-102870000D03*
X111760000Y-100330000D03*
X111760000Y-97790000D03*
X111760000Y-95250000D03*
X111760000Y-92710000D03*
X111760000Y-90170000D03*
X111760000Y-87630000D03*
X111760000Y-85090000D03*
X111760000Y-82550000D03*
X111760000Y-80010000D03*
X111760000Y-77470000D03*
X111760000Y-74930000D03*
X111760000Y-72390000D03*
X111760000Y-69850000D03*
X111760000Y-67310000D03*
X111760000Y-64770000D03*
%TD*%
D10*
%TO.C,J1*%
X86360000Y-113025000D03*
D11*
X86360000Y-110485000D03*
X86360000Y-107945000D03*
X86360000Y-105405000D03*
X86360000Y-102865000D03*
X86360000Y-100325000D03*
X86360000Y-97785000D03*
X86360000Y-95245000D03*
X86360000Y-92705000D03*
X86360000Y-90165000D03*
X86360000Y-87625000D03*
X86360000Y-85085000D03*
X86360000Y-82545000D03*
X86360000Y-80005000D03*
X86360000Y-77465000D03*
X86360000Y-74925000D03*
X86360000Y-72385000D03*
X86360000Y-69845000D03*
X86360000Y-67305000D03*
X86360000Y-64765000D03*
%TD*%
D10*
%TO.C,J1*%
X96520000Y-113025000D03*
D11*
X96520000Y-110485000D03*
X96520000Y-107945000D03*
X96520000Y-105405000D03*
X96520000Y-102865000D03*
X96520000Y-100325000D03*
X96520000Y-97785000D03*
X96520000Y-95245000D03*
X96520000Y-92705000D03*
X96520000Y-90165000D03*
X96520000Y-87625000D03*
X96520000Y-85085000D03*
X96520000Y-82545000D03*
X96520000Y-80005000D03*
X96520000Y-77465000D03*
X96520000Y-74925000D03*
X96520000Y-72385000D03*
X96520000Y-69845000D03*
X96520000Y-67305000D03*
X96520000Y-64765000D03*
%TD*%
D10*
%TO.C,J1*%
X68580000Y-113025000D03*
D11*
X68580000Y-110485000D03*
X68580000Y-107945000D03*
X68580000Y-105405000D03*
X68580000Y-102865000D03*
X68580000Y-100325000D03*
X68580000Y-97785000D03*
X68580000Y-95245000D03*
X68580000Y-92705000D03*
X68580000Y-90165000D03*
X68580000Y-87625000D03*
X68580000Y-85085000D03*
X68580000Y-82545000D03*
X68580000Y-80005000D03*
X68580000Y-77465000D03*
X68580000Y-74925000D03*
X68580000Y-72385000D03*
X68580000Y-69845000D03*
X68580000Y-67305000D03*
X68580000Y-64765000D03*
%TD*%
D10*
%TO.C,J1*%
X83820000Y-113025000D03*
D11*
X83820000Y-110485000D03*
X83820000Y-107945000D03*
X83820000Y-105405000D03*
X83820000Y-102865000D03*
X83820000Y-100325000D03*
X83820000Y-97785000D03*
X83820000Y-95245000D03*
X83820000Y-92705000D03*
X83820000Y-90165000D03*
X83820000Y-87625000D03*
X83820000Y-85085000D03*
X83820000Y-82545000D03*
X83820000Y-80005000D03*
X83820000Y-77465000D03*
X83820000Y-74925000D03*
X83820000Y-72385000D03*
X83820000Y-69845000D03*
X83820000Y-67305000D03*
X83820000Y-64765000D03*
%TD*%
D10*
%TO.C,J1*%
X71120000Y-113025000D03*
D11*
X71120000Y-110485000D03*
X71120000Y-107945000D03*
X71120000Y-105405000D03*
X71120000Y-102865000D03*
X71120000Y-100325000D03*
X71120000Y-97785000D03*
X71120000Y-95245000D03*
X71120000Y-92705000D03*
X71120000Y-90165000D03*
X71120000Y-87625000D03*
X71120000Y-85085000D03*
X71120000Y-82545000D03*
X71120000Y-80005000D03*
X71120000Y-77465000D03*
X71120000Y-74925000D03*
X71120000Y-72385000D03*
X71120000Y-69845000D03*
X71120000Y-67305000D03*
X71120000Y-64765000D03*
%TD*%
D10*
%TO.C,J1*%
X66040000Y-113025000D03*
D11*
X66040000Y-110485000D03*
X66040000Y-107945000D03*
X66040000Y-105405000D03*
X66040000Y-102865000D03*
X66040000Y-100325000D03*
X66040000Y-97785000D03*
X66040000Y-95245000D03*
X66040000Y-92705000D03*
X66040000Y-90165000D03*
X66040000Y-87625000D03*
X66040000Y-85085000D03*
X66040000Y-82545000D03*
X66040000Y-80005000D03*
X66040000Y-77465000D03*
X66040000Y-74925000D03*
X66040000Y-72385000D03*
X66040000Y-69845000D03*
X66040000Y-67305000D03*
X66040000Y-64765000D03*
%TD*%
M02*
