%TF.GenerationSoftware,KiCad,Pcbnew,(6.0.5)*%
%TF.CreationDate,2022-09-08T00:46:35+10:00*%
%TF.ProjectId,shield_holes,73686965-6c64-45f6-986f-6c65732e6b69,rev?*%
%TF.SameCoordinates,Original*%
%TF.FileFunction,Legend,Top*%
%TF.FilePolarity,Positive*%
%FSLAX46Y46*%
G04 Gerber Fmt 4.6, Leading zero omitted, Abs format (unit mm)*
G04 Created by KiCad (PCBNEW (6.0.5)) date 2022-09-08 00:46:35*
%MOMM*%
%LPD*%
G01*
G04 APERTURE LIST*
%ADD10C,0.150000*%
G04 APERTURE END LIST*
D10*
X54927619Y-92638571D02*
X55070476Y-92686190D01*
X55118095Y-92733809D01*
X55165714Y-92829047D01*
X55165714Y-92971904D01*
X55118095Y-93067142D01*
X55070476Y-93114761D01*
X54975238Y-93162380D01*
X54594286Y-93162380D01*
X54594286Y-92162380D01*
X54927619Y-92162380D01*
X55022857Y-92210000D01*
X55070476Y-92257619D01*
X55118095Y-92352857D01*
X55118095Y-92448095D01*
X55070476Y-92543333D01*
X55022857Y-92590952D01*
X54927619Y-92638571D01*
X54594286Y-92638571D01*
X56118095Y-93162380D02*
X55546667Y-93162380D01*
X55832381Y-93162380D02*
X55832381Y-92162380D01*
X55737143Y-92305238D01*
X55641905Y-92400476D01*
X55546667Y-92448095D01*
X57022857Y-92162380D02*
X56546667Y-92162380D01*
X56499048Y-92638571D01*
X56546667Y-92590952D01*
X56641905Y-92543333D01*
X56880000Y-92543333D01*
X56975238Y-92590952D01*
X57022857Y-92638571D01*
X57070476Y-92733809D01*
X57070476Y-92971904D01*
X57022857Y-93067142D01*
X56975238Y-93114761D01*
X56880000Y-93162380D01*
X56641905Y-93162380D01*
X56546667Y-93114761D01*
X56499048Y-93067142D01*
X107108571Y-109942380D02*
X106632381Y-109942380D01*
X106584762Y-110418571D01*
X106632381Y-110370952D01*
X106727619Y-110323333D01*
X106965714Y-110323333D01*
X107060952Y-110370952D01*
X107108571Y-110418571D01*
X107156190Y-110513809D01*
X107156190Y-110751904D01*
X107108571Y-110847142D01*
X107060952Y-110894761D01*
X106965714Y-110942380D01*
X106727619Y-110942380D01*
X106632381Y-110894761D01*
X106584762Y-110847142D01*
X107441905Y-109942380D02*
X107775238Y-110942380D01*
X108108571Y-109942380D01*
X55070476Y-108402380D02*
X54594285Y-108402380D01*
X54594285Y-107402380D01*
X55356190Y-107497619D02*
X55403809Y-107450000D01*
X55499047Y-107402380D01*
X55737143Y-107402380D01*
X55832381Y-107450000D01*
X55880000Y-107497619D01*
X55927619Y-107592857D01*
X55927619Y-107688095D01*
X55880000Y-107830952D01*
X55308571Y-108402380D01*
X55927619Y-108402380D01*
X54880000Y-99782380D02*
X54880000Y-100496666D01*
X54832381Y-100639523D01*
X54737143Y-100734761D01*
X54594286Y-100782380D01*
X54499048Y-100782380D01*
X55880000Y-100782380D02*
X55308572Y-100782380D01*
X55594286Y-100782380D02*
X55594286Y-99782380D01*
X55499048Y-99925238D01*
X55403810Y-100020476D01*
X55308572Y-100068095D01*
X106013333Y-79510000D02*
X105918095Y-79462380D01*
X105775238Y-79462380D01*
X105632380Y-79510000D01*
X105537142Y-79605238D01*
X105489523Y-79700476D01*
X105441904Y-79890952D01*
X105441904Y-80033809D01*
X105489523Y-80224285D01*
X105537142Y-80319523D01*
X105632380Y-80414761D01*
X105775238Y-80462380D01*
X105870476Y-80462380D01*
X106013333Y-80414761D01*
X106060952Y-80367142D01*
X106060952Y-80033809D01*
X105870476Y-80033809D01*
X106489523Y-80462380D02*
X106489523Y-79462380D01*
X106870476Y-79462380D01*
X106965714Y-79510000D01*
X107013333Y-79557619D01*
X107060952Y-79652857D01*
X107060952Y-79795714D01*
X107013333Y-79890952D01*
X106965714Y-79938571D01*
X106870476Y-79986190D01*
X106489523Y-79986190D01*
X107918095Y-79462380D02*
X107727619Y-79462380D01*
X107632380Y-79510000D01*
X107584761Y-79557619D01*
X107489523Y-79700476D01*
X107441904Y-79890952D01*
X107441904Y-80271904D01*
X107489523Y-80367142D01*
X107537142Y-80414761D01*
X107632380Y-80462380D01*
X107822857Y-80462380D01*
X107918095Y-80414761D01*
X107965714Y-80367142D01*
X108013333Y-80271904D01*
X108013333Y-80033809D01*
X107965714Y-79938571D01*
X107918095Y-79890952D01*
X107822857Y-79843333D01*
X107632380Y-79843333D01*
X107537142Y-79890952D01*
X107489523Y-79938571D01*
X107441904Y-80033809D01*
X54594285Y-83002380D02*
X54594285Y-82002380D01*
X55165714Y-83002380D02*
X54737142Y-82430952D01*
X55165714Y-82002380D02*
X54594285Y-82573809D01*
X55499047Y-82002380D02*
X56118095Y-82002380D01*
X55784761Y-82383333D01*
X55927619Y-82383333D01*
X56022857Y-82430952D01*
X56070476Y-82478571D01*
X56118095Y-82573809D01*
X56118095Y-82811904D01*
X56070476Y-82907142D01*
X56022857Y-82954761D01*
X55927619Y-83002380D01*
X55641904Y-83002380D01*
X55546666Y-82954761D01*
X55499047Y-82907142D01*
X54594286Y-77922380D02*
X54594286Y-76922380D01*
X55165714Y-77922380D01*
X55165714Y-76922380D01*
X55546667Y-76922380D02*
X56165714Y-76922380D01*
X55832381Y-77303333D01*
X55975238Y-77303333D01*
X56070476Y-77350952D01*
X56118095Y-77398571D01*
X56165714Y-77493809D01*
X56165714Y-77731904D01*
X56118095Y-77827142D01*
X56070476Y-77874761D01*
X55975238Y-77922380D01*
X55689524Y-77922380D01*
X55594286Y-77874761D01*
X55546667Y-77827142D01*
X105941904Y-69778571D02*
X106275238Y-69778571D01*
X106418095Y-70302380D02*
X105941904Y-70302380D01*
X105941904Y-69302380D01*
X106418095Y-69302380D01*
X106846666Y-70302380D02*
X106846666Y-69302380D01*
X107418095Y-70302380D01*
X107418095Y-69302380D01*
X54594286Y-75382380D02*
X54594286Y-74382380D01*
X54927619Y-75096666D01*
X55260952Y-74382380D01*
X55260952Y-75382380D01*
X56260952Y-75382380D02*
X55689524Y-75382380D01*
X55975238Y-75382380D02*
X55975238Y-74382380D01*
X55880000Y-74525238D01*
X55784762Y-74620476D01*
X55689524Y-74668095D01*
X105060952Y-94750000D02*
X104965714Y-94702380D01*
X104822857Y-94702380D01*
X104680000Y-94750000D01*
X104584762Y-94845238D01*
X104537143Y-94940476D01*
X104489524Y-95130952D01*
X104489524Y-95273809D01*
X104537143Y-95464285D01*
X104584762Y-95559523D01*
X104680000Y-95654761D01*
X104822857Y-95702380D01*
X104918095Y-95702380D01*
X105060952Y-95654761D01*
X105108571Y-95607142D01*
X105108571Y-95273809D01*
X104918095Y-95273809D01*
X105537143Y-95702380D02*
X105537143Y-94702380D01*
X105918095Y-94702380D01*
X106013333Y-94750000D01*
X106060952Y-94797619D01*
X106108571Y-94892857D01*
X106108571Y-95035714D01*
X106060952Y-95130952D01*
X106013333Y-95178571D01*
X105918095Y-95226190D01*
X105537143Y-95226190D01*
X107060952Y-95702380D02*
X106489524Y-95702380D01*
X106775238Y-95702380D02*
X106775238Y-94702380D01*
X106680000Y-94845238D01*
X106584762Y-94940476D01*
X106489524Y-94988095D01*
X107441905Y-94797619D02*
X107489524Y-94750000D01*
X107584762Y-94702380D01*
X107822857Y-94702380D01*
X107918095Y-94750000D01*
X107965714Y-94797619D01*
X108013333Y-94892857D01*
X108013333Y-94988095D01*
X107965714Y-95130952D01*
X107394286Y-95702380D01*
X108013333Y-95702380D01*
X54546666Y-95416666D02*
X55022857Y-95416666D01*
X54451428Y-95702380D02*
X54784762Y-94702380D01*
X55118095Y-95702380D01*
X55975238Y-95702380D02*
X55403809Y-95702380D01*
X55689523Y-95702380D02*
X55689523Y-94702380D01*
X55594285Y-94845238D01*
X55499047Y-94940476D01*
X55403809Y-94988095D01*
X56832381Y-95035714D02*
X56832381Y-95702380D01*
X56594285Y-94654761D02*
X56356190Y-95369047D01*
X56975238Y-95369047D01*
X54784762Y-67286190D02*
X54784762Y-67762380D01*
X54451428Y-66762380D02*
X54784762Y-67286190D01*
X55118095Y-66762380D01*
X105060952Y-89670000D02*
X104965714Y-89622380D01*
X104822857Y-89622380D01*
X104680000Y-89670000D01*
X104584762Y-89765238D01*
X104537143Y-89860476D01*
X104489524Y-90050952D01*
X104489524Y-90193809D01*
X104537143Y-90384285D01*
X104584762Y-90479523D01*
X104680000Y-90574761D01*
X104822857Y-90622380D01*
X104918095Y-90622380D01*
X105060952Y-90574761D01*
X105108571Y-90527142D01*
X105108571Y-90193809D01*
X104918095Y-90193809D01*
X105537143Y-90622380D02*
X105537143Y-89622380D01*
X105918095Y-89622380D01*
X106013333Y-89670000D01*
X106060952Y-89717619D01*
X106108571Y-89812857D01*
X106108571Y-89955714D01*
X106060952Y-90050952D01*
X106013333Y-90098571D01*
X105918095Y-90146190D01*
X105537143Y-90146190D01*
X107060952Y-90622380D02*
X106489524Y-90622380D01*
X106775238Y-90622380D02*
X106775238Y-89622380D01*
X106680000Y-89765238D01*
X106584762Y-89860476D01*
X106489524Y-89908095D01*
X107680000Y-89622380D02*
X107775238Y-89622380D01*
X107870476Y-89670000D01*
X107918095Y-89717619D01*
X107965714Y-89812857D01*
X108013333Y-90003333D01*
X108013333Y-90241428D01*
X107965714Y-90431904D01*
X107918095Y-90527142D01*
X107870476Y-90574761D01*
X107775238Y-90622380D01*
X107680000Y-90622380D01*
X107584762Y-90574761D01*
X107537143Y-90527142D01*
X107489524Y-90431904D01*
X107441905Y-90241428D01*
X107441905Y-90003333D01*
X107489524Y-89812857D01*
X107537143Y-89717619D01*
X107584762Y-89670000D01*
X107680000Y-89622380D01*
X105060952Y-97290000D02*
X104965714Y-97242380D01*
X104822857Y-97242380D01*
X104680000Y-97290000D01*
X104584762Y-97385238D01*
X104537143Y-97480476D01*
X104489524Y-97670952D01*
X104489524Y-97813809D01*
X104537143Y-98004285D01*
X104584762Y-98099523D01*
X104680000Y-98194761D01*
X104822857Y-98242380D01*
X104918095Y-98242380D01*
X105060952Y-98194761D01*
X105108571Y-98147142D01*
X105108571Y-97813809D01*
X104918095Y-97813809D01*
X105537143Y-98242380D02*
X105537143Y-97242380D01*
X105918095Y-97242380D01*
X106013333Y-97290000D01*
X106060952Y-97337619D01*
X106108571Y-97432857D01*
X106108571Y-97575714D01*
X106060952Y-97670952D01*
X106013333Y-97718571D01*
X105918095Y-97766190D01*
X105537143Y-97766190D01*
X107060952Y-98242380D02*
X106489524Y-98242380D01*
X106775238Y-98242380D02*
X106775238Y-97242380D01*
X106680000Y-97385238D01*
X106584762Y-97480476D01*
X106489524Y-97528095D01*
X107394286Y-97242380D02*
X108013333Y-97242380D01*
X107680000Y-97623333D01*
X107822857Y-97623333D01*
X107918095Y-97670952D01*
X107965714Y-97718571D01*
X108013333Y-97813809D01*
X108013333Y-98051904D01*
X107965714Y-98147142D01*
X107918095Y-98194761D01*
X107822857Y-98242380D01*
X107537143Y-98242380D01*
X107441905Y-98194761D01*
X107394286Y-98147142D01*
X105060952Y-99830000D02*
X104965714Y-99782380D01*
X104822857Y-99782380D01*
X104680000Y-99830000D01*
X104584762Y-99925238D01*
X104537143Y-100020476D01*
X104489524Y-100210952D01*
X104489524Y-100353809D01*
X104537143Y-100544285D01*
X104584762Y-100639523D01*
X104680000Y-100734761D01*
X104822857Y-100782380D01*
X104918095Y-100782380D01*
X105060952Y-100734761D01*
X105108571Y-100687142D01*
X105108571Y-100353809D01*
X104918095Y-100353809D01*
X105537143Y-100782380D02*
X105537143Y-99782380D01*
X105918095Y-99782380D01*
X106013333Y-99830000D01*
X106060952Y-99877619D01*
X106108571Y-99972857D01*
X106108571Y-100115714D01*
X106060952Y-100210952D01*
X106013333Y-100258571D01*
X105918095Y-100306190D01*
X105537143Y-100306190D01*
X107060952Y-100782380D02*
X106489524Y-100782380D01*
X106775238Y-100782380D02*
X106775238Y-99782380D01*
X106680000Y-99925238D01*
X106584762Y-100020476D01*
X106489524Y-100068095D01*
X107918095Y-100115714D02*
X107918095Y-100782380D01*
X107680000Y-99734761D02*
X107441905Y-100449047D01*
X108060952Y-100449047D01*
X105060952Y-102370000D02*
X104965714Y-102322380D01*
X104822857Y-102322380D01*
X104680000Y-102370000D01*
X104584762Y-102465238D01*
X104537143Y-102560476D01*
X104489524Y-102750952D01*
X104489524Y-102893809D01*
X104537143Y-103084285D01*
X104584762Y-103179523D01*
X104680000Y-103274761D01*
X104822857Y-103322380D01*
X104918095Y-103322380D01*
X105060952Y-103274761D01*
X105108571Y-103227142D01*
X105108571Y-102893809D01*
X104918095Y-102893809D01*
X105537143Y-103322380D02*
X105537143Y-102322380D01*
X105918095Y-102322380D01*
X106013333Y-102370000D01*
X106060952Y-102417619D01*
X106108571Y-102512857D01*
X106108571Y-102655714D01*
X106060952Y-102750952D01*
X106013333Y-102798571D01*
X105918095Y-102846190D01*
X105537143Y-102846190D01*
X107060952Y-103322380D02*
X106489524Y-103322380D01*
X106775238Y-103322380D02*
X106775238Y-102322380D01*
X106680000Y-102465238D01*
X106584762Y-102560476D01*
X106489524Y-102608095D01*
X107965714Y-102322380D02*
X107489524Y-102322380D01*
X107441905Y-102798571D01*
X107489524Y-102750952D01*
X107584762Y-102703333D01*
X107822857Y-102703333D01*
X107918095Y-102750952D01*
X107965714Y-102798571D01*
X108013333Y-102893809D01*
X108013333Y-103131904D01*
X107965714Y-103227142D01*
X107918095Y-103274761D01*
X107822857Y-103322380D01*
X107584762Y-103322380D01*
X107489524Y-103274761D01*
X107441905Y-103227142D01*
X54880000Y-97242380D02*
X54880000Y-97956666D01*
X54832381Y-98099523D01*
X54737143Y-98194761D01*
X54594286Y-98242380D01*
X54499048Y-98242380D01*
X55260953Y-97242380D02*
X55880000Y-97242380D01*
X55546667Y-97623333D01*
X55689524Y-97623333D01*
X55784762Y-97670952D01*
X55832381Y-97718571D01*
X55880000Y-97813809D01*
X55880000Y-98051904D01*
X55832381Y-98147142D01*
X55784762Y-98194761D01*
X55689524Y-98242380D01*
X55403810Y-98242380D01*
X55308572Y-98194761D01*
X55260953Y-98147142D01*
X106013333Y-76970000D02*
X105918095Y-76922380D01*
X105775238Y-76922380D01*
X105632380Y-76970000D01*
X105537142Y-77065238D01*
X105489523Y-77160476D01*
X105441904Y-77350952D01*
X105441904Y-77493809D01*
X105489523Y-77684285D01*
X105537142Y-77779523D01*
X105632380Y-77874761D01*
X105775238Y-77922380D01*
X105870476Y-77922380D01*
X106013333Y-77874761D01*
X106060952Y-77827142D01*
X106060952Y-77493809D01*
X105870476Y-77493809D01*
X106489523Y-77922380D02*
X106489523Y-76922380D01*
X106870476Y-76922380D01*
X106965714Y-76970000D01*
X107013333Y-77017619D01*
X107060952Y-77112857D01*
X107060952Y-77255714D01*
X107013333Y-77350952D01*
X106965714Y-77398571D01*
X106870476Y-77446190D01*
X106489523Y-77446190D01*
X107965714Y-76922380D02*
X107489523Y-76922380D01*
X107441904Y-77398571D01*
X107489523Y-77350952D01*
X107584761Y-77303333D01*
X107822857Y-77303333D01*
X107918095Y-77350952D01*
X107965714Y-77398571D01*
X108013333Y-77493809D01*
X108013333Y-77731904D01*
X107965714Y-77827142D01*
X107918095Y-77874761D01*
X107822857Y-77922380D01*
X107584761Y-77922380D01*
X107489523Y-77874761D01*
X107441904Y-77827142D01*
X55118095Y-112530000D02*
X55022857Y-112482380D01*
X54880000Y-112482380D01*
X54737142Y-112530000D01*
X54641904Y-112625238D01*
X54594285Y-112720476D01*
X54546666Y-112910952D01*
X54546666Y-113053809D01*
X54594285Y-113244285D01*
X54641904Y-113339523D01*
X54737142Y-113434761D01*
X54880000Y-113482380D01*
X54975238Y-113482380D01*
X55118095Y-113434761D01*
X55165714Y-113387142D01*
X55165714Y-113053809D01*
X54975238Y-113053809D01*
X55594285Y-113482380D02*
X55594285Y-112482380D01*
X56165714Y-113482380D01*
X56165714Y-112482380D01*
X56641904Y-113482380D02*
X56641904Y-112482380D01*
X56880000Y-112482380D01*
X57022857Y-112530000D01*
X57118095Y-112625238D01*
X57165714Y-112720476D01*
X57213333Y-112910952D01*
X57213333Y-113053809D01*
X57165714Y-113244285D01*
X57118095Y-113339523D01*
X57022857Y-113434761D01*
X56880000Y-113482380D01*
X56641904Y-113482380D01*
X106013333Y-84590000D02*
X105918095Y-84542380D01*
X105775238Y-84542380D01*
X105632380Y-84590000D01*
X105537142Y-84685238D01*
X105489523Y-84780476D01*
X105441904Y-84970952D01*
X105441904Y-85113809D01*
X105489523Y-85304285D01*
X105537142Y-85399523D01*
X105632380Y-85494761D01*
X105775238Y-85542380D01*
X105870476Y-85542380D01*
X106013333Y-85494761D01*
X106060952Y-85447142D01*
X106060952Y-85113809D01*
X105870476Y-85113809D01*
X106489523Y-85542380D02*
X106489523Y-84542380D01*
X106870476Y-84542380D01*
X106965714Y-84590000D01*
X107013333Y-84637619D01*
X107060952Y-84732857D01*
X107060952Y-84875714D01*
X107013333Y-84970952D01*
X106965714Y-85018571D01*
X106870476Y-85066190D01*
X106489523Y-85066190D01*
X107632380Y-84970952D02*
X107537142Y-84923333D01*
X107489523Y-84875714D01*
X107441904Y-84780476D01*
X107441904Y-84732857D01*
X107489523Y-84637619D01*
X107537142Y-84590000D01*
X107632380Y-84542380D01*
X107822857Y-84542380D01*
X107918095Y-84590000D01*
X107965714Y-84637619D01*
X108013333Y-84732857D01*
X108013333Y-84780476D01*
X107965714Y-84875714D01*
X107918095Y-84923333D01*
X107822857Y-84970952D01*
X107632380Y-84970952D01*
X107537142Y-85018571D01*
X107489523Y-85066190D01*
X107441904Y-85161428D01*
X107441904Y-85351904D01*
X107489523Y-85447142D01*
X107537142Y-85494761D01*
X107632380Y-85542380D01*
X107822857Y-85542380D01*
X107918095Y-85494761D01*
X107965714Y-85447142D01*
X108013333Y-85351904D01*
X108013333Y-85161428D01*
X107965714Y-85066190D01*
X107918095Y-85018571D01*
X107822857Y-84970952D01*
X54594285Y-103322380D02*
X54594285Y-102322380D01*
X55165714Y-103322380D02*
X54737142Y-102750952D01*
X55165714Y-102322380D02*
X54594285Y-102893809D01*
X55546666Y-102417619D02*
X55594285Y-102370000D01*
X55689523Y-102322380D01*
X55927619Y-102322380D01*
X56022857Y-102370000D01*
X56070476Y-102417619D01*
X56118095Y-102512857D01*
X56118095Y-102608095D01*
X56070476Y-102750952D01*
X55499047Y-103322380D01*
X56118095Y-103322380D01*
X54499047Y-109942380D02*
X55118095Y-109942380D01*
X54784761Y-110323333D01*
X54927618Y-110323333D01*
X55022857Y-110370952D01*
X55070476Y-110418571D01*
X55118095Y-110513809D01*
X55118095Y-110751904D01*
X55070476Y-110847142D01*
X55022857Y-110894761D01*
X54927618Y-110942380D01*
X54641904Y-110942380D01*
X54546666Y-110894761D01*
X54499047Y-110847142D01*
X55546666Y-110847142D02*
X55594285Y-110894761D01*
X55546666Y-110942380D01*
X55499047Y-110894761D01*
X55546666Y-110847142D01*
X55546666Y-110942380D01*
X55927618Y-109942380D02*
X56546666Y-109942380D01*
X56213333Y-110323333D01*
X56356190Y-110323333D01*
X56451428Y-110370952D01*
X56499047Y-110418571D01*
X56546666Y-110513809D01*
X56546666Y-110751904D01*
X56499047Y-110847142D01*
X56451428Y-110894761D01*
X56356190Y-110942380D01*
X56070476Y-110942380D01*
X55975238Y-110894761D01*
X55927618Y-110847142D01*
X56832380Y-109942380D02*
X57165714Y-110942380D01*
X57499047Y-109942380D01*
X54594285Y-80462380D02*
X54594285Y-79462380D01*
X54975238Y-79462380D01*
X55070476Y-79510000D01*
X55118095Y-79557619D01*
X55165714Y-79652857D01*
X55165714Y-79795714D01*
X55118095Y-79890952D01*
X55070476Y-79938571D01*
X54975238Y-79986190D01*
X54594285Y-79986190D01*
X55499047Y-79462380D02*
X56118095Y-79462380D01*
X55784761Y-79843333D01*
X55927619Y-79843333D01*
X56022857Y-79890952D01*
X56070476Y-79938571D01*
X56118095Y-80033809D01*
X56118095Y-80271904D01*
X56070476Y-80367142D01*
X56022857Y-80414761D01*
X55927619Y-80462380D01*
X55641904Y-80462380D01*
X55546666Y-80414761D01*
X55499047Y-80367142D01*
X54594286Y-88082380D02*
X54594286Y-87082380D01*
X54594286Y-87558571D02*
X55165714Y-87558571D01*
X55165714Y-88082380D02*
X55165714Y-87082380D01*
X56165714Y-88082380D02*
X55594286Y-88082380D01*
X55880000Y-88082380D02*
X55880000Y-87082380D01*
X55784762Y-87225238D01*
X55689524Y-87320476D01*
X55594286Y-87368095D01*
X106013333Y-74430000D02*
X105918095Y-74382380D01*
X105775238Y-74382380D01*
X105632380Y-74430000D01*
X105537142Y-74525238D01*
X105489523Y-74620476D01*
X105441904Y-74810952D01*
X105441904Y-74953809D01*
X105489523Y-75144285D01*
X105537142Y-75239523D01*
X105632380Y-75334761D01*
X105775238Y-75382380D01*
X105870476Y-75382380D01*
X106013333Y-75334761D01*
X106060952Y-75287142D01*
X106060952Y-74953809D01*
X105870476Y-74953809D01*
X106489523Y-75382380D02*
X106489523Y-74382380D01*
X106870476Y-74382380D01*
X106965714Y-74430000D01*
X107013333Y-74477619D01*
X107060952Y-74572857D01*
X107060952Y-74715714D01*
X107013333Y-74810952D01*
X106965714Y-74858571D01*
X106870476Y-74906190D01*
X106489523Y-74906190D01*
X107918095Y-74715714D02*
X107918095Y-75382380D01*
X107679999Y-74334761D02*
X107441904Y-75049047D01*
X108060952Y-75049047D01*
X55165714Y-85447142D02*
X55118095Y-85494761D01*
X54975238Y-85542380D01*
X54880000Y-85542380D01*
X54737143Y-85494761D01*
X54641905Y-85399523D01*
X54594286Y-85304285D01*
X54546667Y-85113809D01*
X54546667Y-84970952D01*
X54594286Y-84780476D01*
X54641905Y-84685238D01*
X54737143Y-84590000D01*
X54880000Y-84542380D01*
X54975238Y-84542380D01*
X55118095Y-84590000D01*
X55165714Y-84637619D01*
X56118095Y-85542380D02*
X55546667Y-85542380D01*
X55832381Y-85542380D02*
X55832381Y-84542380D01*
X55737143Y-84685238D01*
X55641905Y-84780476D01*
X55546667Y-84828095D01*
X57022857Y-84542380D02*
X56546667Y-84542380D01*
X56499048Y-85018571D01*
X56546667Y-84970952D01*
X56641905Y-84923333D01*
X56880000Y-84923333D01*
X56975238Y-84970952D01*
X57022857Y-85018571D01*
X57070476Y-85113809D01*
X57070476Y-85351904D01*
X57022857Y-85447142D01*
X56975238Y-85494761D01*
X56880000Y-85542380D01*
X56641905Y-85542380D01*
X56546667Y-85494761D01*
X56499048Y-85447142D01*
X105060952Y-92210000D02*
X104965714Y-92162380D01*
X104822857Y-92162380D01*
X104680000Y-92210000D01*
X104584762Y-92305238D01*
X104537143Y-92400476D01*
X104489524Y-92590952D01*
X104489524Y-92733809D01*
X104537143Y-92924285D01*
X104584762Y-93019523D01*
X104680000Y-93114761D01*
X104822857Y-93162380D01*
X104918095Y-93162380D01*
X105060952Y-93114761D01*
X105108571Y-93067142D01*
X105108571Y-92733809D01*
X104918095Y-92733809D01*
X105537143Y-93162380D02*
X105537143Y-92162380D01*
X105918095Y-92162380D01*
X106013333Y-92210000D01*
X106060952Y-92257619D01*
X106108571Y-92352857D01*
X106108571Y-92495714D01*
X106060952Y-92590952D01*
X106013333Y-92638571D01*
X105918095Y-92686190D01*
X105537143Y-92686190D01*
X107060952Y-93162380D02*
X106489524Y-93162380D01*
X106775238Y-93162380D02*
X106775238Y-92162380D01*
X106680000Y-92305238D01*
X106584762Y-92400476D01*
X106489524Y-92448095D01*
X108013333Y-93162380D02*
X107441905Y-93162380D01*
X107727619Y-93162380D02*
X107727619Y-92162380D01*
X107632381Y-92305238D01*
X107537143Y-92400476D01*
X107441905Y-92448095D01*
X105918095Y-112530000D02*
X105822857Y-112482380D01*
X105680000Y-112482380D01*
X105537142Y-112530000D01*
X105441904Y-112625238D01*
X105394285Y-112720476D01*
X105346666Y-112910952D01*
X105346666Y-113053809D01*
X105394285Y-113244285D01*
X105441904Y-113339523D01*
X105537142Y-113434761D01*
X105680000Y-113482380D01*
X105775238Y-113482380D01*
X105918095Y-113434761D01*
X105965714Y-113387142D01*
X105965714Y-113053809D01*
X105775238Y-113053809D01*
X106394285Y-113482380D02*
X106394285Y-112482380D01*
X106965714Y-113482380D01*
X106965714Y-112482380D01*
X107441904Y-113482380D02*
X107441904Y-112482380D01*
X107680000Y-112482380D01*
X107822857Y-112530000D01*
X107918095Y-112625238D01*
X107965714Y-112720476D01*
X108013333Y-112910952D01*
X108013333Y-113053809D01*
X107965714Y-113244285D01*
X107918095Y-113339523D01*
X107822857Y-113434761D01*
X107680000Y-113482380D01*
X107441904Y-113482380D01*
X54499047Y-64222380D02*
X55165714Y-65222380D01*
X55165714Y-64222380D02*
X54499047Y-65222380D01*
X55070476Y-105862380D02*
X54594285Y-105862380D01*
X54594285Y-104862380D01*
X55927619Y-105862380D02*
X55356190Y-105862380D01*
X55641904Y-105862380D02*
X55641904Y-104862380D01*
X55546666Y-105005238D01*
X55451428Y-105100476D01*
X55356190Y-105148095D01*
X106013333Y-71890000D02*
X105918095Y-71842380D01*
X105775238Y-71842380D01*
X105632380Y-71890000D01*
X105537142Y-71985238D01*
X105489523Y-72080476D01*
X105441904Y-72270952D01*
X105441904Y-72413809D01*
X105489523Y-72604285D01*
X105537142Y-72699523D01*
X105632380Y-72794761D01*
X105775238Y-72842380D01*
X105870476Y-72842380D01*
X106013333Y-72794761D01*
X106060952Y-72747142D01*
X106060952Y-72413809D01*
X105870476Y-72413809D01*
X106489523Y-72842380D02*
X106489523Y-71842380D01*
X106870476Y-71842380D01*
X106965714Y-71890000D01*
X107013333Y-71937619D01*
X107060952Y-72032857D01*
X107060952Y-72175714D01*
X107013333Y-72270952D01*
X106965714Y-72318571D01*
X106870476Y-72366190D01*
X106489523Y-72366190D01*
X107394285Y-71842380D02*
X108013333Y-71842380D01*
X107679999Y-72223333D01*
X107822857Y-72223333D01*
X107918095Y-72270952D01*
X107965714Y-72318571D01*
X108013333Y-72413809D01*
X108013333Y-72651904D01*
X107965714Y-72747142D01*
X107918095Y-72794761D01*
X107822857Y-72842380D01*
X107537142Y-72842380D01*
X107441904Y-72794761D01*
X107394285Y-72747142D01*
X106013333Y-82050000D02*
X105918095Y-82002380D01*
X105775238Y-82002380D01*
X105632380Y-82050000D01*
X105537142Y-82145238D01*
X105489523Y-82240476D01*
X105441904Y-82430952D01*
X105441904Y-82573809D01*
X105489523Y-82764285D01*
X105537142Y-82859523D01*
X105632380Y-82954761D01*
X105775238Y-83002380D01*
X105870476Y-83002380D01*
X106013333Y-82954761D01*
X106060952Y-82907142D01*
X106060952Y-82573809D01*
X105870476Y-82573809D01*
X106489523Y-83002380D02*
X106489523Y-82002380D01*
X106870476Y-82002380D01*
X106965714Y-82050000D01*
X107013333Y-82097619D01*
X107060952Y-82192857D01*
X107060952Y-82335714D01*
X107013333Y-82430952D01*
X106965714Y-82478571D01*
X106870476Y-82526190D01*
X106489523Y-82526190D01*
X107394285Y-82002380D02*
X108060952Y-82002380D01*
X107632380Y-83002380D01*
X106013333Y-87130000D02*
X105918095Y-87082380D01*
X105775238Y-87082380D01*
X105632380Y-87130000D01*
X105537142Y-87225238D01*
X105489523Y-87320476D01*
X105441904Y-87510952D01*
X105441904Y-87653809D01*
X105489523Y-87844285D01*
X105537142Y-87939523D01*
X105632380Y-88034761D01*
X105775238Y-88082380D01*
X105870476Y-88082380D01*
X106013333Y-88034761D01*
X106060952Y-87987142D01*
X106060952Y-87653809D01*
X105870476Y-87653809D01*
X106489523Y-88082380D02*
X106489523Y-87082380D01*
X106870476Y-87082380D01*
X106965714Y-87130000D01*
X107013333Y-87177619D01*
X107060952Y-87272857D01*
X107060952Y-87415714D01*
X107013333Y-87510952D01*
X106965714Y-87558571D01*
X106870476Y-87606190D01*
X106489523Y-87606190D01*
X107537142Y-88082380D02*
X107727619Y-88082380D01*
X107822857Y-88034761D01*
X107870476Y-87987142D01*
X107965714Y-87844285D01*
X108013333Y-87653809D01*
X108013333Y-87272857D01*
X107965714Y-87177619D01*
X107918095Y-87130000D01*
X107822857Y-87082380D01*
X107632380Y-87082380D01*
X107537142Y-87130000D01*
X107489523Y-87177619D01*
X107441904Y-87272857D01*
X107441904Y-87510952D01*
X107489523Y-87606190D01*
X107537142Y-87653809D01*
X107632380Y-87701428D01*
X107822857Y-87701428D01*
X107918095Y-87653809D01*
X107965714Y-87606190D01*
X108013333Y-87510952D01*
X54546666Y-90336666D02*
X55022857Y-90336666D01*
X54451428Y-90622380D02*
X54784762Y-89622380D01*
X55118095Y-90622380D01*
X55975238Y-90622380D02*
X55403809Y-90622380D01*
X55689523Y-90622380D02*
X55689523Y-89622380D01*
X55594285Y-89765238D01*
X55499047Y-89860476D01*
X55403809Y-89908095D01*
X56880000Y-89622380D02*
X56403809Y-89622380D01*
X56356190Y-90098571D01*
X56403809Y-90050952D01*
X56499047Y-90003333D01*
X56737143Y-90003333D01*
X56832381Y-90050952D01*
X56880000Y-90098571D01*
X56927619Y-90193809D01*
X56927619Y-90431904D01*
X56880000Y-90527142D01*
X56832381Y-90574761D01*
X56737143Y-90622380D01*
X56499047Y-90622380D01*
X56403809Y-90574761D01*
X56356190Y-90527142D01*
X54499047Y-69302380D02*
X55165714Y-69302380D01*
X54499047Y-70302380D01*
X55165714Y-70302380D01*
M02*
