%TF.GenerationSoftware,KiCad,Pcbnew,(6.0.5)*%
%TF.CreationDate,2022-09-08T00:46:35+10:00*%
%TF.ProjectId,shield_holes,73686965-6c64-45f6-986f-6c65732e6b69,rev?*%
%TF.SameCoordinates,Original*%
%TF.FileFunction,Copper,L1,Top*%
%TF.FilePolarity,Positive*%
%FSLAX46Y46*%
G04 Gerber Fmt 4.6, Leading zero omitted, Abs format (unit mm)*
G04 Created by KiCad (PCBNEW (6.0.5)) date 2022-09-08 00:46:35*
%MOMM*%
%LPD*%
G01*
G04 APERTURE LIST*
%TA.AperFunction,ComponentPad*%
%ADD10C,1.700000*%
%TD*%
%TA.AperFunction,ComponentPad*%
%ADD11O,1.700000X1.700000*%
%TD*%
G04 APERTURE END LIST*
D10*
%TO.P,J1,1,Pin_1*%
%TO.N,N/C*%
X88900000Y-113025000D03*
D11*
%TO.P,J1,2,Pin_2*%
X88900000Y-110485000D03*
%TO.P,J1,3,Pin_3*%
X88900000Y-107945000D03*
%TO.P,J1,4,Pin_4*%
X88900000Y-105405000D03*
%TO.P,J1,5,Pin_5*%
X88900000Y-102865000D03*
%TO.P,J1,6,Pin_6*%
X88900000Y-100325000D03*
%TO.P,J1,7,Pin_7*%
X88900000Y-97785000D03*
%TO.P,J1,8,Pin_8*%
X88900000Y-95245000D03*
%TO.P,J1,9,Pin_9*%
X88900000Y-92705000D03*
%TO.P,J1,10,Pin_10*%
X88900000Y-90165000D03*
%TO.P,J1,11,Pin_11*%
X88900000Y-87625000D03*
%TO.P,J1,12,Pin_12*%
X88900000Y-85085000D03*
%TO.P,J1,13,Pin_13*%
X88900000Y-82545000D03*
%TO.P,J1,14,Pin_14*%
X88900000Y-80005000D03*
%TO.P,J1,15,Pin_15*%
X88900000Y-77465000D03*
%TO.P,J1,16,Pin_16*%
X88900000Y-74925000D03*
%TO.P,J1,17,Pin_17*%
X88900000Y-72385000D03*
%TO.P,J1,18,Pin_18*%
X88900000Y-69845000D03*
%TO.P,J1,19,Pin_19*%
X88900000Y-67305000D03*
%TO.P,J1,20,Pin_20*%
X88900000Y-64765000D03*
%TD*%
D10*
%TO.P,J1,1,Pin_1*%
%TO.N,N/C*%
X73660000Y-113025000D03*
D11*
%TO.P,J1,2,Pin_2*%
X73660000Y-110485000D03*
%TO.P,J1,3,Pin_3*%
X73660000Y-107945000D03*
%TO.P,J1,4,Pin_4*%
X73660000Y-105405000D03*
%TO.P,J1,5,Pin_5*%
X73660000Y-102865000D03*
%TO.P,J1,6,Pin_6*%
X73660000Y-100325000D03*
%TO.P,J1,7,Pin_7*%
X73660000Y-97785000D03*
%TO.P,J1,8,Pin_8*%
X73660000Y-95245000D03*
%TO.P,J1,9,Pin_9*%
X73660000Y-92705000D03*
%TO.P,J1,10,Pin_10*%
X73660000Y-90165000D03*
%TO.P,J1,11,Pin_11*%
X73660000Y-87625000D03*
%TO.P,J1,12,Pin_12*%
X73660000Y-85085000D03*
%TO.P,J1,13,Pin_13*%
X73660000Y-82545000D03*
%TO.P,J1,14,Pin_14*%
X73660000Y-80005000D03*
%TO.P,J1,15,Pin_15*%
X73660000Y-77465000D03*
%TO.P,J1,16,Pin_16*%
X73660000Y-74925000D03*
%TO.P,J1,17,Pin_17*%
X73660000Y-72385000D03*
%TO.P,J1,18,Pin_18*%
X73660000Y-69845000D03*
%TO.P,J1,19,Pin_19*%
X73660000Y-67305000D03*
%TO.P,J1,20,Pin_20*%
X73660000Y-64765000D03*
%TD*%
D10*
%TO.P,J1,1,Pin_1*%
%TO.N,N/C*%
X93980000Y-113025000D03*
D11*
%TO.P,J1,2,Pin_2*%
X93980000Y-110485000D03*
%TO.P,J1,3,Pin_3*%
X93980000Y-107945000D03*
%TO.P,J1,4,Pin_4*%
X93980000Y-105405000D03*
%TO.P,J1,5,Pin_5*%
X93980000Y-102865000D03*
%TO.P,J1,6,Pin_6*%
X93980000Y-100325000D03*
%TO.P,J1,7,Pin_7*%
X93980000Y-97785000D03*
%TO.P,J1,8,Pin_8*%
X93980000Y-95245000D03*
%TO.P,J1,9,Pin_9*%
X93980000Y-92705000D03*
%TO.P,J1,10,Pin_10*%
X93980000Y-90165000D03*
%TO.P,J1,11,Pin_11*%
X93980000Y-87625000D03*
%TO.P,J1,12,Pin_12*%
X93980000Y-85085000D03*
%TO.P,J1,13,Pin_13*%
X93980000Y-82545000D03*
%TO.P,J1,14,Pin_14*%
X93980000Y-80005000D03*
%TO.P,J1,15,Pin_15*%
X93980000Y-77465000D03*
%TO.P,J1,16,Pin_16*%
X93980000Y-74925000D03*
%TO.P,J1,17,Pin_17*%
X93980000Y-72385000D03*
%TO.P,J1,18,Pin_18*%
X93980000Y-69845000D03*
%TO.P,J1,19,Pin_19*%
X93980000Y-67305000D03*
%TO.P,J1,20,Pin_20*%
X93980000Y-64765000D03*
%TD*%
D10*
%TO.P,J1,1,Pin_1*%
%TO.N,N/C*%
X91440000Y-113025000D03*
D11*
%TO.P,J1,2,Pin_2*%
X91440000Y-110485000D03*
%TO.P,J1,3,Pin_3*%
X91440000Y-107945000D03*
%TO.P,J1,4,Pin_4*%
X91440000Y-105405000D03*
%TO.P,J1,5,Pin_5*%
X91440000Y-102865000D03*
%TO.P,J1,6,Pin_6*%
X91440000Y-100325000D03*
%TO.P,J1,7,Pin_7*%
X91440000Y-97785000D03*
%TO.P,J1,8,Pin_8*%
X91440000Y-95245000D03*
%TO.P,J1,9,Pin_9*%
X91440000Y-92705000D03*
%TO.P,J1,10,Pin_10*%
X91440000Y-90165000D03*
%TO.P,J1,11,Pin_11*%
X91440000Y-87625000D03*
%TO.P,J1,12,Pin_12*%
X91440000Y-85085000D03*
%TO.P,J1,13,Pin_13*%
X91440000Y-82545000D03*
%TO.P,J1,14,Pin_14*%
X91440000Y-80005000D03*
%TO.P,J1,15,Pin_15*%
X91440000Y-77465000D03*
%TO.P,J1,16,Pin_16*%
X91440000Y-74925000D03*
%TO.P,J1,17,Pin_17*%
X91440000Y-72385000D03*
%TO.P,J1,18,Pin_18*%
X91440000Y-69845000D03*
%TO.P,J1,19,Pin_19*%
X91440000Y-67305000D03*
%TO.P,J1,20,Pin_20*%
X91440000Y-64765000D03*
%TD*%
D10*
%TO.P,J1,1,Pin_1*%
%TO.N,N/C*%
X99060000Y-113025000D03*
D11*
%TO.P,J1,2,Pin_2*%
X99060000Y-110485000D03*
%TO.P,J1,3,Pin_3*%
X99060000Y-107945000D03*
%TO.P,J1,4,Pin_4*%
X99060000Y-105405000D03*
%TO.P,J1,5,Pin_5*%
X99060000Y-102865000D03*
%TO.P,J1,6,Pin_6*%
X99060000Y-100325000D03*
%TO.P,J1,7,Pin_7*%
X99060000Y-97785000D03*
%TO.P,J1,8,Pin_8*%
X99060000Y-95245000D03*
%TO.P,J1,9,Pin_9*%
X99060000Y-92705000D03*
%TO.P,J1,10,Pin_10*%
X99060000Y-90165000D03*
%TO.P,J1,11,Pin_11*%
X99060000Y-87625000D03*
%TO.P,J1,12,Pin_12*%
X99060000Y-85085000D03*
%TO.P,J1,13,Pin_13*%
X99060000Y-82545000D03*
%TO.P,J1,14,Pin_14*%
X99060000Y-80005000D03*
%TO.P,J1,15,Pin_15*%
X99060000Y-77465000D03*
%TO.P,J1,16,Pin_16*%
X99060000Y-74925000D03*
%TO.P,J1,17,Pin_17*%
X99060000Y-72385000D03*
%TO.P,J1,18,Pin_18*%
X99060000Y-69845000D03*
%TO.P,J1,19,Pin_19*%
X99060000Y-67305000D03*
%TO.P,J1,20,Pin_20*%
X99060000Y-64765000D03*
%TD*%
D10*
%TO.P,J1,1,Pin_1*%
%TO.N,N/C*%
X78740000Y-113025000D03*
D11*
%TO.P,J1,2,Pin_2*%
X78740000Y-110485000D03*
%TO.P,J1,3,Pin_3*%
X78740000Y-107945000D03*
%TO.P,J1,4,Pin_4*%
X78740000Y-105405000D03*
%TO.P,J1,5,Pin_5*%
X78740000Y-102865000D03*
%TO.P,J1,6,Pin_6*%
X78740000Y-100325000D03*
%TO.P,J1,7,Pin_7*%
X78740000Y-97785000D03*
%TO.P,J1,8,Pin_8*%
X78740000Y-95245000D03*
%TO.P,J1,9,Pin_9*%
X78740000Y-92705000D03*
%TO.P,J1,10,Pin_10*%
X78740000Y-90165000D03*
%TO.P,J1,11,Pin_11*%
X78740000Y-87625000D03*
%TO.P,J1,12,Pin_12*%
X78740000Y-85085000D03*
%TO.P,J1,13,Pin_13*%
X78740000Y-82545000D03*
%TO.P,J1,14,Pin_14*%
X78740000Y-80005000D03*
%TO.P,J1,15,Pin_15*%
X78740000Y-77465000D03*
%TO.P,J1,16,Pin_16*%
X78740000Y-74925000D03*
%TO.P,J1,17,Pin_17*%
X78740000Y-72385000D03*
%TO.P,J1,18,Pin_18*%
X78740000Y-69845000D03*
%TO.P,J1,19,Pin_19*%
X78740000Y-67305000D03*
%TO.P,J1,20,Pin_20*%
X78740000Y-64765000D03*
%TD*%
D10*
%TO.P,J1,1,Pin_1*%
%TO.N,N/C*%
X76200000Y-113025000D03*
D11*
%TO.P,J1,2,Pin_2*%
X76200000Y-110485000D03*
%TO.P,J1,3,Pin_3*%
X76200000Y-107945000D03*
%TO.P,J1,4,Pin_4*%
X76200000Y-105405000D03*
%TO.P,J1,5,Pin_5*%
X76200000Y-102865000D03*
%TO.P,J1,6,Pin_6*%
X76200000Y-100325000D03*
%TO.P,J1,7,Pin_7*%
X76200000Y-97785000D03*
%TO.P,J1,8,Pin_8*%
X76200000Y-95245000D03*
%TO.P,J1,9,Pin_9*%
X76200000Y-92705000D03*
%TO.P,J1,10,Pin_10*%
X76200000Y-90165000D03*
%TO.P,J1,11,Pin_11*%
X76200000Y-87625000D03*
%TO.P,J1,12,Pin_12*%
X76200000Y-85085000D03*
%TO.P,J1,13,Pin_13*%
X76200000Y-82545000D03*
%TO.P,J1,14,Pin_14*%
X76200000Y-80005000D03*
%TO.P,J1,15,Pin_15*%
X76200000Y-77465000D03*
%TO.P,J1,16,Pin_16*%
X76200000Y-74925000D03*
%TO.P,J1,17,Pin_17*%
X76200000Y-72385000D03*
%TO.P,J1,18,Pin_18*%
X76200000Y-69845000D03*
%TO.P,J1,19,Pin_19*%
X76200000Y-67305000D03*
%TO.P,J1,20,Pin_20*%
X76200000Y-64765000D03*
%TD*%
D10*
%TO.P,J1,1,Pin_1*%
%TO.N,GND*%
X50800000Y-113030000D03*
D11*
%TO.P,J1,2,Pin_2*%
%TO.N,3.3V*%
X50800000Y-110490000D03*
%TO.P,J1,3,Pin_3*%
%TO.N,unconnected-(J1-Pad3)*%
X50800000Y-107950000D03*
%TO.P,J1,4,Pin_4*%
%TO.N,unconnected-(J1-Pad4)*%
X50800000Y-105410000D03*
%TO.P,J1,5,Pin_5*%
%TO.N,unconnected-(J1-Pad5)*%
X50800000Y-102870000D03*
%TO.P,J1,6,Pin_6*%
%TO.N,unconnected-(J1-Pad6)*%
X50800000Y-100330000D03*
%TO.P,J1,7,Pin_7*%
%TO.N,unconnected-(J1-Pad7)*%
X50800000Y-97790000D03*
%TO.P,J1,8,Pin_8*%
%TO.N,unconnected-(J1-Pad8)*%
X50800000Y-95250000D03*
%TO.P,J1,9,Pin_9*%
%TO.N,unconnected-(J1-Pad9)*%
X50800000Y-92710000D03*
%TO.P,J1,10,Pin_10*%
%TO.N,unconnected-(J1-Pad10)*%
X50800000Y-90170000D03*
%TO.P,J1,11,Pin_11*%
%TO.N,unconnected-(J1-Pad11)*%
X50800000Y-87630000D03*
%TO.P,J1,12,Pin_12*%
%TO.N,unconnected-(J1-Pad12)*%
X50800000Y-85090000D03*
%TO.P,J1,13,Pin_13*%
%TO.N,unconnected-(J1-Pad13)*%
X50800000Y-82550000D03*
%TO.P,J1,14,Pin_14*%
%TO.N,unconnected-(J1-Pad14)*%
X50800000Y-80010000D03*
%TO.P,J1,15,Pin_15*%
%TO.N,unconnected-(J1-Pad15)*%
X50800000Y-77470000D03*
%TO.P,J1,16,Pin_16*%
%TO.N,unconnected-(J1-Pad16)*%
X50800000Y-74930000D03*
%TO.P,J1,17,Pin_17*%
%TO.N,unconnected-(J1-Pad17)*%
X50800000Y-72390000D03*
%TO.P,J1,18,Pin_18*%
%TO.N,unconnected-(J1-Pad18)*%
X50800000Y-69850000D03*
%TO.P,J1,19,Pin_19*%
%TO.N,unconnected-(J1-Pad19)*%
X50800000Y-67310000D03*
%TO.P,J1,20,Pin_20*%
%TO.N,unconnected-(J1-Pad20)*%
X50800000Y-64770000D03*
%TD*%
D10*
%TO.P,J1,1,Pin_1*%
%TO.N,N/C*%
X81280000Y-113025000D03*
D11*
%TO.P,J1,2,Pin_2*%
X81280000Y-110485000D03*
%TO.P,J1,3,Pin_3*%
X81280000Y-107945000D03*
%TO.P,J1,4,Pin_4*%
X81280000Y-105405000D03*
%TO.P,J1,5,Pin_5*%
X81280000Y-102865000D03*
%TO.P,J1,6,Pin_6*%
X81280000Y-100325000D03*
%TO.P,J1,7,Pin_7*%
X81280000Y-97785000D03*
%TO.P,J1,8,Pin_8*%
X81280000Y-95245000D03*
%TO.P,J1,9,Pin_9*%
X81280000Y-92705000D03*
%TO.P,J1,10,Pin_10*%
X81280000Y-90165000D03*
%TO.P,J1,11,Pin_11*%
X81280000Y-87625000D03*
%TO.P,J1,12,Pin_12*%
X81280000Y-85085000D03*
%TO.P,J1,13,Pin_13*%
X81280000Y-82545000D03*
%TO.P,J1,14,Pin_14*%
X81280000Y-80005000D03*
%TO.P,J1,15,Pin_15*%
X81280000Y-77465000D03*
%TO.P,J1,16,Pin_16*%
X81280000Y-74925000D03*
%TO.P,J1,17,Pin_17*%
X81280000Y-72385000D03*
%TO.P,J1,18,Pin_18*%
X81280000Y-69845000D03*
%TO.P,J1,19,Pin_19*%
X81280000Y-67305000D03*
%TO.P,J1,20,Pin_20*%
X81280000Y-64765000D03*
%TD*%
D10*
%TO.P,J1,1,Pin_1*%
%TO.N,N/C*%
X63500000Y-113025000D03*
D11*
%TO.P,J1,2,Pin_2*%
X63500000Y-110485000D03*
%TO.P,J1,3,Pin_3*%
X63500000Y-107945000D03*
%TO.P,J1,4,Pin_4*%
X63500000Y-105405000D03*
%TO.P,J1,5,Pin_5*%
X63500000Y-102865000D03*
%TO.P,J1,6,Pin_6*%
X63500000Y-100325000D03*
%TO.P,J1,7,Pin_7*%
X63500000Y-97785000D03*
%TO.P,J1,8,Pin_8*%
X63500000Y-95245000D03*
%TO.P,J1,9,Pin_9*%
X63500000Y-92705000D03*
%TO.P,J1,10,Pin_10*%
X63500000Y-90165000D03*
%TO.P,J1,11,Pin_11*%
X63500000Y-87625000D03*
%TO.P,J1,12,Pin_12*%
X63500000Y-85085000D03*
%TO.P,J1,13,Pin_13*%
X63500000Y-82545000D03*
%TO.P,J1,14,Pin_14*%
X63500000Y-80005000D03*
%TO.P,J1,15,Pin_15*%
X63500000Y-77465000D03*
%TO.P,J1,16,Pin_16*%
X63500000Y-74925000D03*
%TO.P,J1,17,Pin_17*%
X63500000Y-72385000D03*
%TO.P,J1,18,Pin_18*%
X63500000Y-69845000D03*
%TO.P,J1,19,Pin_19*%
X63500000Y-67305000D03*
%TO.P,J1,20,Pin_20*%
X63500000Y-64765000D03*
%TD*%
D10*
%TO.P,J2,1,Pin_1*%
%TO.N,GND*%
X111760003Y-113030000D03*
D11*
%TO.P,J2,2,Pin_2*%
%TO.N,5V*%
X111760000Y-110490000D03*
%TO.P,J2,3,Pin_3*%
%TO.N,unconnected-(J2-Pad3)*%
X111760000Y-107950000D03*
%TO.P,J2,4,Pin_4*%
%TO.N,unconnected-(J2-Pad4)*%
X111760000Y-105410000D03*
%TO.P,J2,5,Pin_5*%
%TO.N,unconnected-(J2-Pad5)*%
X111760000Y-102870000D03*
%TO.P,J2,6,Pin_6*%
%TO.N,unconnected-(J2-Pad6)*%
X111760000Y-100330000D03*
%TO.P,J2,7,Pin_7*%
%TO.N,unconnected-(J2-Pad7)*%
X111760000Y-97790000D03*
%TO.P,J2,8,Pin_8*%
%TO.N,unconnected-(J2-Pad8)*%
X111760000Y-95250000D03*
%TO.P,J2,9,Pin_9*%
%TO.N,unconnected-(J2-Pad9)*%
X111760000Y-92710000D03*
%TO.P,J2,10,Pin_10*%
%TO.N,unconnected-(J2-Pad10)*%
X111760000Y-90170000D03*
%TO.P,J2,11,Pin_11*%
%TO.N,unconnected-(J2-Pad11)*%
X111760000Y-87630000D03*
%TO.P,J2,12,Pin_12*%
%TO.N,unconnected-(J2-Pad12)*%
X111760000Y-85090000D03*
%TO.P,J2,13,Pin_13*%
%TO.N,unconnected-(J2-Pad13)*%
X111760000Y-82550000D03*
%TO.P,J2,14,Pin_14*%
%TO.N,unconnected-(J2-Pad14)*%
X111760000Y-80010000D03*
%TO.P,J2,15,Pin_15*%
%TO.N,unconnected-(J2-Pad15)*%
X111760000Y-77470000D03*
%TO.P,J2,16,Pin_16*%
%TO.N,unconnected-(J2-Pad16)*%
X111760000Y-74930000D03*
%TO.P,J2,17,Pin_17*%
%TO.N,unconnected-(J2-Pad17)*%
X111760000Y-72390000D03*
%TO.P,J2,18,Pin_18*%
%TO.N,unconnected-(J2-Pad18)*%
X111760000Y-69850000D03*
%TO.P,J2,19,Pin_19*%
%TO.N,Net-(J2-Pad19)*%
X111760000Y-67310000D03*
%TO.P,J2,20,Pin_20*%
%TO.N,unconnected-(J2-Pad20)*%
X111760000Y-64770000D03*
%TD*%
D10*
%TO.P,J1,1,Pin_1*%
%TO.N,N/C*%
X86360000Y-113025000D03*
D11*
%TO.P,J1,2,Pin_2*%
X86360000Y-110485000D03*
%TO.P,J1,3,Pin_3*%
X86360000Y-107945000D03*
%TO.P,J1,4,Pin_4*%
X86360000Y-105405000D03*
%TO.P,J1,5,Pin_5*%
X86360000Y-102865000D03*
%TO.P,J1,6,Pin_6*%
X86360000Y-100325000D03*
%TO.P,J1,7,Pin_7*%
X86360000Y-97785000D03*
%TO.P,J1,8,Pin_8*%
X86360000Y-95245000D03*
%TO.P,J1,9,Pin_9*%
X86360000Y-92705000D03*
%TO.P,J1,10,Pin_10*%
X86360000Y-90165000D03*
%TO.P,J1,11,Pin_11*%
X86360000Y-87625000D03*
%TO.P,J1,12,Pin_12*%
X86360000Y-85085000D03*
%TO.P,J1,13,Pin_13*%
X86360000Y-82545000D03*
%TO.P,J1,14,Pin_14*%
X86360000Y-80005000D03*
%TO.P,J1,15,Pin_15*%
X86360000Y-77465000D03*
%TO.P,J1,16,Pin_16*%
X86360000Y-74925000D03*
%TO.P,J1,17,Pin_17*%
X86360000Y-72385000D03*
%TO.P,J1,18,Pin_18*%
X86360000Y-69845000D03*
%TO.P,J1,19,Pin_19*%
X86360000Y-67305000D03*
%TO.P,J1,20,Pin_20*%
X86360000Y-64765000D03*
%TD*%
D10*
%TO.P,J1,1,Pin_1*%
%TO.N,N/C*%
X96520000Y-113025000D03*
D11*
%TO.P,J1,2,Pin_2*%
X96520000Y-110485000D03*
%TO.P,J1,3,Pin_3*%
X96520000Y-107945000D03*
%TO.P,J1,4,Pin_4*%
X96520000Y-105405000D03*
%TO.P,J1,5,Pin_5*%
X96520000Y-102865000D03*
%TO.P,J1,6,Pin_6*%
X96520000Y-100325000D03*
%TO.P,J1,7,Pin_7*%
X96520000Y-97785000D03*
%TO.P,J1,8,Pin_8*%
X96520000Y-95245000D03*
%TO.P,J1,9,Pin_9*%
X96520000Y-92705000D03*
%TO.P,J1,10,Pin_10*%
X96520000Y-90165000D03*
%TO.P,J1,11,Pin_11*%
X96520000Y-87625000D03*
%TO.P,J1,12,Pin_12*%
X96520000Y-85085000D03*
%TO.P,J1,13,Pin_13*%
X96520000Y-82545000D03*
%TO.P,J1,14,Pin_14*%
X96520000Y-80005000D03*
%TO.P,J1,15,Pin_15*%
X96520000Y-77465000D03*
%TO.P,J1,16,Pin_16*%
X96520000Y-74925000D03*
%TO.P,J1,17,Pin_17*%
X96520000Y-72385000D03*
%TO.P,J1,18,Pin_18*%
X96520000Y-69845000D03*
%TO.P,J1,19,Pin_19*%
X96520000Y-67305000D03*
%TO.P,J1,20,Pin_20*%
X96520000Y-64765000D03*
%TD*%
D10*
%TO.P,J1,1,Pin_1*%
%TO.N,N/C*%
X68580000Y-113025000D03*
D11*
%TO.P,J1,2,Pin_2*%
X68580000Y-110485000D03*
%TO.P,J1,3,Pin_3*%
X68580000Y-107945000D03*
%TO.P,J1,4,Pin_4*%
X68580000Y-105405000D03*
%TO.P,J1,5,Pin_5*%
X68580000Y-102865000D03*
%TO.P,J1,6,Pin_6*%
X68580000Y-100325000D03*
%TO.P,J1,7,Pin_7*%
X68580000Y-97785000D03*
%TO.P,J1,8,Pin_8*%
X68580000Y-95245000D03*
%TO.P,J1,9,Pin_9*%
X68580000Y-92705000D03*
%TO.P,J1,10,Pin_10*%
X68580000Y-90165000D03*
%TO.P,J1,11,Pin_11*%
X68580000Y-87625000D03*
%TO.P,J1,12,Pin_12*%
X68580000Y-85085000D03*
%TO.P,J1,13,Pin_13*%
X68580000Y-82545000D03*
%TO.P,J1,14,Pin_14*%
X68580000Y-80005000D03*
%TO.P,J1,15,Pin_15*%
X68580000Y-77465000D03*
%TO.P,J1,16,Pin_16*%
X68580000Y-74925000D03*
%TO.P,J1,17,Pin_17*%
X68580000Y-72385000D03*
%TO.P,J1,18,Pin_18*%
X68580000Y-69845000D03*
%TO.P,J1,19,Pin_19*%
X68580000Y-67305000D03*
%TO.P,J1,20,Pin_20*%
X68580000Y-64765000D03*
%TD*%
D10*
%TO.P,J1,1,Pin_1*%
%TO.N,N/C*%
X83820000Y-113025000D03*
D11*
%TO.P,J1,2,Pin_2*%
X83820000Y-110485000D03*
%TO.P,J1,3,Pin_3*%
X83820000Y-107945000D03*
%TO.P,J1,4,Pin_4*%
X83820000Y-105405000D03*
%TO.P,J1,5,Pin_5*%
X83820000Y-102865000D03*
%TO.P,J1,6,Pin_6*%
X83820000Y-100325000D03*
%TO.P,J1,7,Pin_7*%
X83820000Y-97785000D03*
%TO.P,J1,8,Pin_8*%
X83820000Y-95245000D03*
%TO.P,J1,9,Pin_9*%
X83820000Y-92705000D03*
%TO.P,J1,10,Pin_10*%
X83820000Y-90165000D03*
%TO.P,J1,11,Pin_11*%
X83820000Y-87625000D03*
%TO.P,J1,12,Pin_12*%
X83820000Y-85085000D03*
%TO.P,J1,13,Pin_13*%
X83820000Y-82545000D03*
%TO.P,J1,14,Pin_14*%
X83820000Y-80005000D03*
%TO.P,J1,15,Pin_15*%
X83820000Y-77465000D03*
%TO.P,J1,16,Pin_16*%
X83820000Y-74925000D03*
%TO.P,J1,17,Pin_17*%
X83820000Y-72385000D03*
%TO.P,J1,18,Pin_18*%
X83820000Y-69845000D03*
%TO.P,J1,19,Pin_19*%
X83820000Y-67305000D03*
%TO.P,J1,20,Pin_20*%
X83820000Y-64765000D03*
%TD*%
D10*
%TO.P,J1,1,Pin_1*%
%TO.N,N/C*%
X71120000Y-113025000D03*
D11*
%TO.P,J1,2,Pin_2*%
X71120000Y-110485000D03*
%TO.P,J1,3,Pin_3*%
X71120000Y-107945000D03*
%TO.P,J1,4,Pin_4*%
X71120000Y-105405000D03*
%TO.P,J1,5,Pin_5*%
X71120000Y-102865000D03*
%TO.P,J1,6,Pin_6*%
X71120000Y-100325000D03*
%TO.P,J1,7,Pin_7*%
X71120000Y-97785000D03*
%TO.P,J1,8,Pin_8*%
X71120000Y-95245000D03*
%TO.P,J1,9,Pin_9*%
X71120000Y-92705000D03*
%TO.P,J1,10,Pin_10*%
X71120000Y-90165000D03*
%TO.P,J1,11,Pin_11*%
X71120000Y-87625000D03*
%TO.P,J1,12,Pin_12*%
X71120000Y-85085000D03*
%TO.P,J1,13,Pin_13*%
X71120000Y-82545000D03*
%TO.P,J1,14,Pin_14*%
X71120000Y-80005000D03*
%TO.P,J1,15,Pin_15*%
X71120000Y-77465000D03*
%TO.P,J1,16,Pin_16*%
X71120000Y-74925000D03*
%TO.P,J1,17,Pin_17*%
X71120000Y-72385000D03*
%TO.P,J1,18,Pin_18*%
X71120000Y-69845000D03*
%TO.P,J1,19,Pin_19*%
X71120000Y-67305000D03*
%TO.P,J1,20,Pin_20*%
X71120000Y-64765000D03*
%TD*%
D10*
%TO.P,J1,1,Pin_1*%
%TO.N,N/C*%
X66040000Y-113025000D03*
D11*
%TO.P,J1,2,Pin_2*%
X66040000Y-110485000D03*
%TO.P,J1,3,Pin_3*%
X66040000Y-107945000D03*
%TO.P,J1,4,Pin_4*%
X66040000Y-105405000D03*
%TO.P,J1,5,Pin_5*%
X66040000Y-102865000D03*
%TO.P,J1,6,Pin_6*%
X66040000Y-100325000D03*
%TO.P,J1,7,Pin_7*%
X66040000Y-97785000D03*
%TO.P,J1,8,Pin_8*%
X66040000Y-95245000D03*
%TO.P,J1,9,Pin_9*%
X66040000Y-92705000D03*
%TO.P,J1,10,Pin_10*%
X66040000Y-90165000D03*
%TO.P,J1,11,Pin_11*%
X66040000Y-87625000D03*
%TO.P,J1,12,Pin_12*%
X66040000Y-85085000D03*
%TO.P,J1,13,Pin_13*%
X66040000Y-82545000D03*
%TO.P,J1,14,Pin_14*%
X66040000Y-80005000D03*
%TO.P,J1,15,Pin_15*%
X66040000Y-77465000D03*
%TO.P,J1,16,Pin_16*%
X66040000Y-74925000D03*
%TO.P,J1,17,Pin_17*%
X66040000Y-72385000D03*
%TO.P,J1,18,Pin_18*%
X66040000Y-69845000D03*
%TO.P,J1,19,Pin_19*%
X66040000Y-67305000D03*
%TO.P,J1,20,Pin_20*%
X66040000Y-64765000D03*
%TD*%
M02*
