M48
; DRILL file {KiCad (6.0.5)} date Thu Sep  8 00:46:33 2022
; FORMAT={-:-/ absolute / inch / decimal}
; #@! TF.CreationDate,2022-09-08T00:46:33+10:00
; #@! TF.GenerationSoftware,Kicad,Pcbnew,(6.0.5)
; #@! TF.FileFunction,Plated,1,2,PTH
FMAT,2
INCH
; #@! TA.AperFunction,Plated,PTH,ComponentDrill
T1C0.0394
%
G90
G05
T1
X2.0Y-2.55
X2.0Y-2.65
X2.0Y-2.75
X2.0Y-2.85
X2.0Y-2.95
X2.0Y-3.05
X2.0Y-3.15
X2.0Y-3.25
X2.0Y-3.35
X2.0Y-3.45
X2.0Y-3.55
X2.0Y-3.65
X2.0Y-3.75
X2.0Y-3.85
X2.0Y-3.95
X2.0Y-4.05
X2.0Y-4.15
X2.0Y-4.25
X2.0Y-4.35
X2.0Y-4.45
X2.5Y-2.5498
X2.5Y-2.6498
X2.5Y-2.7498
X2.5Y-2.8498
X2.5Y-2.9498
X2.5Y-3.0498
X2.5Y-3.1498
X2.5Y-3.2498
X2.5Y-3.3498
X2.5Y-3.4498
X2.5Y-3.5498
X2.5Y-3.6498
X2.5Y-3.7498
X2.5Y-3.8498
X2.5Y-3.9498
X2.5Y-4.0498
X2.5Y-4.1498
X2.5Y-4.2498
X2.5Y-4.3498
X2.5Y-4.4498
X2.6Y-2.5498
X2.6Y-2.6498
X2.6Y-2.7498
X2.6Y-2.8498
X2.6Y-2.9498
X2.6Y-3.0498
X2.6Y-3.1498
X2.6Y-3.2498
X2.6Y-3.3498
X2.6Y-3.4498
X2.6Y-3.5498
X2.6Y-3.6498
X2.6Y-3.7498
X2.6Y-3.8498
X2.6Y-3.9498
X2.6Y-4.0498
X2.6Y-4.1498
X2.6Y-4.2498
X2.6Y-4.3498
X2.6Y-4.4498
X2.7Y-2.5498
X2.7Y-2.6498
X2.7Y-2.7498
X2.7Y-2.8498
X2.7Y-2.9498
X2.7Y-3.0498
X2.7Y-3.1498
X2.7Y-3.2498
X2.7Y-3.3498
X2.7Y-3.4498
X2.7Y-3.5498
X2.7Y-3.6498
X2.7Y-3.7498
X2.7Y-3.8498
X2.7Y-3.9498
X2.7Y-4.0498
X2.7Y-4.1498
X2.7Y-4.2498
X2.7Y-4.3498
X2.7Y-4.4498
X2.8Y-2.5498
X2.8Y-2.6498
X2.8Y-2.7498
X2.8Y-2.8498
X2.8Y-2.9498
X2.8Y-3.0498
X2.8Y-3.1498
X2.8Y-3.2498
X2.8Y-3.3498
X2.8Y-3.4498
X2.8Y-3.5498
X2.8Y-3.6498
X2.8Y-3.7498
X2.8Y-3.8498
X2.8Y-3.9498
X2.8Y-4.0498
X2.8Y-4.1498
X2.8Y-4.2498
X2.8Y-4.3498
X2.8Y-4.4498
X2.9Y-2.5498
X2.9Y-2.6498
X2.9Y-2.7498
X2.9Y-2.8498
X2.9Y-2.9498
X2.9Y-3.0498
X2.9Y-3.1498
X2.9Y-3.2498
X2.9Y-3.3498
X2.9Y-3.4498
X2.9Y-3.5498
X2.9Y-3.6498
X2.9Y-3.7498
X2.9Y-3.8498
X2.9Y-3.9498
X2.9Y-4.0498
X2.9Y-4.1498
X2.9Y-4.2498
X2.9Y-4.3498
X2.9Y-4.4498
X3.0Y-2.5498
X3.0Y-2.6498
X3.0Y-2.7498
X3.0Y-2.8498
X3.0Y-2.9498
X3.0Y-3.0498
X3.0Y-3.1498
X3.0Y-3.2498
X3.0Y-3.3498
X3.0Y-3.4498
X3.0Y-3.5498
X3.0Y-3.6498
X3.0Y-3.7498
X3.0Y-3.8498
X3.0Y-3.9498
X3.0Y-4.0498
X3.0Y-4.1498
X3.0Y-4.2498
X3.0Y-4.3498
X3.0Y-4.4498
X3.1Y-2.5498
X3.1Y-2.6498
X3.1Y-2.7498
X3.1Y-2.8498
X3.1Y-2.9498
X3.1Y-3.0498
X3.1Y-3.1498
X3.1Y-3.2498
X3.1Y-3.3498
X3.1Y-3.4498
X3.1Y-3.5498
X3.1Y-3.6498
X3.1Y-3.7498
X3.1Y-3.8498
X3.1Y-3.9498
X3.1Y-4.0498
X3.1Y-4.1498
X3.1Y-4.2498
X3.1Y-4.3498
X3.1Y-4.4498
X3.2Y-2.5498
X3.2Y-2.6498
X3.2Y-2.7498
X3.2Y-2.8498
X3.2Y-2.9498
X3.2Y-3.0498
X3.2Y-3.1498
X3.2Y-3.2498
X3.2Y-3.3498
X3.2Y-3.4498
X3.2Y-3.5498
X3.2Y-3.6498
X3.2Y-3.7498
X3.2Y-3.8498
X3.2Y-3.9498
X3.2Y-4.0498
X3.2Y-4.1498
X3.2Y-4.2498
X3.2Y-4.3498
X3.2Y-4.4498
X3.3Y-2.5498
X3.3Y-2.6498
X3.3Y-2.7498
X3.3Y-2.8498
X3.3Y-2.9498
X3.3Y-3.0498
X3.3Y-3.1498
X3.3Y-3.2498
X3.3Y-3.3498
X3.3Y-3.4498
X3.3Y-3.5498
X3.3Y-3.6498
X3.3Y-3.7498
X3.3Y-3.8498
X3.3Y-3.9498
X3.3Y-4.0498
X3.3Y-4.1498
X3.3Y-4.2498
X3.3Y-4.3498
X3.3Y-4.4498
X3.4Y-2.5498
X3.4Y-2.6498
X3.4Y-2.7498
X3.4Y-2.8498
X3.4Y-2.9498
X3.4Y-3.0498
X3.4Y-3.1498
X3.4Y-3.2498
X3.4Y-3.3498
X3.4Y-3.4498
X3.4Y-3.5498
X3.4Y-3.6498
X3.4Y-3.7498
X3.4Y-3.8498
X3.4Y-3.9498
X3.4Y-4.0498
X3.4Y-4.1498
X3.4Y-4.2498
X3.4Y-4.3498
X3.4Y-4.4498
X3.5Y-2.5498
X3.5Y-2.6498
X3.5Y-2.7498
X3.5Y-2.8498
X3.5Y-2.9498
X3.5Y-3.0498
X3.5Y-3.1498
X3.5Y-3.2498
X3.5Y-3.3498
X3.5Y-3.4498
X3.5Y-3.5498
X3.5Y-3.6498
X3.5Y-3.7498
X3.5Y-3.8498
X3.5Y-3.9498
X3.5Y-4.0498
X3.5Y-4.1498
X3.5Y-4.2498
X3.5Y-4.3498
X3.5Y-4.4498
X3.6Y-2.5498
X3.6Y-2.6498
X3.6Y-2.7498
X3.6Y-2.8498
X3.6Y-2.9498
X3.6Y-3.0498
X3.6Y-3.1498
X3.6Y-3.2498
X3.6Y-3.3498
X3.6Y-3.4498
X3.6Y-3.5498
X3.6Y-3.6498
X3.6Y-3.7498
X3.6Y-3.8498
X3.6Y-3.9498
X3.6Y-4.0498
X3.6Y-4.1498
X3.6Y-4.2498
X3.6Y-4.3498
X3.6Y-4.4498
X3.7Y-2.5498
X3.7Y-2.6498
X3.7Y-2.7498
X3.7Y-2.8498
X3.7Y-2.9498
X3.7Y-3.0498
X3.7Y-3.1498
X3.7Y-3.2498
X3.7Y-3.3498
X3.7Y-3.4498
X3.7Y-3.5498
X3.7Y-3.6498
X3.7Y-3.7498
X3.7Y-3.8498
X3.7Y-3.9498
X3.7Y-4.0498
X3.7Y-4.1498
X3.7Y-4.2498
X3.7Y-4.3498
X3.7Y-4.4498
X3.8Y-2.5498
X3.8Y-2.6498
X3.8Y-2.7498
X3.8Y-2.8498
X3.8Y-2.9498
X3.8Y-3.0498
X3.8Y-3.1498
X3.8Y-3.2498
X3.8Y-3.3498
X3.8Y-3.4498
X3.8Y-3.5498
X3.8Y-3.6498
X3.8Y-3.7498
X3.8Y-3.8498
X3.8Y-3.9498
X3.8Y-4.0498
X3.8Y-4.1498
X3.8Y-4.2498
X3.8Y-4.3498
X3.8Y-4.4498
X3.9Y-2.5498
X3.9Y-2.6498
X3.9Y-2.7498
X3.9Y-2.8498
X3.9Y-2.9498
X3.9Y-3.0498
X3.9Y-3.1498
X3.9Y-3.2498
X3.9Y-3.3498
X3.9Y-3.4498
X3.9Y-3.5498
X3.9Y-3.6498
X3.9Y-3.7498
X3.9Y-3.8498
X3.9Y-3.9498
X3.9Y-4.0498
X3.9Y-4.1498
X3.9Y-4.2498
X3.9Y-4.3498
X3.9Y-4.4498
X4.4Y-2.55
X4.4Y-2.65
X4.4Y-2.75
X4.4Y-2.85
X4.4Y-2.95
X4.4Y-3.05
X4.4Y-3.15
X4.4Y-3.25
X4.4Y-3.35
X4.4Y-3.45
X4.4Y-3.55
X4.4Y-3.65
X4.4Y-3.75
X4.4Y-3.85
X4.4Y-3.95
X4.4Y-4.05
X4.4Y-4.15
X4.4Y-4.25
X4.4Y-4.35
X4.4Y-4.45
T0
M30
