%TF.GenerationSoftware,KiCad,Pcbnew,(6.0.5)*%
%TF.CreationDate,2022-08-06T22:36:06+10:00*%
%TF.ProjectId,glitcher,676c6974-6368-4657-922e-6b696361645f,rev?*%
%TF.SameCoordinates,Original*%
%TF.FileFunction,Legend,Bot*%
%TF.FilePolarity,Positive*%
%FSLAX46Y46*%
G04 Gerber Fmt 4.6, Leading zero omitted, Abs format (unit mm)*
G04 Created by KiCad (PCBNEW (6.0.5)) date 2022-08-06 22:36:06*
%MOMM*%
%LPD*%
G01*
G04 APERTURE LIST*
%ADD10C,0.150000*%
G04 APERTURE END LIST*
D10*
X175005474Y-110490000D02*
X180085474Y-110490000D01*
X180085474Y-110490000D02*
X180085474Y-100330000D01*
X180085474Y-100330000D02*
X175005474Y-100330000D01*
X175005474Y-100330000D02*
X175005474Y-110490000D01*
X192434880Y-135517659D02*
X192482499Y-135612897D01*
X192482499Y-135755754D01*
X192434880Y-135898612D01*
X192339641Y-135993850D01*
X192244403Y-136041469D01*
X192053927Y-136089088D01*
X191911070Y-136089088D01*
X191720594Y-136041469D01*
X191625356Y-135993850D01*
X191530118Y-135898612D01*
X191482499Y-135755754D01*
X191482499Y-135660516D01*
X191530118Y-135517659D01*
X191577737Y-135470040D01*
X191911070Y-135470040D01*
X191911070Y-135660516D01*
X191482499Y-135041469D02*
X192482499Y-135041469D01*
X192482499Y-134660516D01*
X192434880Y-134565278D01*
X192387260Y-134517659D01*
X192292022Y-134470040D01*
X192149165Y-134470040D01*
X192053927Y-134517659D01*
X192006308Y-134565278D01*
X191958689Y-134660516D01*
X191958689Y-135041469D01*
X192482499Y-134136707D02*
X192482499Y-133470040D01*
X191482499Y-133898612D01*
X172114880Y-135517659D02*
X172162499Y-135612897D01*
X172162499Y-135755754D01*
X172114880Y-135898611D01*
X172019641Y-135993849D01*
X171924403Y-136041468D01*
X171733927Y-136089087D01*
X171591070Y-136089087D01*
X171400594Y-136041468D01*
X171305356Y-135993849D01*
X171210118Y-135898611D01*
X171162499Y-135755754D01*
X171162499Y-135660516D01*
X171210118Y-135517659D01*
X171257737Y-135470040D01*
X171591070Y-135470040D01*
X171591070Y-135660516D01*
X171162499Y-135041468D02*
X172162499Y-135041468D01*
X172162499Y-134660516D01*
X172114880Y-134565278D01*
X172067260Y-134517659D01*
X171972022Y-134470040D01*
X171829165Y-134470040D01*
X171733927Y-134517659D01*
X171686308Y-134565278D01*
X171638689Y-134660516D01*
X171638689Y-135041468D01*
X171162499Y-133517659D02*
X171162499Y-134089087D01*
X171162499Y-133803373D02*
X172162499Y-133803373D01*
X172019641Y-133898611D01*
X171924403Y-133993849D01*
X171876784Y-134089087D01*
X172162499Y-132612897D02*
X172162499Y-133089087D01*
X171686308Y-133136706D01*
X171733927Y-133089087D01*
X171781546Y-132993849D01*
X171781546Y-132755754D01*
X171733927Y-132660516D01*
X171686308Y-132612897D01*
X171591070Y-132565278D01*
X171352975Y-132565278D01*
X171257737Y-132612897D01*
X171210118Y-132660516D01*
X171162499Y-132755754D01*
X171162499Y-132993849D01*
X171210118Y-133089087D01*
X171257737Y-133136706D01*
X181322499Y-88265278D02*
X182322499Y-88265278D01*
X182322499Y-87884326D01*
X182274880Y-87789088D01*
X182227260Y-87741469D01*
X182132022Y-87693850D01*
X181989165Y-87693850D01*
X181893927Y-87741469D01*
X181846308Y-87789088D01*
X181798689Y-87884326D01*
X181798689Y-88265278D01*
X181322499Y-87265278D02*
X182322499Y-87265278D01*
X182322499Y-86598612D02*
X182322499Y-86408135D01*
X182274880Y-86312897D01*
X182179641Y-86217659D01*
X181989165Y-86170040D01*
X181655832Y-86170040D01*
X181465356Y-86217659D01*
X181370118Y-86312897D01*
X181322499Y-86408135D01*
X181322499Y-86598612D01*
X181370118Y-86693850D01*
X181465356Y-86789088D01*
X181655832Y-86836707D01*
X181989165Y-86836707D01*
X182179641Y-86789088D01*
X182274880Y-86693850D01*
X182322499Y-86598612D01*
X182322499Y-85550992D02*
X182322499Y-85455754D01*
X182274880Y-85360516D01*
X182227260Y-85312897D01*
X182132022Y-85265278D01*
X181941546Y-85217659D01*
X181703451Y-85217659D01*
X181512975Y-85265278D01*
X181417737Y-85312897D01*
X181370118Y-85360516D01*
X181322499Y-85455754D01*
X181322499Y-85550992D01*
X181370118Y-85646231D01*
X181417737Y-85693850D01*
X181512975Y-85741469D01*
X181703451Y-85789088D01*
X181941546Y-85789088D01*
X182132022Y-85741469D01*
X182227260Y-85693850D01*
X182274880Y-85646231D01*
X182322499Y-85550992D01*
X181893927Y-84646231D02*
X181941546Y-84741469D01*
X181989165Y-84789088D01*
X182084403Y-84836707D01*
X182132022Y-84836707D01*
X182227260Y-84789088D01*
X182274880Y-84741469D01*
X182322499Y-84646231D01*
X182322499Y-84455754D01*
X182274880Y-84360516D01*
X182227260Y-84312897D01*
X182132022Y-84265278D01*
X182084403Y-84265278D01*
X181989165Y-84312897D01*
X181941546Y-84360516D01*
X181893927Y-84455754D01*
X181893927Y-84646231D01*
X181846308Y-84741469D01*
X181798689Y-84789088D01*
X181703451Y-84836707D01*
X181512975Y-84836707D01*
X181417737Y-84789088D01*
X181370118Y-84741469D01*
X181322499Y-84646231D01*
X181322499Y-84455754D01*
X181370118Y-84360516D01*
X181417737Y-84312897D01*
X181512975Y-84265278D01*
X181703451Y-84265278D01*
X181798689Y-84312897D01*
X181846308Y-84360516D01*
X181893927Y-84455754D01*
X181417737Y-83836707D02*
X181370118Y-83789088D01*
X181322499Y-83836707D01*
X181370118Y-83884326D01*
X181417737Y-83836707D01*
X181322499Y-83836707D01*
X181941546Y-83836707D02*
X181893927Y-83789088D01*
X181846308Y-83836707D01*
X181893927Y-83884326D01*
X181941546Y-83836707D01*
X181846308Y-83836707D01*
X181846308Y-83027183D02*
X181798689Y-82884326D01*
X181751070Y-82836707D01*
X181655832Y-82789088D01*
X181512975Y-82789088D01*
X181417737Y-82836707D01*
X181370118Y-82884326D01*
X181322499Y-82979564D01*
X181322499Y-83360516D01*
X182322499Y-83360516D01*
X182322499Y-83027183D01*
X182274880Y-82931945D01*
X182227260Y-82884326D01*
X182132022Y-82836707D01*
X182036784Y-82836707D01*
X181941546Y-82884326D01*
X181893927Y-82931945D01*
X181846308Y-83027183D01*
X181846308Y-83360516D01*
X181322499Y-81836707D02*
X181322499Y-82408135D01*
X181322499Y-82122421D02*
X182322499Y-82122421D01*
X182179641Y-82217659D01*
X182084403Y-82312897D01*
X182036784Y-82408135D01*
X182322499Y-80931945D02*
X182322499Y-81408135D01*
X181846308Y-81455754D01*
X181893927Y-81408135D01*
X181941546Y-81312897D01*
X181941546Y-81074802D01*
X181893927Y-80979564D01*
X181846308Y-80931945D01*
X181751070Y-80884326D01*
X181512975Y-80884326D01*
X181417737Y-80931945D01*
X181370118Y-80979564D01*
X181322499Y-81074802D01*
X181322499Y-81312897D01*
X181370118Y-81408135D01*
X181417737Y-81455754D01*
X102743451Y-83268612D02*
X102267261Y-83268612D01*
X102838689Y-83554326D02*
X102505356Y-82554326D01*
X102172023Y-83554326D01*
X101838689Y-83554326D02*
X101838689Y-82554326D01*
X101600594Y-82554326D01*
X101457737Y-82601946D01*
X101362499Y-82697184D01*
X101314880Y-82792422D01*
X101267261Y-82982898D01*
X101267261Y-83125755D01*
X101314880Y-83316231D01*
X101362499Y-83411469D01*
X101457737Y-83506707D01*
X101600594Y-83554326D01*
X101838689Y-83554326D01*
X100267261Y-83459088D02*
X100314880Y-83506707D01*
X100457737Y-83554326D01*
X100552975Y-83554326D01*
X100695832Y-83506707D01*
X100791070Y-83411469D01*
X100838689Y-83316231D01*
X100886308Y-83125755D01*
X100886308Y-82982898D01*
X100838689Y-82792422D01*
X100791070Y-82697184D01*
X100695832Y-82601946D01*
X100552975Y-82554326D01*
X100457737Y-82554326D01*
X100314880Y-82601946D01*
X100267261Y-82649565D01*
X99314880Y-83554326D02*
X99886308Y-83554326D01*
X99600594Y-83554326D02*
X99600594Y-82554326D01*
X99695832Y-82697184D01*
X99791070Y-82792422D01*
X99886308Y-82840041D01*
X202166308Y-81320516D02*
X202166308Y-81653850D01*
X201642499Y-81653850D02*
X202642499Y-81653850D01*
X202642499Y-81177659D01*
X186402499Y-87360516D02*
X187402499Y-87360516D01*
X187402499Y-86979564D01*
X187354880Y-86884326D01*
X187307260Y-86836707D01*
X187212022Y-86789088D01*
X187069165Y-86789088D01*
X186973927Y-86836707D01*
X186926308Y-86884326D01*
X186878689Y-86979564D01*
X186878689Y-87360516D01*
X186402499Y-86360516D02*
X187402499Y-86360516D01*
X187402499Y-85693850D02*
X187402499Y-85503373D01*
X187354880Y-85408135D01*
X187259641Y-85312897D01*
X187069165Y-85265278D01*
X186735832Y-85265278D01*
X186545356Y-85312897D01*
X186450118Y-85408135D01*
X186402499Y-85503373D01*
X186402499Y-85693850D01*
X186450118Y-85789088D01*
X186545356Y-85884326D01*
X186735832Y-85931945D01*
X187069165Y-85931945D01*
X187259641Y-85884326D01*
X187354880Y-85789088D01*
X187402499Y-85693850D01*
X187402499Y-84646231D02*
X187402499Y-84550992D01*
X187354880Y-84455754D01*
X187307260Y-84408135D01*
X187212022Y-84360516D01*
X187021546Y-84312897D01*
X186783451Y-84312897D01*
X186592975Y-84360516D01*
X186497737Y-84408135D01*
X186450118Y-84455754D01*
X186402499Y-84550992D01*
X186402499Y-84646231D01*
X186450118Y-84741469D01*
X186497737Y-84789088D01*
X186592975Y-84836707D01*
X186783451Y-84884326D01*
X187021546Y-84884326D01*
X187212022Y-84836707D01*
X187307260Y-84789088D01*
X187354880Y-84741469D01*
X187402499Y-84646231D01*
X187402499Y-83455754D02*
X187402499Y-83646231D01*
X187354880Y-83741469D01*
X187307260Y-83789088D01*
X187164403Y-83884326D01*
X186973927Y-83931945D01*
X186592975Y-83931945D01*
X186497737Y-83884326D01*
X186450118Y-83836707D01*
X186402499Y-83741469D01*
X186402499Y-83550992D01*
X186450118Y-83455754D01*
X186497737Y-83408135D01*
X186592975Y-83360516D01*
X186831070Y-83360516D01*
X186926308Y-83408135D01*
X186973927Y-83455754D01*
X187021546Y-83550992D01*
X187021546Y-83741469D01*
X186973927Y-83836707D01*
X186926308Y-83884326D01*
X186831070Y-83931945D01*
X186497737Y-82931945D02*
X186450118Y-82884326D01*
X186402499Y-82931945D01*
X186450118Y-82979564D01*
X186497737Y-82931945D01*
X186402499Y-82931945D01*
X187021546Y-82931945D02*
X186973927Y-82884326D01*
X186926308Y-82931945D01*
X186973927Y-82979564D01*
X187021546Y-82931945D01*
X186926308Y-82931945D01*
X186402499Y-82455754D02*
X187402499Y-82455754D01*
X186926308Y-82455754D02*
X186926308Y-81884326D01*
X186402499Y-81884326D02*
X187402499Y-81884326D01*
X186402499Y-80884326D02*
X186402499Y-81455754D01*
X186402499Y-81170040D02*
X187402499Y-81170040D01*
X187259641Y-81265278D01*
X187164403Y-81360516D01*
X187116784Y-81455754D01*
X166082499Y-87122422D02*
X167082499Y-87122422D01*
X167082499Y-86741469D01*
X167034880Y-86646231D01*
X166987260Y-86598612D01*
X166892022Y-86550993D01*
X166749165Y-86550993D01*
X166653927Y-86598612D01*
X166606308Y-86646231D01*
X166558689Y-86741469D01*
X166558689Y-87122422D01*
X166082499Y-86122422D02*
X167082499Y-86122422D01*
X167082499Y-85455755D02*
X167082499Y-85265279D01*
X167034880Y-85170041D01*
X166939641Y-85074803D01*
X166749165Y-85027184D01*
X166415832Y-85027184D01*
X166225356Y-85074803D01*
X166130118Y-85170041D01*
X166082499Y-85265279D01*
X166082499Y-85455755D01*
X166130118Y-85550993D01*
X166225356Y-85646231D01*
X166415832Y-85693850D01*
X166749165Y-85693850D01*
X166939641Y-85646231D01*
X167034880Y-85550993D01*
X167082499Y-85455755D01*
X166082499Y-84074803D02*
X166082499Y-84646231D01*
X166082499Y-84360517D02*
X167082499Y-84360517D01*
X166939641Y-84455755D01*
X166844403Y-84550993D01*
X166796784Y-84646231D01*
X166749165Y-83217660D02*
X166082499Y-83217660D01*
X167130118Y-83455755D02*
X166415832Y-83693850D01*
X166415832Y-83074803D01*
X166177737Y-82693850D02*
X166130118Y-82646231D01*
X166082499Y-82693850D01*
X166130118Y-82741469D01*
X166177737Y-82693850D01*
X166082499Y-82693850D01*
X166701546Y-82693850D02*
X166653927Y-82646231D01*
X166606308Y-82693850D01*
X166653927Y-82741469D01*
X166701546Y-82693850D01*
X166606308Y-82693850D01*
X166082499Y-81741469D02*
X166082499Y-82217660D01*
X167082499Y-82217660D01*
X166987260Y-81455755D02*
X167034880Y-81408136D01*
X167082499Y-81312898D01*
X167082499Y-81074803D01*
X167034880Y-80979564D01*
X166987260Y-80931945D01*
X166892022Y-80884326D01*
X166796784Y-80884326D01*
X166653927Y-80931945D01*
X166082499Y-81503374D01*
X166082499Y-80884326D01*
X205134887Y-135582541D02*
X205182506Y-135677779D01*
X205182506Y-135820636D01*
X205134887Y-135963493D01*
X205039648Y-136058731D01*
X204944410Y-136106350D01*
X204753934Y-136153969D01*
X204611077Y-136153969D01*
X204420601Y-136106350D01*
X204325363Y-136058731D01*
X204230125Y-135963493D01*
X204182506Y-135820636D01*
X204182506Y-135725398D01*
X204230125Y-135582541D01*
X204277744Y-135534922D01*
X204611077Y-135534922D01*
X204611077Y-135725398D01*
X204182506Y-135106350D02*
X205182506Y-135106350D01*
X205182506Y-134725398D01*
X205134887Y-134630160D01*
X205087267Y-134582541D01*
X204992029Y-134534922D01*
X204849172Y-134534922D01*
X204753934Y-134582541D01*
X204706315Y-134630160D01*
X204658696Y-134725398D01*
X204658696Y-135106350D01*
X205087267Y-134153969D02*
X205134887Y-134106350D01*
X205182506Y-134011112D01*
X205182506Y-133773017D01*
X205134887Y-133677779D01*
X205087267Y-133630160D01*
X204992029Y-133582541D01*
X204896791Y-133582541D01*
X204753934Y-133630160D01*
X204182506Y-134201588D01*
X204182506Y-133582541D01*
X205230125Y-132439684D02*
X203944410Y-133296826D01*
X204706315Y-131344446D02*
X204706315Y-131011112D01*
X204182506Y-130868255D02*
X204182506Y-131344446D01*
X205182506Y-131344446D01*
X205182506Y-130868255D01*
X204182506Y-130439684D02*
X205182506Y-130439684D01*
X204182506Y-129868255D01*
X205182506Y-129868255D01*
X197514880Y-135517659D02*
X197562499Y-135612897D01*
X197562499Y-135755754D01*
X197514880Y-135898612D01*
X197419641Y-135993850D01*
X197324403Y-136041469D01*
X197133927Y-136089088D01*
X196991070Y-136089088D01*
X196800594Y-136041469D01*
X196705356Y-135993850D01*
X196610118Y-135898612D01*
X196562499Y-135755754D01*
X196562499Y-135660516D01*
X196610118Y-135517659D01*
X196657737Y-135470040D01*
X196991070Y-135470040D01*
X196991070Y-135660516D01*
X196562499Y-135041469D02*
X197562499Y-135041469D01*
X197562499Y-134660516D01*
X197514880Y-134565278D01*
X197467260Y-134517659D01*
X197372022Y-134470040D01*
X197229165Y-134470040D01*
X197133927Y-134517659D01*
X197086308Y-134565278D01*
X197038689Y-134660516D01*
X197038689Y-135041469D01*
X197562499Y-133565278D02*
X197562499Y-134041469D01*
X197086308Y-134089088D01*
X197133927Y-134041469D01*
X197181546Y-133946231D01*
X197181546Y-133708135D01*
X197133927Y-133612897D01*
X197086308Y-133565278D01*
X196991070Y-133517659D01*
X196752975Y-133517659D01*
X196657737Y-133565278D01*
X196610118Y-133612897D01*
X196562499Y-133708135D01*
X196562499Y-133946231D01*
X196610118Y-134041469D01*
X196657737Y-134089088D01*
X189894880Y-135517659D02*
X189942499Y-135612897D01*
X189942499Y-135755754D01*
X189894880Y-135898612D01*
X189799641Y-135993850D01*
X189704403Y-136041469D01*
X189513927Y-136089088D01*
X189371070Y-136089088D01*
X189180594Y-136041469D01*
X189085356Y-135993850D01*
X188990118Y-135898612D01*
X188942499Y-135755754D01*
X188942499Y-135660516D01*
X188990118Y-135517659D01*
X189037737Y-135470040D01*
X189371070Y-135470040D01*
X189371070Y-135660516D01*
X188942499Y-135041469D02*
X189942499Y-135041469D01*
X189942499Y-134660516D01*
X189894880Y-134565278D01*
X189847260Y-134517659D01*
X189752022Y-134470040D01*
X189609165Y-134470040D01*
X189513927Y-134517659D01*
X189466308Y-134565278D01*
X189418689Y-134660516D01*
X189418689Y-135041469D01*
X189513927Y-133898612D02*
X189561546Y-133993850D01*
X189609165Y-134041469D01*
X189704403Y-134089088D01*
X189752022Y-134089088D01*
X189847260Y-134041469D01*
X189894880Y-133993850D01*
X189942499Y-133898612D01*
X189942499Y-133708135D01*
X189894880Y-133612897D01*
X189847260Y-133565278D01*
X189752022Y-133517659D01*
X189704403Y-133517659D01*
X189609165Y-133565278D01*
X189561546Y-133612897D01*
X189513927Y-133708135D01*
X189513927Y-133898612D01*
X189466308Y-133993850D01*
X189418689Y-134041469D01*
X189323451Y-134089088D01*
X189132975Y-134089088D01*
X189037737Y-134041469D01*
X188990118Y-133993850D01*
X188942499Y-133898612D01*
X188942499Y-133708135D01*
X188990118Y-133612897D01*
X189037737Y-133565278D01*
X189132975Y-133517659D01*
X189323451Y-133517659D01*
X189418689Y-133565278D01*
X189466308Y-133612897D01*
X189513927Y-133708135D01*
X178782499Y-88122422D02*
X179782499Y-88122422D01*
X179782499Y-87741469D01*
X179734880Y-87646231D01*
X179687260Y-87598612D01*
X179592022Y-87550993D01*
X179449165Y-87550993D01*
X179353927Y-87598612D01*
X179306308Y-87646231D01*
X179258689Y-87741469D01*
X179258689Y-88122422D01*
X178782499Y-87122422D02*
X179782499Y-87122422D01*
X179782499Y-86455755D02*
X179782499Y-86265279D01*
X179734880Y-86170041D01*
X179639641Y-86074803D01*
X179449165Y-86027184D01*
X179115832Y-86027184D01*
X178925356Y-86074803D01*
X178830118Y-86170041D01*
X178782499Y-86265279D01*
X178782499Y-86455755D01*
X178830118Y-86550993D01*
X178925356Y-86646231D01*
X179115832Y-86693850D01*
X179449165Y-86693850D01*
X179639641Y-86646231D01*
X179734880Y-86550993D01*
X179782499Y-86455755D01*
X179782499Y-85408136D02*
X179782499Y-85312898D01*
X179734880Y-85217660D01*
X179687260Y-85170041D01*
X179592022Y-85122422D01*
X179401546Y-85074803D01*
X179163451Y-85074803D01*
X178972975Y-85122422D01*
X178877737Y-85170041D01*
X178830118Y-85217660D01*
X178782499Y-85312898D01*
X178782499Y-85408136D01*
X178830118Y-85503374D01*
X178877737Y-85550993D01*
X178972975Y-85598612D01*
X179163451Y-85646231D01*
X179401546Y-85646231D01*
X179592022Y-85598612D01*
X179687260Y-85550993D01*
X179734880Y-85503374D01*
X179782499Y-85408136D01*
X178782499Y-84598612D02*
X178782499Y-84408136D01*
X178830118Y-84312898D01*
X178877737Y-84265279D01*
X179020594Y-84170041D01*
X179211070Y-84122422D01*
X179592022Y-84122422D01*
X179687260Y-84170041D01*
X179734880Y-84217660D01*
X179782499Y-84312898D01*
X179782499Y-84503374D01*
X179734880Y-84598612D01*
X179687260Y-84646231D01*
X179592022Y-84693850D01*
X179353927Y-84693850D01*
X179258689Y-84646231D01*
X179211070Y-84598612D01*
X179163451Y-84503374D01*
X179163451Y-84312898D01*
X179211070Y-84217660D01*
X179258689Y-84170041D01*
X179353927Y-84122422D01*
X178877737Y-83693850D02*
X178830118Y-83646231D01*
X178782499Y-83693850D01*
X178830118Y-83741469D01*
X178877737Y-83693850D01*
X178782499Y-83693850D01*
X179401546Y-83693850D02*
X179353927Y-83646231D01*
X179306308Y-83693850D01*
X179353927Y-83741469D01*
X179401546Y-83693850D01*
X179306308Y-83693850D01*
X179068213Y-83265279D02*
X179068213Y-82789088D01*
X178782499Y-83360517D02*
X179782499Y-83027184D01*
X178782499Y-82693850D01*
X178782499Y-81836707D02*
X178782499Y-82408136D01*
X178782499Y-82122422D02*
X179782499Y-82122422D01*
X179639641Y-82217660D01*
X179544403Y-82312898D01*
X179496784Y-82408136D01*
X179449165Y-80979564D02*
X178782499Y-80979564D01*
X179830118Y-81217660D02*
X179115832Y-81455755D01*
X179115832Y-80836707D01*
X166606308Y-135708135D02*
X166606308Y-136041469D01*
X166082499Y-136041469D02*
X167082499Y-136041469D01*
X167082499Y-135565278D01*
X166082499Y-134612897D02*
X166558689Y-134946231D01*
X166082499Y-135184326D02*
X167082499Y-135184326D01*
X167082499Y-134803373D01*
X167034880Y-134708135D01*
X166987260Y-134660516D01*
X166892022Y-134612897D01*
X166749165Y-134612897D01*
X166653927Y-134660516D01*
X166606308Y-134708135D01*
X166558689Y-134803373D01*
X166558689Y-135184326D01*
X166606308Y-134184326D02*
X166606308Y-133850992D01*
X166082499Y-133708135D02*
X166082499Y-134184326D01*
X167082499Y-134184326D01*
X167082499Y-133708135D01*
X166606308Y-133279564D02*
X166606308Y-132946231D01*
X166082499Y-132803373D02*
X166082499Y-133279564D01*
X167082499Y-133279564D01*
X167082499Y-132803373D01*
X196562497Y-87336700D02*
X197562497Y-87336700D01*
X197562497Y-86955748D01*
X197514878Y-86860510D01*
X197467258Y-86812891D01*
X197372020Y-86765272D01*
X197229163Y-86765272D01*
X197133925Y-86812891D01*
X197086306Y-86860510D01*
X197038687Y-86955748D01*
X197038687Y-87336700D01*
X196562497Y-86336700D02*
X197562497Y-86336700D01*
X197562497Y-85670034D02*
X197562497Y-85479557D01*
X197514878Y-85384319D01*
X197419639Y-85289081D01*
X197229163Y-85241462D01*
X196895830Y-85241462D01*
X196705354Y-85289081D01*
X196610116Y-85384319D01*
X196562497Y-85479557D01*
X196562497Y-85670034D01*
X196610116Y-85765272D01*
X196705354Y-85860510D01*
X196895830Y-85908129D01*
X197229163Y-85908129D01*
X197419639Y-85860510D01*
X197514878Y-85765272D01*
X197562497Y-85670034D01*
X196562497Y-84289081D02*
X196562497Y-84860510D01*
X196562497Y-84574795D02*
X197562497Y-84574795D01*
X197419639Y-84670034D01*
X197324401Y-84765272D01*
X197276782Y-84860510D01*
X197133925Y-83717653D02*
X197181544Y-83812891D01*
X197229163Y-83860510D01*
X197324401Y-83908129D01*
X197372020Y-83908129D01*
X197467258Y-83860510D01*
X197514878Y-83812891D01*
X197562497Y-83717653D01*
X197562497Y-83527176D01*
X197514878Y-83431938D01*
X197467258Y-83384319D01*
X197372020Y-83336700D01*
X197324401Y-83336700D01*
X197229163Y-83384319D01*
X197181544Y-83431938D01*
X197133925Y-83527176D01*
X197133925Y-83717653D01*
X197086306Y-83812891D01*
X197038687Y-83860510D01*
X196943449Y-83908129D01*
X196752973Y-83908129D01*
X196657735Y-83860510D01*
X196610116Y-83812891D01*
X196562497Y-83717653D01*
X196562497Y-83527176D01*
X196610116Y-83431938D01*
X196657735Y-83384319D01*
X196752973Y-83336700D01*
X196943449Y-83336700D01*
X197038687Y-83384319D01*
X197086306Y-83431938D01*
X197133925Y-83527176D01*
X196657735Y-82908129D02*
X196610116Y-82860510D01*
X196562497Y-82908129D01*
X196610116Y-82955748D01*
X196657735Y-82908129D01*
X196562497Y-82908129D01*
X197181544Y-82908129D02*
X197133925Y-82860510D01*
X197086306Y-82908129D01*
X197133925Y-82955748D01*
X197181544Y-82908129D01*
X197086306Y-82908129D01*
X196562497Y-82431938D02*
X197562497Y-82431938D01*
X196562497Y-81860510D01*
X197562497Y-81860510D01*
X197562497Y-81479557D02*
X197562497Y-80860510D01*
X197181544Y-81193843D01*
X197181544Y-81050986D01*
X197133925Y-80955748D01*
X197086306Y-80908129D01*
X196991068Y-80860510D01*
X196752973Y-80860510D01*
X196657735Y-80908129D01*
X196610116Y-80955748D01*
X196562497Y-81050986D01*
X196562497Y-81336700D01*
X196610116Y-81431938D01*
X196657735Y-81479557D01*
X164542499Y-135565278D02*
X164542499Y-136041468D01*
X164066308Y-136089087D01*
X164113927Y-136041468D01*
X164161546Y-135946230D01*
X164161546Y-135708135D01*
X164113927Y-135612897D01*
X164066308Y-135565278D01*
X163971070Y-135517659D01*
X163732975Y-135517659D01*
X163637737Y-135565278D01*
X163590118Y-135612897D01*
X163542499Y-135708135D01*
X163542499Y-135946230D01*
X163590118Y-136041468D01*
X163637737Y-136089087D01*
X164542499Y-135231944D02*
X163542499Y-134898611D01*
X164542499Y-134565278D01*
X188942499Y-88265278D02*
X189942499Y-88265278D01*
X189942499Y-87884326D01*
X189894880Y-87789088D01*
X189847260Y-87741469D01*
X189752022Y-87693850D01*
X189609165Y-87693850D01*
X189513927Y-87741469D01*
X189466308Y-87789088D01*
X189418689Y-87884326D01*
X189418689Y-88265278D01*
X188942499Y-87265278D02*
X189942499Y-87265278D01*
X189942499Y-86598612D02*
X189942499Y-86408135D01*
X189894880Y-86312897D01*
X189799641Y-86217659D01*
X189609165Y-86170040D01*
X189275832Y-86170040D01*
X189085356Y-86217659D01*
X188990118Y-86312897D01*
X188942499Y-86408135D01*
X188942499Y-86598612D01*
X188990118Y-86693850D01*
X189085356Y-86789088D01*
X189275832Y-86836707D01*
X189609165Y-86836707D01*
X189799641Y-86789088D01*
X189894880Y-86693850D01*
X189942499Y-86598612D01*
X189942499Y-85550992D02*
X189942499Y-85455754D01*
X189894880Y-85360516D01*
X189847260Y-85312897D01*
X189752022Y-85265278D01*
X189561546Y-85217659D01*
X189323451Y-85217659D01*
X189132975Y-85265278D01*
X189037737Y-85312897D01*
X188990118Y-85360516D01*
X188942499Y-85455754D01*
X188942499Y-85550992D01*
X188990118Y-85646231D01*
X189037737Y-85693850D01*
X189132975Y-85741469D01*
X189323451Y-85789088D01*
X189561546Y-85789088D01*
X189752022Y-85741469D01*
X189847260Y-85693850D01*
X189894880Y-85646231D01*
X189942499Y-85550992D01*
X189942499Y-84312897D02*
X189942499Y-84789088D01*
X189466308Y-84836707D01*
X189513927Y-84789088D01*
X189561546Y-84693850D01*
X189561546Y-84455754D01*
X189513927Y-84360516D01*
X189466308Y-84312897D01*
X189371070Y-84265278D01*
X189132975Y-84265278D01*
X189037737Y-84312897D01*
X188990118Y-84360516D01*
X188942499Y-84455754D01*
X188942499Y-84693850D01*
X188990118Y-84789088D01*
X189037737Y-84836707D01*
X189037737Y-83836707D02*
X188990118Y-83789088D01*
X188942499Y-83836707D01*
X188990118Y-83884326D01*
X189037737Y-83836707D01*
X188942499Y-83836707D01*
X189561546Y-83836707D02*
X189513927Y-83789088D01*
X189466308Y-83836707D01*
X189513927Y-83884326D01*
X189561546Y-83836707D01*
X189466308Y-83836707D01*
X189037737Y-82789088D02*
X188990118Y-82836707D01*
X188942499Y-82979564D01*
X188942499Y-83074802D01*
X188990118Y-83217659D01*
X189085356Y-83312897D01*
X189180594Y-83360516D01*
X189371070Y-83408135D01*
X189513927Y-83408135D01*
X189704403Y-83360516D01*
X189799641Y-83312897D01*
X189894880Y-83217659D01*
X189942499Y-83074802D01*
X189942499Y-82979564D01*
X189894880Y-82836707D01*
X189847260Y-82789088D01*
X188942499Y-81836707D02*
X188942499Y-82408135D01*
X188942499Y-82122421D02*
X189942499Y-82122421D01*
X189799641Y-82217659D01*
X189704403Y-82312897D01*
X189656784Y-82408135D01*
X189942499Y-80931945D02*
X189942499Y-81408135D01*
X189466308Y-81455754D01*
X189513927Y-81408135D01*
X189561546Y-81312897D01*
X189561546Y-81074802D01*
X189513927Y-80979564D01*
X189466308Y-80931945D01*
X189371070Y-80884326D01*
X189132975Y-80884326D01*
X189037737Y-80931945D01*
X188990118Y-80979564D01*
X188942499Y-81074802D01*
X188942499Y-81312897D01*
X188990118Y-81408135D01*
X189037737Y-81455754D01*
X210262499Y-81796707D02*
X209262499Y-81130040D01*
X210262499Y-81130040D02*
X209262499Y-81796707D01*
X194974880Y-135517659D02*
X195022499Y-135612897D01*
X195022499Y-135755754D01*
X194974880Y-135898612D01*
X194879641Y-135993850D01*
X194784403Y-136041469D01*
X194593927Y-136089088D01*
X194451070Y-136089088D01*
X194260594Y-136041469D01*
X194165356Y-135993850D01*
X194070118Y-135898612D01*
X194022499Y-135755754D01*
X194022499Y-135660516D01*
X194070118Y-135517659D01*
X194117737Y-135470040D01*
X194451070Y-135470040D01*
X194451070Y-135660516D01*
X194022499Y-135041469D02*
X195022499Y-135041469D01*
X195022499Y-134660516D01*
X194974880Y-134565278D01*
X194927260Y-134517659D01*
X194832022Y-134470040D01*
X194689165Y-134470040D01*
X194593927Y-134517659D01*
X194546308Y-134565278D01*
X194498689Y-134660516D01*
X194498689Y-135041469D01*
X195022499Y-133612897D02*
X195022499Y-133803374D01*
X194974880Y-133898612D01*
X194927260Y-133946231D01*
X194784403Y-134041469D01*
X194593927Y-134089088D01*
X194212975Y-134089088D01*
X194117737Y-134041469D01*
X194070118Y-133993850D01*
X194022499Y-133898612D01*
X194022499Y-133708135D01*
X194070118Y-133612897D01*
X194117737Y-133565278D01*
X194212975Y-133517659D01*
X194451070Y-133517659D01*
X194546308Y-133565278D01*
X194593927Y-133612897D01*
X194641546Y-133708135D01*
X194641546Y-133898612D01*
X194593927Y-133993850D01*
X194546308Y-134041469D01*
X194451070Y-134089088D01*
X191482497Y-87312891D02*
X192482497Y-87312891D01*
X192482497Y-86931938D01*
X192434878Y-86836700D01*
X192387258Y-86789081D01*
X192292020Y-86741462D01*
X192149163Y-86741462D01*
X192053925Y-86789081D01*
X192006306Y-86836700D01*
X191958687Y-86931938D01*
X191958687Y-87312891D01*
X191482497Y-86312891D02*
X192482497Y-86312891D01*
X192482497Y-85646224D02*
X192482497Y-85455748D01*
X192434878Y-85360510D01*
X192339639Y-85265272D01*
X192149163Y-85217653D01*
X191815830Y-85217653D01*
X191625354Y-85265272D01*
X191530116Y-85360510D01*
X191482497Y-85455748D01*
X191482497Y-85646224D01*
X191530116Y-85741462D01*
X191625354Y-85836700D01*
X191815830Y-85884319D01*
X192149163Y-85884319D01*
X192339639Y-85836700D01*
X192434878Y-85741462D01*
X192482497Y-85646224D01*
X192482497Y-84598605D02*
X192482497Y-84503367D01*
X192434878Y-84408129D01*
X192387258Y-84360510D01*
X192292020Y-84312891D01*
X192101544Y-84265272D01*
X191863449Y-84265272D01*
X191672973Y-84312891D01*
X191577735Y-84360510D01*
X191530116Y-84408129D01*
X191482497Y-84503367D01*
X191482497Y-84598605D01*
X191530116Y-84693843D01*
X191577735Y-84741462D01*
X191672973Y-84789081D01*
X191863449Y-84836700D01*
X192101544Y-84836700D01*
X192292020Y-84789081D01*
X192387258Y-84741462D01*
X192434878Y-84693843D01*
X192482497Y-84598605D01*
X192149163Y-83408129D02*
X191482497Y-83408129D01*
X192530116Y-83646224D02*
X191815830Y-83884319D01*
X191815830Y-83265272D01*
X191577735Y-82884319D02*
X191530116Y-82836700D01*
X191482497Y-82884319D01*
X191530116Y-82931938D01*
X191577735Y-82884319D01*
X191482497Y-82884319D01*
X192101544Y-82884319D02*
X192053925Y-82836700D01*
X192006306Y-82884319D01*
X192053925Y-82931938D01*
X192101544Y-82884319D01*
X192006306Y-82884319D01*
X191482497Y-82408129D02*
X192482497Y-82408129D01*
X191482497Y-81836700D02*
X192053925Y-82265272D01*
X192482497Y-81836700D02*
X191911068Y-82408129D01*
X192482497Y-81503367D02*
X192482497Y-80884319D01*
X192101544Y-81217653D01*
X192101544Y-81074795D01*
X192053925Y-80979557D01*
X192006306Y-80931938D01*
X191911068Y-80884319D01*
X191672973Y-80884319D01*
X191577735Y-80931938D01*
X191530116Y-80979557D01*
X191482497Y-81074795D01*
X191482497Y-81360510D01*
X191530116Y-81455748D01*
X191577735Y-81503367D01*
X178307378Y-100885000D02*
X178402616Y-100837380D01*
X178545474Y-100837380D01*
X178688331Y-100885000D01*
X178783569Y-100980238D01*
X178831188Y-101075476D01*
X178878807Y-101265952D01*
X178878807Y-101408809D01*
X178831188Y-101599285D01*
X178783569Y-101694523D01*
X178688331Y-101789761D01*
X178545474Y-101837380D01*
X178450235Y-101837380D01*
X178307378Y-101789761D01*
X178259759Y-101742142D01*
X178259759Y-101408809D01*
X178450235Y-101408809D01*
X177831188Y-101837380D02*
X177831188Y-100837380D01*
X177259759Y-101837380D01*
X177259759Y-100837380D01*
X176783569Y-101837380D02*
X176783569Y-100837380D01*
X176545474Y-100837380D01*
X176402616Y-100885000D01*
X176307378Y-100980238D01*
X176259759Y-101075476D01*
X176212140Y-101265952D01*
X176212140Y-101408809D01*
X176259759Y-101599285D01*
X176307378Y-101694523D01*
X176402616Y-101789761D01*
X176545474Y-101837380D01*
X176783569Y-101837380D01*
X178974045Y-102447380D02*
X178354997Y-102447380D01*
X178688331Y-102828333D01*
X178545474Y-102828333D01*
X178450235Y-102875952D01*
X178402616Y-102923571D01*
X178354997Y-103018809D01*
X178354997Y-103256904D01*
X178402616Y-103352142D01*
X178450235Y-103399761D01*
X178545474Y-103447380D01*
X178831188Y-103447380D01*
X178926426Y-103399761D01*
X178974045Y-103352142D01*
X177926426Y-103352142D02*
X177878807Y-103399761D01*
X177926426Y-103447380D01*
X177974045Y-103399761D01*
X177926426Y-103352142D01*
X177926426Y-103447380D01*
X177545474Y-102447380D02*
X176926426Y-102447380D01*
X177259759Y-102828333D01*
X177116902Y-102828333D01*
X177021664Y-102875952D01*
X176974045Y-102923571D01*
X176926426Y-103018809D01*
X176926426Y-103256904D01*
X176974045Y-103352142D01*
X177021664Y-103399761D01*
X177116902Y-103447380D01*
X177402616Y-103447380D01*
X177497854Y-103399761D01*
X177545474Y-103352142D01*
X176593093Y-102780714D02*
X176354997Y-103447380D01*
X176116902Y-102780714D01*
X178926426Y-104152619D02*
X178878807Y-104105000D01*
X178783569Y-104057380D01*
X178545474Y-104057380D01*
X178450235Y-104105000D01*
X178402616Y-104152619D01*
X178354997Y-104247857D01*
X178354997Y-104343095D01*
X178402616Y-104485952D01*
X178974045Y-105057380D01*
X178354997Y-105057380D01*
X177926426Y-104962142D02*
X177878807Y-105009761D01*
X177926426Y-105057380D01*
X177974045Y-105009761D01*
X177926426Y-104962142D01*
X177926426Y-105057380D01*
X176974045Y-104057380D02*
X177450235Y-104057380D01*
X177497854Y-104533571D01*
X177450235Y-104485952D01*
X177354997Y-104438333D01*
X177116902Y-104438333D01*
X177021664Y-104485952D01*
X176974045Y-104533571D01*
X176926426Y-104628809D01*
X176926426Y-104866904D01*
X176974045Y-104962142D01*
X177021664Y-105009761D01*
X177116902Y-105057380D01*
X177354997Y-105057380D01*
X177450235Y-105009761D01*
X177497854Y-104962142D01*
X176593093Y-104390714D02*
X176354997Y-105057380D01*
X176116902Y-104390714D01*
X178354997Y-106667380D02*
X178926426Y-106667380D01*
X178640712Y-106667380D02*
X178640712Y-105667380D01*
X178735950Y-105810238D01*
X178831188Y-105905476D01*
X178926426Y-105953095D01*
X177926426Y-106572142D02*
X177878807Y-106619761D01*
X177926426Y-106667380D01*
X177974045Y-106619761D01*
X177926426Y-106572142D01*
X177926426Y-106667380D01*
X177307378Y-106095952D02*
X177402616Y-106048333D01*
X177450235Y-106000714D01*
X177497854Y-105905476D01*
X177497854Y-105857857D01*
X177450235Y-105762619D01*
X177402616Y-105715000D01*
X177307378Y-105667380D01*
X177116902Y-105667380D01*
X177021664Y-105715000D01*
X176974045Y-105762619D01*
X176926426Y-105857857D01*
X176926426Y-105905476D01*
X176974045Y-106000714D01*
X177021664Y-106048333D01*
X177116902Y-106095952D01*
X177307378Y-106095952D01*
X177402616Y-106143571D01*
X177450235Y-106191190D01*
X177497854Y-106286428D01*
X177497854Y-106476904D01*
X177450235Y-106572142D01*
X177402616Y-106619761D01*
X177307378Y-106667380D01*
X177116902Y-106667380D01*
X177021664Y-106619761D01*
X176974045Y-106572142D01*
X176926426Y-106476904D01*
X176926426Y-106286428D01*
X176974045Y-106191190D01*
X177021664Y-106143571D01*
X177116902Y-106095952D01*
X176593093Y-106000714D02*
X176354997Y-106667380D01*
X176116902Y-106000714D01*
X178354997Y-108277380D02*
X178926426Y-108277380D01*
X178640712Y-108277380D02*
X178640712Y-107277380D01*
X178735950Y-107420238D01*
X178831188Y-107515476D01*
X178926426Y-107563095D01*
X177926426Y-108182142D02*
X177878807Y-108229761D01*
X177926426Y-108277380D01*
X177974045Y-108229761D01*
X177926426Y-108182142D01*
X177926426Y-108277380D01*
X177497854Y-107372619D02*
X177450235Y-107325000D01*
X177354997Y-107277380D01*
X177116902Y-107277380D01*
X177021664Y-107325000D01*
X176974045Y-107372619D01*
X176926426Y-107467857D01*
X176926426Y-107563095D01*
X176974045Y-107705952D01*
X177545474Y-108277380D01*
X176926426Y-108277380D01*
X176593093Y-107610714D02*
X176354997Y-108277380D01*
X176116902Y-107610714D01*
X179188331Y-108887380D02*
X178854997Y-109887380D01*
X178521664Y-108887380D01*
X178235950Y-109601666D02*
X177759759Y-109601666D01*
X178331188Y-109887380D02*
X177997854Y-108887380D01*
X177664521Y-109887380D01*
X177331188Y-109887380D02*
X177331188Y-108887380D01*
X177093093Y-108887380D01*
X176950235Y-108935000D01*
X176854997Y-109030238D01*
X176807378Y-109125476D01*
X176759759Y-109315952D01*
X176759759Y-109458809D01*
X176807378Y-109649285D01*
X176854997Y-109744523D01*
X176950235Y-109839761D01*
X177093093Y-109887380D01*
X177331188Y-109887380D01*
X176045474Y-108887380D02*
X176045474Y-109601666D01*
X176093093Y-109744523D01*
X176188331Y-109839761D01*
X176331188Y-109887380D01*
X176426426Y-109887380D01*
X205182499Y-81796707D02*
X205182499Y-81130040D01*
X204182499Y-81796707D01*
X204182499Y-81130040D01*
X184814880Y-135517659D02*
X184862499Y-135612897D01*
X184862499Y-135755754D01*
X184814880Y-135898611D01*
X184719641Y-135993849D01*
X184624403Y-136041468D01*
X184433927Y-136089087D01*
X184291070Y-136089087D01*
X184100594Y-136041468D01*
X184005356Y-135993849D01*
X183910118Y-135898611D01*
X183862499Y-135755754D01*
X183862499Y-135660516D01*
X183910118Y-135517659D01*
X183957737Y-135470040D01*
X184291070Y-135470040D01*
X184291070Y-135660516D01*
X183862499Y-135041468D02*
X184862499Y-135041468D01*
X184862499Y-134660516D01*
X184814880Y-134565278D01*
X184767260Y-134517659D01*
X184672022Y-134470040D01*
X184529165Y-134470040D01*
X184433927Y-134517659D01*
X184386308Y-134565278D01*
X184338689Y-134660516D01*
X184338689Y-135041468D01*
X183862499Y-133517659D02*
X183862499Y-134089087D01*
X183862499Y-133803373D02*
X184862499Y-133803373D01*
X184719641Y-133898611D01*
X184624403Y-133993849D01*
X184576784Y-134089087D01*
X184862499Y-132898611D02*
X184862499Y-132803373D01*
X184814880Y-132708135D01*
X184767260Y-132660516D01*
X184672022Y-132612897D01*
X184481546Y-132565278D01*
X184243451Y-132565278D01*
X184052975Y-132612897D01*
X183957737Y-132660516D01*
X183910118Y-132708135D01*
X183862499Y-132803373D01*
X183862499Y-132898611D01*
X183910118Y-132993849D01*
X183957737Y-133041468D01*
X184052975Y-133089087D01*
X184243451Y-133136706D01*
X184481546Y-133136706D01*
X184672022Y-133089087D01*
X184767260Y-133041468D01*
X184814880Y-132993849D01*
X184862499Y-132898611D01*
X174654880Y-135517659D02*
X174702499Y-135612897D01*
X174702499Y-135755754D01*
X174654880Y-135898611D01*
X174559641Y-135993849D01*
X174464403Y-136041468D01*
X174273927Y-136089087D01*
X174131070Y-136089087D01*
X173940594Y-136041468D01*
X173845356Y-135993849D01*
X173750118Y-135898611D01*
X173702499Y-135755754D01*
X173702499Y-135660516D01*
X173750118Y-135517659D01*
X173797737Y-135470040D01*
X174131070Y-135470040D01*
X174131070Y-135660516D01*
X173702499Y-135041468D02*
X174702499Y-135041468D01*
X174702499Y-134660516D01*
X174654880Y-134565278D01*
X174607260Y-134517659D01*
X174512022Y-134470040D01*
X174369165Y-134470040D01*
X174273927Y-134517659D01*
X174226308Y-134565278D01*
X174178689Y-134660516D01*
X174178689Y-135041468D01*
X173702499Y-133517659D02*
X173702499Y-134089087D01*
X173702499Y-133803373D02*
X174702499Y-133803373D01*
X174559641Y-133898611D01*
X174464403Y-133993849D01*
X174416784Y-134089087D01*
X174369165Y-132660516D02*
X173702499Y-132660516D01*
X174750118Y-132898611D02*
X174035832Y-133136706D01*
X174035832Y-132517659D01*
X169146308Y-135708135D02*
X169146308Y-136041469D01*
X168622499Y-136041469D02*
X169622499Y-136041469D01*
X169622499Y-135565278D01*
X168622499Y-134612897D02*
X169098689Y-134946231D01*
X168622499Y-135184326D02*
X169622499Y-135184326D01*
X169622499Y-134803373D01*
X169574880Y-134708135D01*
X169527260Y-134660516D01*
X169432022Y-134612897D01*
X169289165Y-134612897D01*
X169193927Y-134660516D01*
X169146308Y-134708135D01*
X169098689Y-134803373D01*
X169098689Y-135184326D01*
X169146308Y-134184326D02*
X169146308Y-133850992D01*
X168622499Y-133708135D02*
X168622499Y-134184326D01*
X169622499Y-134184326D01*
X169622499Y-133708135D01*
X169146308Y-133279564D02*
X169146308Y-132946231D01*
X168622499Y-132803373D02*
X168622499Y-133279564D01*
X169622499Y-133279564D01*
X169622499Y-132803373D01*
X161954880Y-135517659D02*
X162002499Y-135612897D01*
X162002499Y-135755755D01*
X161954880Y-135898612D01*
X161859641Y-135993850D01*
X161764403Y-136041469D01*
X161573927Y-136089088D01*
X161431070Y-136089088D01*
X161240594Y-136041469D01*
X161145356Y-135993850D01*
X161050118Y-135898612D01*
X161002499Y-135755755D01*
X161002499Y-135660516D01*
X161050118Y-135517659D01*
X161097737Y-135470040D01*
X161431070Y-135470040D01*
X161431070Y-135660516D01*
X161002499Y-135041469D02*
X162002499Y-135041469D01*
X161002499Y-134470040D01*
X162002499Y-134470040D01*
X161002499Y-133993850D02*
X162002499Y-133993850D01*
X162002499Y-133755755D01*
X161954880Y-133612897D01*
X161859641Y-133517659D01*
X161764403Y-133470040D01*
X161573927Y-133422421D01*
X161431070Y-133422421D01*
X161240594Y-133470040D01*
X161145356Y-133517659D01*
X161050118Y-133612897D01*
X161002499Y-133755755D01*
X161002499Y-133993850D01*
X207246308Y-146265278D02*
X207246308Y-146598612D01*
X206722499Y-146598612D02*
X207722499Y-146598612D01*
X207722499Y-146122421D01*
X188514997Y-115995380D02*
X187848331Y-115995380D01*
X188514997Y-116995380D01*
X187848331Y-116995380D01*
X186943569Y-116995380D02*
X187514997Y-116995380D01*
X187229283Y-116995380D02*
X187229283Y-115995380D01*
X187324521Y-116138238D01*
X187419759Y-116233476D01*
X187514997Y-116281095D01*
X188514997Y-117605380D02*
X187848331Y-117605380D01*
X188514997Y-118605380D01*
X187848331Y-118605380D01*
X187276902Y-117605380D02*
X187181664Y-117605380D01*
X187086426Y-117653000D01*
X187038807Y-117700619D01*
X186991188Y-117795857D01*
X186943569Y-117986333D01*
X186943569Y-118224428D01*
X186991188Y-118414904D01*
X187038807Y-118510142D01*
X187086426Y-118557761D01*
X187181664Y-118605380D01*
X187276902Y-118605380D01*
X187372140Y-118557761D01*
X187419759Y-118510142D01*
X187467378Y-118414904D01*
X187514997Y-118224428D01*
X187514997Y-117986333D01*
X187467378Y-117795857D01*
X187419759Y-117700619D01*
X187372140Y-117653000D01*
X187276902Y-117605380D01*
X179734880Y-135517659D02*
X179782499Y-135612897D01*
X179782499Y-135755754D01*
X179734880Y-135898611D01*
X179639641Y-135993849D01*
X179544403Y-136041468D01*
X179353927Y-136089087D01*
X179211070Y-136089087D01*
X179020594Y-136041468D01*
X178925356Y-135993849D01*
X178830118Y-135898611D01*
X178782499Y-135755754D01*
X178782499Y-135660516D01*
X178830118Y-135517659D01*
X178877737Y-135470040D01*
X179211070Y-135470040D01*
X179211070Y-135660516D01*
X178782499Y-135041468D02*
X179782499Y-135041468D01*
X179782499Y-134660516D01*
X179734880Y-134565278D01*
X179687260Y-134517659D01*
X179592022Y-134470040D01*
X179449165Y-134470040D01*
X179353927Y-134517659D01*
X179306308Y-134565278D01*
X179258689Y-134660516D01*
X179258689Y-135041468D01*
X178782499Y-133517659D02*
X178782499Y-134089087D01*
X178782499Y-133803373D02*
X179782499Y-133803373D01*
X179639641Y-133898611D01*
X179544403Y-133993849D01*
X179496784Y-134089087D01*
X179687260Y-133136706D02*
X179734880Y-133089087D01*
X179782499Y-132993849D01*
X179782499Y-132755754D01*
X179734880Y-132660516D01*
X179687260Y-132612897D01*
X179592022Y-132565278D01*
X179496784Y-132565278D01*
X179353927Y-132612897D01*
X178782499Y-133184325D01*
X178782499Y-132565278D01*
X177194880Y-135517659D02*
X177242499Y-135612897D01*
X177242499Y-135755754D01*
X177194880Y-135898611D01*
X177099641Y-135993849D01*
X177004403Y-136041468D01*
X176813927Y-136089087D01*
X176671070Y-136089087D01*
X176480594Y-136041468D01*
X176385356Y-135993849D01*
X176290118Y-135898611D01*
X176242499Y-135755754D01*
X176242499Y-135660516D01*
X176290118Y-135517659D01*
X176337737Y-135470040D01*
X176671070Y-135470040D01*
X176671070Y-135660516D01*
X176242499Y-135041468D02*
X177242499Y-135041468D01*
X177242499Y-134660516D01*
X177194880Y-134565278D01*
X177147260Y-134517659D01*
X177052022Y-134470040D01*
X176909165Y-134470040D01*
X176813927Y-134517659D01*
X176766308Y-134565278D01*
X176718689Y-134660516D01*
X176718689Y-135041468D01*
X176242499Y-133517659D02*
X176242499Y-134089087D01*
X176242499Y-133803373D02*
X177242499Y-133803373D01*
X177099641Y-133898611D01*
X177004403Y-133993849D01*
X176956784Y-134089087D01*
X177242499Y-133184325D02*
X177242499Y-132565278D01*
X176861546Y-132898611D01*
X176861546Y-132755754D01*
X176813927Y-132660516D01*
X176766308Y-132612897D01*
X176671070Y-132565278D01*
X176432975Y-132565278D01*
X176337737Y-132612897D01*
X176290118Y-132660516D01*
X176242499Y-132755754D01*
X176242499Y-133041468D01*
X176290118Y-133136706D01*
X176337737Y-133184325D01*
X202594880Y-135517659D02*
X202642499Y-135612897D01*
X202642499Y-135755754D01*
X202594880Y-135898612D01*
X202499641Y-135993850D01*
X202404403Y-136041469D01*
X202213927Y-136089088D01*
X202071070Y-136089088D01*
X201880594Y-136041469D01*
X201785356Y-135993850D01*
X201690118Y-135898612D01*
X201642499Y-135755754D01*
X201642499Y-135660516D01*
X201690118Y-135517659D01*
X201737737Y-135470040D01*
X202071070Y-135470040D01*
X202071070Y-135660516D01*
X201642499Y-135041469D02*
X202642499Y-135041469D01*
X202642499Y-134660516D01*
X202594880Y-134565278D01*
X202547260Y-134517659D01*
X202452022Y-134470040D01*
X202309165Y-134470040D01*
X202213927Y-134517659D01*
X202166308Y-134565278D01*
X202118689Y-134660516D01*
X202118689Y-135041469D01*
X202642499Y-134136707D02*
X202642499Y-133517659D01*
X202261546Y-133850993D01*
X202261546Y-133708135D01*
X202213927Y-133612897D01*
X202166308Y-133565278D01*
X202071070Y-133517659D01*
X201832975Y-133517659D01*
X201737737Y-133565278D01*
X201690118Y-133612897D01*
X201642499Y-133708135D01*
X201642499Y-133993850D01*
X201690118Y-134089088D01*
X201737737Y-134136707D01*
X173702499Y-87074802D02*
X174702499Y-87074802D01*
X174702499Y-86693850D01*
X174654880Y-86598612D01*
X174607260Y-86550993D01*
X174512022Y-86503374D01*
X174369165Y-86503374D01*
X174273927Y-86550993D01*
X174226308Y-86598612D01*
X174178689Y-86693850D01*
X174178689Y-87074802D01*
X173702499Y-86074802D02*
X174702499Y-86074802D01*
X174702499Y-85408135D02*
X174702499Y-85217659D01*
X174654880Y-85122421D01*
X174559641Y-85027183D01*
X174369165Y-84979564D01*
X174035832Y-84979564D01*
X173845356Y-85027183D01*
X173750118Y-85122421D01*
X173702499Y-85217659D01*
X173702499Y-85408135D01*
X173750118Y-85503374D01*
X173845356Y-85598612D01*
X174035832Y-85646231D01*
X174369165Y-85646231D01*
X174559641Y-85598612D01*
X174654880Y-85503374D01*
X174702499Y-85408135D01*
X173702499Y-84027183D02*
X173702499Y-84598612D01*
X173702499Y-84312897D02*
X174702499Y-84312897D01*
X174559641Y-84408135D01*
X174464403Y-84503374D01*
X174416784Y-84598612D01*
X173702499Y-83074802D02*
X173702499Y-83646231D01*
X173702499Y-83360516D02*
X174702499Y-83360516D01*
X174559641Y-83455754D01*
X174464403Y-83550993D01*
X174416784Y-83646231D01*
X173797737Y-82646231D02*
X173750118Y-82598612D01*
X173702499Y-82646231D01*
X173750118Y-82693850D01*
X173797737Y-82646231D01*
X173702499Y-82646231D01*
X174321546Y-82646231D02*
X174273927Y-82598612D01*
X174226308Y-82646231D01*
X174273927Y-82693850D01*
X174321546Y-82646231D01*
X174226308Y-82646231D01*
X174702499Y-81884326D02*
X173988213Y-81884326D01*
X173845356Y-81931945D01*
X173750118Y-82027183D01*
X173702499Y-82170040D01*
X173702499Y-82265278D01*
X173702499Y-80884326D02*
X173702499Y-81455754D01*
X173702499Y-81170040D02*
X174702499Y-81170040D01*
X174559641Y-81265278D01*
X174464403Y-81360516D01*
X174416784Y-81455754D01*
X182274880Y-135517659D02*
X182322499Y-135612897D01*
X182322499Y-135755754D01*
X182274880Y-135898611D01*
X182179641Y-135993849D01*
X182084403Y-136041468D01*
X181893927Y-136089087D01*
X181751070Y-136089087D01*
X181560594Y-136041468D01*
X181465356Y-135993849D01*
X181370118Y-135898611D01*
X181322499Y-135755754D01*
X181322499Y-135660516D01*
X181370118Y-135517659D01*
X181417737Y-135470040D01*
X181751070Y-135470040D01*
X181751070Y-135660516D01*
X181322499Y-135041468D02*
X182322499Y-135041468D01*
X182322499Y-134660516D01*
X182274880Y-134565278D01*
X182227260Y-134517659D01*
X182132022Y-134470040D01*
X181989165Y-134470040D01*
X181893927Y-134517659D01*
X181846308Y-134565278D01*
X181798689Y-134660516D01*
X181798689Y-135041468D01*
X181322499Y-133517659D02*
X181322499Y-134089087D01*
X181322499Y-133803373D02*
X182322499Y-133803373D01*
X182179641Y-133898611D01*
X182084403Y-133993849D01*
X182036784Y-134089087D01*
X181322499Y-132565278D02*
X181322499Y-133136706D01*
X181322499Y-132850992D02*
X182322499Y-132850992D01*
X182179641Y-132946230D01*
X182084403Y-133041468D01*
X182036784Y-133136706D01*
X207198689Y-81463374D02*
X206722499Y-81463374D01*
X207722499Y-81796707D02*
X207198689Y-81463374D01*
X207722499Y-81130040D01*
X161954880Y-82979564D02*
X162002499Y-83074802D01*
X162002499Y-83217660D01*
X161954880Y-83360517D01*
X161859641Y-83455755D01*
X161764403Y-83503374D01*
X161573927Y-83550993D01*
X161431070Y-83550993D01*
X161240594Y-83503374D01*
X161145356Y-83455755D01*
X161050118Y-83360517D01*
X161002499Y-83217660D01*
X161002499Y-83122421D01*
X161050118Y-82979564D01*
X161097737Y-82931945D01*
X161431070Y-82931945D01*
X161431070Y-83122421D01*
X161002499Y-82503374D02*
X162002499Y-82503374D01*
X161002499Y-81931945D01*
X162002499Y-81931945D01*
X161002499Y-81455755D02*
X162002499Y-81455755D01*
X162002499Y-81217660D01*
X161954880Y-81074802D01*
X161859641Y-80979564D01*
X161764403Y-80931945D01*
X161573927Y-80884326D01*
X161431070Y-80884326D01*
X161240594Y-80931945D01*
X161145356Y-80979564D01*
X161050118Y-81074802D01*
X161002499Y-81217660D01*
X161002499Y-81455755D01*
X188514997Y-95675380D02*
X187848331Y-96675380D01*
X187848331Y-95675380D02*
X188514997Y-96675380D01*
X186943569Y-96675380D02*
X187514997Y-96675380D01*
X187229283Y-96675380D02*
X187229283Y-95675380D01*
X187324521Y-95818238D01*
X187419759Y-95913476D01*
X187514997Y-95961095D01*
X188514997Y-97285380D02*
X187848331Y-98285380D01*
X187848331Y-97285380D02*
X188514997Y-98285380D01*
X187276902Y-97285380D02*
X187181664Y-97285380D01*
X187086426Y-97333000D01*
X187038807Y-97380619D01*
X186991188Y-97475857D01*
X186943569Y-97666333D01*
X186943569Y-97904428D01*
X186991188Y-98094904D01*
X187038807Y-98190142D01*
X187086426Y-98237761D01*
X187181664Y-98285380D01*
X187276902Y-98285380D01*
X187372140Y-98237761D01*
X187419759Y-98190142D01*
X187467378Y-98094904D01*
X187514997Y-97904428D01*
X187514997Y-97666333D01*
X187467378Y-97475857D01*
X187419759Y-97380619D01*
X187372140Y-97333000D01*
X187276902Y-97285380D01*
X200054880Y-135517659D02*
X200102499Y-135612897D01*
X200102499Y-135755754D01*
X200054880Y-135898612D01*
X199959641Y-135993850D01*
X199864403Y-136041469D01*
X199673927Y-136089088D01*
X199531070Y-136089088D01*
X199340594Y-136041469D01*
X199245356Y-135993850D01*
X199150118Y-135898612D01*
X199102499Y-135755754D01*
X199102499Y-135660516D01*
X199150118Y-135517659D01*
X199197737Y-135470040D01*
X199531070Y-135470040D01*
X199531070Y-135660516D01*
X199102499Y-135041469D02*
X200102499Y-135041469D01*
X200102499Y-134660516D01*
X200054880Y-134565278D01*
X200007260Y-134517659D01*
X199912022Y-134470040D01*
X199769165Y-134470040D01*
X199673927Y-134517659D01*
X199626308Y-134565278D01*
X199578689Y-134660516D01*
X199578689Y-135041469D01*
X199769165Y-133612897D02*
X199102499Y-133612897D01*
X200150118Y-133850993D02*
X199435832Y-134089088D01*
X199435832Y-133470040D01*
X199102497Y-87384319D02*
X200102497Y-87384319D01*
X200102497Y-87003367D01*
X200054878Y-86908129D01*
X200007258Y-86860510D01*
X199912020Y-86812891D01*
X199769163Y-86812891D01*
X199673925Y-86860510D01*
X199626306Y-86908129D01*
X199578687Y-87003367D01*
X199578687Y-87384319D01*
X199102497Y-86384319D02*
X200102497Y-86384319D01*
X200102497Y-85717653D02*
X200102497Y-85527176D01*
X200054878Y-85431938D01*
X199959639Y-85336700D01*
X199769163Y-85289081D01*
X199435830Y-85289081D01*
X199245354Y-85336700D01*
X199150116Y-85431938D01*
X199102497Y-85527176D01*
X199102497Y-85717653D01*
X199150116Y-85812891D01*
X199245354Y-85908129D01*
X199435830Y-85955748D01*
X199769163Y-85955748D01*
X199959639Y-85908129D01*
X200054878Y-85812891D01*
X200102497Y-85717653D01*
X199102497Y-84336700D02*
X199102497Y-84908129D01*
X199102497Y-84622415D02*
X200102497Y-84622415D01*
X199959639Y-84717653D01*
X199864401Y-84812891D01*
X199816782Y-84908129D01*
X200102497Y-84003367D02*
X200102497Y-83336700D01*
X199102497Y-83765272D01*
X199197735Y-82955748D02*
X199150116Y-82908129D01*
X199102497Y-82955748D01*
X199150116Y-83003367D01*
X199197735Y-82955748D01*
X199102497Y-82955748D01*
X199721544Y-82955748D02*
X199673925Y-82908129D01*
X199626306Y-82955748D01*
X199673925Y-83003367D01*
X199721544Y-82955748D01*
X199626306Y-82955748D01*
X199102497Y-82479557D02*
X200102497Y-82479557D01*
X199388211Y-82146224D01*
X200102497Y-81812891D01*
X199102497Y-81812891D01*
X199102497Y-80812891D02*
X199102497Y-81384319D01*
X199102497Y-81098605D02*
X200102497Y-81098605D01*
X199959639Y-81193843D01*
X199864401Y-81289081D01*
X199816782Y-81384319D01*
X168622499Y-87122422D02*
X169622499Y-87122422D01*
X169622499Y-86741469D01*
X169574880Y-86646231D01*
X169527260Y-86598612D01*
X169432022Y-86550993D01*
X169289165Y-86550993D01*
X169193927Y-86598612D01*
X169146308Y-86646231D01*
X169098689Y-86741469D01*
X169098689Y-87122422D01*
X168622499Y-86122422D02*
X169622499Y-86122422D01*
X169622499Y-85455755D02*
X169622499Y-85265279D01*
X169574880Y-85170041D01*
X169479641Y-85074803D01*
X169289165Y-85027184D01*
X168955832Y-85027184D01*
X168765356Y-85074803D01*
X168670118Y-85170041D01*
X168622499Y-85265279D01*
X168622499Y-85455755D01*
X168670118Y-85550993D01*
X168765356Y-85646231D01*
X168955832Y-85693850D01*
X169289165Y-85693850D01*
X169479641Y-85646231D01*
X169574880Y-85550993D01*
X169622499Y-85455755D01*
X168622499Y-84074803D02*
X168622499Y-84646231D01*
X168622499Y-84360517D02*
X169622499Y-84360517D01*
X169479641Y-84455755D01*
X169384403Y-84550993D01*
X169336784Y-84646231D01*
X169622499Y-83741469D02*
X169622499Y-83122422D01*
X169241546Y-83455755D01*
X169241546Y-83312898D01*
X169193927Y-83217660D01*
X169146308Y-83170041D01*
X169051070Y-83122422D01*
X168812975Y-83122422D01*
X168717737Y-83170041D01*
X168670118Y-83217660D01*
X168622499Y-83312898D01*
X168622499Y-83598612D01*
X168670118Y-83693850D01*
X168717737Y-83741469D01*
X168717737Y-82693850D02*
X168670118Y-82646231D01*
X168622499Y-82693850D01*
X168670118Y-82741469D01*
X168717737Y-82693850D01*
X168622499Y-82693850D01*
X169241546Y-82693850D02*
X169193927Y-82646231D01*
X169146308Y-82693850D01*
X169193927Y-82741469D01*
X169241546Y-82693850D01*
X169146308Y-82693850D01*
X168622499Y-81741469D02*
X168622499Y-82217660D01*
X169622499Y-82217660D01*
X168622499Y-80884326D02*
X168622499Y-81455755D01*
X168622499Y-81170041D02*
X169622499Y-81170041D01*
X169479641Y-81265279D01*
X169384403Y-81360517D01*
X169336784Y-81455755D01*
X210214880Y-148265278D02*
X210262499Y-148360516D01*
X210262499Y-148503374D01*
X210214880Y-148646231D01*
X210119641Y-148741469D01*
X210024403Y-148789088D01*
X209833927Y-148836707D01*
X209691070Y-148836707D01*
X209500594Y-148789088D01*
X209405356Y-148741469D01*
X209310118Y-148646231D01*
X209262499Y-148503374D01*
X209262499Y-148408135D01*
X209310118Y-148265278D01*
X209357737Y-148217659D01*
X209691070Y-148217659D01*
X209691070Y-148408135D01*
X209262499Y-147789088D02*
X210262499Y-147789088D01*
X209262499Y-147217659D01*
X210262499Y-147217659D01*
X209262499Y-146741469D02*
X210262499Y-146741469D01*
X210262499Y-146503374D01*
X210214880Y-146360516D01*
X210119641Y-146265278D01*
X210024403Y-146217659D01*
X209833927Y-146170040D01*
X209691070Y-146170040D01*
X209500594Y-146217659D01*
X209405356Y-146265278D01*
X209310118Y-146360516D01*
X209262499Y-146503374D01*
X209262499Y-146741469D01*
X187354880Y-135517659D02*
X187402499Y-135612897D01*
X187402499Y-135755754D01*
X187354880Y-135898612D01*
X187259641Y-135993850D01*
X187164403Y-136041469D01*
X186973927Y-136089088D01*
X186831070Y-136089088D01*
X186640594Y-136041469D01*
X186545356Y-135993850D01*
X186450118Y-135898612D01*
X186402499Y-135755754D01*
X186402499Y-135660516D01*
X186450118Y-135517659D01*
X186497737Y-135470040D01*
X186831070Y-135470040D01*
X186831070Y-135660516D01*
X186402499Y-135041469D02*
X187402499Y-135041469D01*
X187402499Y-134660516D01*
X187354880Y-134565278D01*
X187307260Y-134517659D01*
X187212022Y-134470040D01*
X187069165Y-134470040D01*
X186973927Y-134517659D01*
X186926308Y-134565278D01*
X186878689Y-134660516D01*
X186878689Y-135041469D01*
X186402499Y-133993850D02*
X186402499Y-133803374D01*
X186450118Y-133708135D01*
X186497737Y-133660516D01*
X186640594Y-133565278D01*
X186831070Y-133517659D01*
X187212022Y-133517659D01*
X187307260Y-133565278D01*
X187354880Y-133612897D01*
X187402499Y-133708135D01*
X187402499Y-133898612D01*
X187354880Y-133993850D01*
X187307260Y-134041469D01*
X187212022Y-134089088D01*
X186973927Y-134089088D01*
X186878689Y-134041469D01*
X186831070Y-133993850D01*
X186783451Y-133898612D01*
X186783451Y-133708135D01*
X186831070Y-133612897D01*
X186878689Y-133565278D01*
X186973927Y-133517659D01*
X102743451Y-97238612D02*
X102267261Y-97238612D01*
X102838689Y-97524326D02*
X102505356Y-96524326D01*
X102172023Y-97524326D01*
X101838689Y-97524326D02*
X101838689Y-96524326D01*
X101600594Y-96524326D01*
X101457737Y-96571946D01*
X101362499Y-96667184D01*
X101314880Y-96762422D01*
X101267261Y-96952898D01*
X101267261Y-97095755D01*
X101314880Y-97286231D01*
X101362499Y-97381469D01*
X101457737Y-97476707D01*
X101600594Y-97524326D01*
X101838689Y-97524326D01*
X100267261Y-97429088D02*
X100314880Y-97476707D01*
X100457737Y-97524326D01*
X100552975Y-97524326D01*
X100695832Y-97476707D01*
X100791070Y-97381469D01*
X100838689Y-97286231D01*
X100886308Y-97095755D01*
X100886308Y-96952898D01*
X100838689Y-96762422D01*
X100791070Y-96667184D01*
X100695832Y-96571946D01*
X100552975Y-96524326D01*
X100457737Y-96524326D01*
X100314880Y-96571946D01*
X100267261Y-96619565D01*
X99648213Y-96524326D02*
X99552975Y-96524326D01*
X99457737Y-96571946D01*
X99410118Y-96619565D01*
X99362499Y-96714803D01*
X99314880Y-96905279D01*
X99314880Y-97143374D01*
X99362499Y-97333850D01*
X99410118Y-97429088D01*
X99457737Y-97476707D01*
X99552975Y-97524326D01*
X99648213Y-97524326D01*
X99743451Y-97476707D01*
X99791070Y-97429088D01*
X99838689Y-97333850D01*
X99886308Y-97143374D01*
X99886308Y-96905279D01*
X99838689Y-96714803D01*
X99791070Y-96619565D01*
X99743451Y-96571946D01*
X99648213Y-96524326D01*
X183862499Y-88122422D02*
X184862499Y-88122422D01*
X184862499Y-87741469D01*
X184814880Y-87646231D01*
X184767260Y-87598612D01*
X184672022Y-87550993D01*
X184529165Y-87550993D01*
X184433927Y-87598612D01*
X184386308Y-87646231D01*
X184338689Y-87741469D01*
X184338689Y-88122422D01*
X183862499Y-87122422D02*
X184862499Y-87122422D01*
X184862499Y-86455755D02*
X184862499Y-86265279D01*
X184814880Y-86170041D01*
X184719641Y-86074803D01*
X184529165Y-86027184D01*
X184195832Y-86027184D01*
X184005356Y-86074803D01*
X183910118Y-86170041D01*
X183862499Y-86265279D01*
X183862499Y-86455755D01*
X183910118Y-86550993D01*
X184005356Y-86646231D01*
X184195832Y-86693850D01*
X184529165Y-86693850D01*
X184719641Y-86646231D01*
X184814880Y-86550993D01*
X184862499Y-86455755D01*
X184862499Y-85408136D02*
X184862499Y-85312898D01*
X184814880Y-85217660D01*
X184767260Y-85170041D01*
X184672022Y-85122422D01*
X184481546Y-85074803D01*
X184243451Y-85074803D01*
X184052975Y-85122422D01*
X183957737Y-85170041D01*
X183910118Y-85217660D01*
X183862499Y-85312898D01*
X183862499Y-85408136D01*
X183910118Y-85503374D01*
X183957737Y-85550993D01*
X184052975Y-85598612D01*
X184243451Y-85646231D01*
X184481546Y-85646231D01*
X184672022Y-85598612D01*
X184767260Y-85550993D01*
X184814880Y-85503374D01*
X184862499Y-85408136D01*
X184862499Y-84741469D02*
X184862499Y-84074803D01*
X183862499Y-84503374D01*
X183957737Y-83693850D02*
X183910118Y-83646231D01*
X183862499Y-83693850D01*
X183910118Y-83741469D01*
X183957737Y-83693850D01*
X183862499Y-83693850D01*
X184481546Y-83693850D02*
X184433927Y-83646231D01*
X184386308Y-83693850D01*
X184433927Y-83741469D01*
X184481546Y-83693850D01*
X184386308Y-83693850D01*
X184148213Y-83265279D02*
X184148213Y-82789088D01*
X183862499Y-83360517D02*
X184862499Y-83027184D01*
X183862499Y-82693850D01*
X183862499Y-81836707D02*
X183862499Y-82408136D01*
X183862499Y-82122422D02*
X184862499Y-82122422D01*
X184719641Y-82217660D01*
X184624403Y-82312898D01*
X184576784Y-82408136D01*
X184862499Y-80931945D02*
X184862499Y-81408136D01*
X184386308Y-81455755D01*
X184433927Y-81408136D01*
X184481546Y-81312898D01*
X184481546Y-81074803D01*
X184433927Y-80979564D01*
X184386308Y-80931945D01*
X184291070Y-80884326D01*
X184052975Y-80884326D01*
X183957737Y-80931945D01*
X183910118Y-80979564D01*
X183862499Y-81074803D01*
X183862499Y-81312898D01*
X183910118Y-81408136D01*
X183957737Y-81455755D01*
X176242499Y-87074802D02*
X177242499Y-87074802D01*
X177242499Y-86693850D01*
X177194880Y-86598612D01*
X177147260Y-86550993D01*
X177052022Y-86503374D01*
X176909165Y-86503374D01*
X176813927Y-86550993D01*
X176766308Y-86598612D01*
X176718689Y-86693850D01*
X176718689Y-87074802D01*
X176242499Y-86074802D02*
X177242499Y-86074802D01*
X177242499Y-85408135D02*
X177242499Y-85217659D01*
X177194880Y-85122421D01*
X177099641Y-85027183D01*
X176909165Y-84979564D01*
X176575832Y-84979564D01*
X176385356Y-85027183D01*
X176290118Y-85122421D01*
X176242499Y-85217659D01*
X176242499Y-85408135D01*
X176290118Y-85503374D01*
X176385356Y-85598612D01*
X176575832Y-85646231D01*
X176909165Y-85646231D01*
X177099641Y-85598612D01*
X177194880Y-85503374D01*
X177242499Y-85408135D01*
X176242499Y-84027183D02*
X176242499Y-84598612D01*
X176242499Y-84312897D02*
X177242499Y-84312897D01*
X177099641Y-84408135D01*
X177004403Y-84503374D01*
X176956784Y-84598612D01*
X177242499Y-83408135D02*
X177242499Y-83312897D01*
X177194880Y-83217659D01*
X177147260Y-83170040D01*
X177052022Y-83122421D01*
X176861546Y-83074802D01*
X176623451Y-83074802D01*
X176432975Y-83122421D01*
X176337737Y-83170040D01*
X176290118Y-83217659D01*
X176242499Y-83312897D01*
X176242499Y-83408135D01*
X176290118Y-83503374D01*
X176337737Y-83550993D01*
X176432975Y-83598612D01*
X176623451Y-83646231D01*
X176861546Y-83646231D01*
X177052022Y-83598612D01*
X177147260Y-83550993D01*
X177194880Y-83503374D01*
X177242499Y-83408135D01*
X176337737Y-82646231D02*
X176290118Y-82598612D01*
X176242499Y-82646231D01*
X176290118Y-82693850D01*
X176337737Y-82646231D01*
X176242499Y-82646231D01*
X176861546Y-82646231D02*
X176813927Y-82598612D01*
X176766308Y-82646231D01*
X176813927Y-82693850D01*
X176861546Y-82646231D01*
X176766308Y-82646231D01*
X177242499Y-81884326D02*
X176528213Y-81884326D01*
X176385356Y-81931945D01*
X176290118Y-82027183D01*
X176242499Y-82170040D01*
X176242499Y-82265278D01*
X177242499Y-81503374D02*
X177242499Y-80884326D01*
X176861546Y-81217659D01*
X176861546Y-81074802D01*
X176813927Y-80979564D01*
X176766308Y-80931945D01*
X176671070Y-80884326D01*
X176432975Y-80884326D01*
X176337737Y-80931945D01*
X176290118Y-80979564D01*
X176242499Y-81074802D01*
X176242499Y-81360516D01*
X176290118Y-81455754D01*
X176337737Y-81503374D01*
X171162499Y-87312898D02*
X172162499Y-87312898D01*
X172162499Y-86931945D01*
X172114880Y-86836707D01*
X172067260Y-86789088D01*
X171972022Y-86741469D01*
X171829165Y-86741469D01*
X171733927Y-86789088D01*
X171686308Y-86836707D01*
X171638689Y-86931945D01*
X171638689Y-87312898D01*
X171162499Y-86312898D02*
X172162499Y-86312898D01*
X172162499Y-85646231D02*
X172162499Y-85455755D01*
X172114880Y-85360517D01*
X172019641Y-85265279D01*
X171829165Y-85217660D01*
X171495832Y-85217660D01*
X171305356Y-85265279D01*
X171210118Y-85360517D01*
X171162499Y-85455755D01*
X171162499Y-85646231D01*
X171210118Y-85741469D01*
X171305356Y-85836707D01*
X171495832Y-85884326D01*
X171829165Y-85884326D01*
X172019641Y-85836707D01*
X172114880Y-85741469D01*
X172162499Y-85646231D01*
X171162499Y-84265279D02*
X171162499Y-84836707D01*
X171162499Y-84550993D02*
X172162499Y-84550993D01*
X172019641Y-84646231D01*
X171924403Y-84741469D01*
X171876784Y-84836707D01*
X172067260Y-83884326D02*
X172114880Y-83836707D01*
X172162499Y-83741469D01*
X172162499Y-83503374D01*
X172114880Y-83408136D01*
X172067260Y-83360517D01*
X171972022Y-83312898D01*
X171876784Y-83312898D01*
X171733927Y-83360517D01*
X171162499Y-83931945D01*
X171162499Y-83312898D01*
X171257737Y-82884326D02*
X171210118Y-82836707D01*
X171162499Y-82884326D01*
X171210118Y-82931945D01*
X171257737Y-82884326D01*
X171162499Y-82884326D01*
X171781546Y-82884326D02*
X171733927Y-82836707D01*
X171686308Y-82884326D01*
X171733927Y-82931945D01*
X171781546Y-82884326D01*
X171686308Y-82884326D01*
X171162499Y-82408136D02*
X172162499Y-82408136D01*
X171162499Y-81836707D02*
X171733927Y-82265279D01*
X172162499Y-81836707D02*
X171591070Y-82408136D01*
X172067260Y-81455755D02*
X172114880Y-81408136D01*
X172162499Y-81312898D01*
X172162499Y-81074802D01*
X172114880Y-80979564D01*
X172067260Y-80931945D01*
X171972022Y-80884326D01*
X171876784Y-80884326D01*
X171733927Y-80931945D01*
X171162499Y-81503374D01*
X171162499Y-80884326D01*
X188181664Y-106359190D02*
X188181664Y-106835380D01*
X188514997Y-105835380D02*
X188181664Y-106359190D01*
X187848331Y-105835380D01*
X186991188Y-106835380D02*
X187562616Y-106835380D01*
X187276902Y-106835380D02*
X187276902Y-105835380D01*
X187372140Y-105978238D01*
X187467378Y-106073476D01*
X187562616Y-106121095D01*
X188181664Y-107969190D02*
X188181664Y-108445380D01*
X188514997Y-107445380D02*
X188181664Y-107969190D01*
X187848331Y-107445380D01*
X187324521Y-107445380D02*
X187229283Y-107445380D01*
X187134045Y-107493000D01*
X187086426Y-107540619D01*
X187038807Y-107635857D01*
X186991188Y-107826333D01*
X186991188Y-108064428D01*
X187038807Y-108254904D01*
X187086426Y-108350142D01*
X187134045Y-108397761D01*
X187229283Y-108445380D01*
X187324521Y-108445380D01*
X187419759Y-108397761D01*
X187467378Y-108350142D01*
X187514997Y-108254904D01*
X187562616Y-108064428D01*
X187562616Y-107826333D01*
X187514997Y-107635857D01*
X187467378Y-107540619D01*
X187419759Y-107493000D01*
X187324521Y-107445380D01*
X164542499Y-83789088D02*
X164542499Y-83170040D01*
X164161546Y-83503374D01*
X164161546Y-83360517D01*
X164113927Y-83265278D01*
X164066308Y-83217659D01*
X163971070Y-83170040D01*
X163732975Y-83170040D01*
X163637737Y-83217659D01*
X163590118Y-83265278D01*
X163542499Y-83360517D01*
X163542499Y-83646231D01*
X163590118Y-83741469D01*
X163637737Y-83789088D01*
X163637737Y-82741469D02*
X163590118Y-82693850D01*
X163542499Y-82741469D01*
X163590118Y-82789088D01*
X163637737Y-82741469D01*
X163542499Y-82741469D01*
X164542499Y-82360517D02*
X164542499Y-81741469D01*
X164161546Y-82074802D01*
X164161546Y-81931945D01*
X164113927Y-81836707D01*
X164066308Y-81789088D01*
X163971070Y-81741469D01*
X163732975Y-81741469D01*
X163637737Y-81789088D01*
X163590118Y-81836707D01*
X163542499Y-81931945D01*
X163542499Y-82217659D01*
X163590118Y-82312898D01*
X163637737Y-82360517D01*
X164542499Y-81455755D02*
X163542499Y-81122421D01*
X164542499Y-80789088D01*
X194022497Y-87312891D02*
X195022497Y-87312891D01*
X195022497Y-86931938D01*
X194974878Y-86836700D01*
X194927258Y-86789081D01*
X194832020Y-86741462D01*
X194689163Y-86741462D01*
X194593925Y-86789081D01*
X194546306Y-86836700D01*
X194498687Y-86931938D01*
X194498687Y-87312891D01*
X194022497Y-86312891D02*
X195022497Y-86312891D01*
X195022497Y-85646224D02*
X195022497Y-85455748D01*
X194974878Y-85360510D01*
X194879639Y-85265272D01*
X194689163Y-85217653D01*
X194355830Y-85217653D01*
X194165354Y-85265272D01*
X194070116Y-85360510D01*
X194022497Y-85455748D01*
X194022497Y-85646224D01*
X194070116Y-85741462D01*
X194165354Y-85836700D01*
X194355830Y-85884319D01*
X194689163Y-85884319D01*
X194879639Y-85836700D01*
X194974878Y-85741462D01*
X195022497Y-85646224D01*
X194022497Y-84265272D02*
X194022497Y-84836700D01*
X194022497Y-84550986D02*
X195022497Y-84550986D01*
X194879639Y-84646224D01*
X194784401Y-84741462D01*
X194736782Y-84836700D01*
X194022497Y-83789081D02*
X194022497Y-83598605D01*
X194070116Y-83503367D01*
X194117735Y-83455748D01*
X194260592Y-83360510D01*
X194451068Y-83312891D01*
X194832020Y-83312891D01*
X194927258Y-83360510D01*
X194974878Y-83408129D01*
X195022497Y-83503367D01*
X195022497Y-83693843D01*
X194974878Y-83789081D01*
X194927258Y-83836700D01*
X194832020Y-83884319D01*
X194593925Y-83884319D01*
X194498687Y-83836700D01*
X194451068Y-83789081D01*
X194403449Y-83693843D01*
X194403449Y-83503367D01*
X194451068Y-83408129D01*
X194498687Y-83360510D01*
X194593925Y-83312891D01*
X194117735Y-82884319D02*
X194070116Y-82836700D01*
X194022497Y-82884319D01*
X194070116Y-82931938D01*
X194117735Y-82884319D01*
X194022497Y-82884319D01*
X194641544Y-82884319D02*
X194593925Y-82836700D01*
X194546306Y-82884319D01*
X194593925Y-82931938D01*
X194641544Y-82884319D01*
X194546306Y-82884319D01*
X194022497Y-82408129D02*
X195022497Y-82408129D01*
X195022497Y-82027176D01*
X194974878Y-81931938D01*
X194927258Y-81884319D01*
X194832020Y-81836700D01*
X194689163Y-81836700D01*
X194593925Y-81884319D01*
X194546306Y-81931938D01*
X194498687Y-82027176D01*
X194498687Y-82408129D01*
X195022497Y-81503367D02*
X195022497Y-80884319D01*
X194641544Y-81217653D01*
X194641544Y-81074795D01*
X194593925Y-80979557D01*
X194546306Y-80931938D01*
X194451068Y-80884319D01*
X194212973Y-80884319D01*
X194117735Y-80931938D01*
X194070116Y-80979557D01*
X194022497Y-81074795D01*
X194022497Y-81360510D01*
X194070116Y-81455748D01*
X194117735Y-81503367D01*
M02*
