%TF.GenerationSoftware,KiCad,Pcbnew,(6.0.5)*%
%TF.CreationDate,2022-08-06T22:36:06+10:00*%
%TF.ProjectId,glitcher,676c6974-6368-4657-922e-6b696361645f,rev?*%
%TF.SameCoordinates,Original*%
%TF.FileFunction,Legend,Top*%
%TF.FilePolarity,Positive*%
%FSLAX46Y46*%
G04 Gerber Fmt 4.6, Leading zero omitted, Abs format (unit mm)*
G04 Created by KiCad (PCBNEW (6.0.5)) date 2022-08-06 22:36:06*
%MOMM*%
%LPD*%
G01*
G04 APERTURE LIST*
%ADD10C,0.150000*%
%ADD11C,0.120000*%
%ADD12C,0.127000*%
%ADD13C,0.200000*%
G04 APERTURE END LIST*
D10*
X181660594Y-121201946D02*
X201980594Y-121201946D01*
X201980594Y-121201946D02*
X201980594Y-135171946D01*
X201980594Y-135171946D02*
X181660594Y-135171946D01*
X181660594Y-135171946D02*
X181660594Y-121201946D01*
X181559166Y-86911946D02*
X186639166Y-86911946D01*
X186639166Y-86911946D02*
X186639166Y-97071946D01*
X186639166Y-97071946D02*
X181559166Y-97071946D01*
X181559166Y-97071946D02*
X181559166Y-86911946D01*
X183337261Y-87466946D02*
X183242023Y-87419326D01*
X183099166Y-87419326D01*
X182956308Y-87466946D01*
X182861070Y-87562184D01*
X182813451Y-87657422D01*
X182765832Y-87847898D01*
X182765832Y-87990755D01*
X182813451Y-88181231D01*
X182861070Y-88276469D01*
X182956308Y-88371707D01*
X183099166Y-88419326D01*
X183194404Y-88419326D01*
X183337261Y-88371707D01*
X183384880Y-88324088D01*
X183384880Y-87990755D01*
X183194404Y-87990755D01*
X183813451Y-88419326D02*
X183813451Y-87419326D01*
X184384880Y-88419326D01*
X184384880Y-87419326D01*
X184861070Y-88419326D02*
X184861070Y-87419326D01*
X185099166Y-87419326D01*
X185242023Y-87466946D01*
X185337261Y-87562184D01*
X185384880Y-87657422D01*
X185432499Y-87847898D01*
X185432499Y-87990755D01*
X185384880Y-88181231D01*
X185337261Y-88276469D01*
X185242023Y-88371707D01*
X185099166Y-88419326D01*
X184861070Y-88419326D01*
X182670594Y-89029326D02*
X183289642Y-89029326D01*
X182956308Y-89410279D01*
X183099166Y-89410279D01*
X183194404Y-89457898D01*
X183242023Y-89505517D01*
X183289642Y-89600755D01*
X183289642Y-89838850D01*
X183242023Y-89934088D01*
X183194404Y-89981707D01*
X183099166Y-90029326D01*
X182813451Y-90029326D01*
X182718213Y-89981707D01*
X182670594Y-89934088D01*
X183718213Y-89934088D02*
X183765832Y-89981707D01*
X183718213Y-90029326D01*
X183670594Y-89981707D01*
X183718213Y-89934088D01*
X183718213Y-90029326D01*
X184099166Y-89029326D02*
X184718213Y-89029326D01*
X184384880Y-89410279D01*
X184527737Y-89410279D01*
X184622975Y-89457898D01*
X184670594Y-89505517D01*
X184718213Y-89600755D01*
X184718213Y-89838850D01*
X184670594Y-89934088D01*
X184622975Y-89981707D01*
X184527737Y-90029326D01*
X184242023Y-90029326D01*
X184146785Y-89981707D01*
X184099166Y-89934088D01*
X185051546Y-89362660D02*
X185289642Y-90029326D01*
X185527737Y-89362660D01*
X182718213Y-90734565D02*
X182765832Y-90686946D01*
X182861070Y-90639326D01*
X183099166Y-90639326D01*
X183194404Y-90686946D01*
X183242023Y-90734565D01*
X183289642Y-90829803D01*
X183289642Y-90925041D01*
X183242023Y-91067898D01*
X182670594Y-91639326D01*
X183289642Y-91639326D01*
X183718213Y-91544088D02*
X183765832Y-91591707D01*
X183718213Y-91639326D01*
X183670594Y-91591707D01*
X183718213Y-91544088D01*
X183718213Y-91639326D01*
X184670594Y-90639326D02*
X184194404Y-90639326D01*
X184146785Y-91115517D01*
X184194404Y-91067898D01*
X184289642Y-91020279D01*
X184527737Y-91020279D01*
X184622975Y-91067898D01*
X184670594Y-91115517D01*
X184718213Y-91210755D01*
X184718213Y-91448850D01*
X184670594Y-91544088D01*
X184622975Y-91591707D01*
X184527737Y-91639326D01*
X184289642Y-91639326D01*
X184194404Y-91591707D01*
X184146785Y-91544088D01*
X185051546Y-90972660D02*
X185289642Y-91639326D01*
X185527737Y-90972660D01*
X183289642Y-93249326D02*
X182718213Y-93249326D01*
X183003927Y-93249326D02*
X183003927Y-92249326D01*
X182908689Y-92392184D01*
X182813451Y-92487422D01*
X182718213Y-92535041D01*
X183718213Y-93154088D02*
X183765832Y-93201707D01*
X183718213Y-93249326D01*
X183670594Y-93201707D01*
X183718213Y-93154088D01*
X183718213Y-93249326D01*
X184337261Y-92677898D02*
X184242023Y-92630279D01*
X184194404Y-92582660D01*
X184146785Y-92487422D01*
X184146785Y-92439803D01*
X184194404Y-92344565D01*
X184242023Y-92296946D01*
X184337261Y-92249326D01*
X184527737Y-92249326D01*
X184622975Y-92296946D01*
X184670594Y-92344565D01*
X184718213Y-92439803D01*
X184718213Y-92487422D01*
X184670594Y-92582660D01*
X184622975Y-92630279D01*
X184527737Y-92677898D01*
X184337261Y-92677898D01*
X184242023Y-92725517D01*
X184194404Y-92773136D01*
X184146785Y-92868374D01*
X184146785Y-93058850D01*
X184194404Y-93154088D01*
X184242023Y-93201707D01*
X184337261Y-93249326D01*
X184527737Y-93249326D01*
X184622975Y-93201707D01*
X184670594Y-93154088D01*
X184718213Y-93058850D01*
X184718213Y-92868374D01*
X184670594Y-92773136D01*
X184622975Y-92725517D01*
X184527737Y-92677898D01*
X185051546Y-92582660D02*
X185289642Y-93249326D01*
X185527737Y-92582660D01*
X183289642Y-94859326D02*
X182718213Y-94859326D01*
X183003927Y-94859326D02*
X183003927Y-93859326D01*
X182908689Y-94002184D01*
X182813451Y-94097422D01*
X182718213Y-94145041D01*
X183718213Y-94764088D02*
X183765832Y-94811707D01*
X183718213Y-94859326D01*
X183670594Y-94811707D01*
X183718213Y-94764088D01*
X183718213Y-94859326D01*
X184146785Y-93954565D02*
X184194404Y-93906946D01*
X184289642Y-93859326D01*
X184527737Y-93859326D01*
X184622975Y-93906946D01*
X184670594Y-93954565D01*
X184718213Y-94049803D01*
X184718213Y-94145041D01*
X184670594Y-94287898D01*
X184099166Y-94859326D01*
X184718213Y-94859326D01*
X185051546Y-94192660D02*
X185289642Y-94859326D01*
X185527737Y-94192660D01*
X182456308Y-95469326D02*
X182789642Y-96469326D01*
X183122975Y-95469326D01*
X183408689Y-96183612D02*
X183884880Y-96183612D01*
X183313451Y-96469326D02*
X183646785Y-95469326D01*
X183980118Y-96469326D01*
X184313451Y-96469326D02*
X184313451Y-95469326D01*
X184551546Y-95469326D01*
X184694404Y-95516946D01*
X184789642Y-95612184D01*
X184837261Y-95707422D01*
X184884880Y-95897898D01*
X184884880Y-96040755D01*
X184837261Y-96231231D01*
X184789642Y-96326469D01*
X184694404Y-96421707D01*
X184551546Y-96469326D01*
X184313451Y-96469326D01*
X185599166Y-95469326D02*
X185599166Y-96183612D01*
X185551546Y-96326469D01*
X185456308Y-96421707D01*
X185313451Y-96469326D01*
X185218213Y-96469326D01*
X193551070Y-95719326D02*
X194217736Y-96719326D01*
X194217736Y-95719326D02*
X193551070Y-96719326D01*
X195122498Y-96719326D02*
X194551070Y-96719326D01*
X194836784Y-96719326D02*
X194836784Y-95719326D01*
X194741546Y-95862184D01*
X194646308Y-95957422D01*
X194551070Y-96005041D01*
X193551070Y-97329326D02*
X194217736Y-98329326D01*
X194217736Y-97329326D02*
X193551070Y-98329326D01*
X194789165Y-97329326D02*
X194884403Y-97329326D01*
X194979641Y-97376946D01*
X195027260Y-97424565D01*
X195074879Y-97519803D01*
X195122498Y-97710279D01*
X195122498Y-97948374D01*
X195074879Y-98138850D01*
X195027260Y-98234088D01*
X194979641Y-98281707D01*
X194884403Y-98329326D01*
X194789165Y-98329326D01*
X194693927Y-98281707D01*
X194646308Y-98234088D01*
X194598689Y-98138850D01*
X194551070Y-97948374D01*
X194551070Y-97710279D01*
X194598689Y-97519803D01*
X194646308Y-97424565D01*
X194693927Y-97376946D01*
X194789165Y-97329326D01*
X212862974Y-110644803D02*
X212862974Y-109978136D01*
X213862974Y-110644803D01*
X213862974Y-109978136D01*
X213958213Y-109835279D02*
X213958213Y-109073374D01*
X212862974Y-108644803D02*
X212862974Y-108454326D01*
X212910594Y-108359088D01*
X213005832Y-108263850D01*
X213196308Y-108216231D01*
X213529641Y-108216231D01*
X213720117Y-108263850D01*
X213815355Y-108359088D01*
X213862974Y-108454326D01*
X213862974Y-108644803D01*
X213815355Y-108740041D01*
X213720117Y-108835279D01*
X213529641Y-108882898D01*
X213196308Y-108882898D01*
X213005832Y-108835279D01*
X212910594Y-108740041D01*
X212862974Y-108644803D01*
X212862974Y-107787660D02*
X213672498Y-107787660D01*
X213767736Y-107740041D01*
X213815355Y-107692422D01*
X213862974Y-107597184D01*
X213862974Y-107406707D01*
X213815355Y-107311469D01*
X213767736Y-107263850D01*
X213672498Y-107216231D01*
X212862974Y-107216231D01*
X212862974Y-106882898D02*
X212862974Y-106311469D01*
X213862974Y-106597184D02*
X212862974Y-106597184D01*
X212862984Y-136568614D02*
X212862984Y-135997186D01*
X213862984Y-136282900D02*
X212862984Y-136282900D01*
X213862984Y-135092424D02*
X213386794Y-135425757D01*
X213862984Y-135663852D02*
X212862984Y-135663852D01*
X212862984Y-135282900D01*
X212910604Y-135187662D01*
X212958223Y-135140043D01*
X213053461Y-135092424D01*
X213196318Y-135092424D01*
X213291556Y-135140043D01*
X213339175Y-135187662D01*
X213386794Y-135282900D01*
X213386794Y-135663852D01*
X213862984Y-134663852D02*
X212862984Y-134663852D01*
X212910604Y-133663852D02*
X212862984Y-133759090D01*
X212862984Y-133901948D01*
X212910604Y-134044805D01*
X213005842Y-134140043D01*
X213101080Y-134187662D01*
X213291556Y-134235281D01*
X213434413Y-134235281D01*
X213624889Y-134187662D01*
X213720127Y-134140043D01*
X213815365Y-134044805D01*
X213862984Y-133901948D01*
X213862984Y-133806709D01*
X213815365Y-133663852D01*
X213767746Y-133616233D01*
X213434413Y-133616233D01*
X213434413Y-133806709D01*
X213958223Y-133425757D02*
X213958223Y-132663852D01*
X213862984Y-132425757D02*
X212862984Y-132425757D01*
X213862984Y-131949567D02*
X212862984Y-131949567D01*
X213862984Y-131378138D01*
X212862984Y-131378138D01*
X213386784Y-97611469D02*
X213862974Y-97611469D01*
X212862974Y-97944803D02*
X213386784Y-97611469D01*
X212862974Y-97278136D01*
X212862974Y-95992422D02*
X212862974Y-95801946D01*
X212910594Y-95706707D01*
X213005832Y-95611469D01*
X213196308Y-95563850D01*
X213529641Y-95563850D01*
X213720117Y-95611469D01*
X213815355Y-95706707D01*
X213862974Y-95801946D01*
X213862974Y-95992422D01*
X213815355Y-96087660D01*
X213720117Y-96182898D01*
X213529641Y-96230517D01*
X213196308Y-96230517D01*
X213005832Y-96182898D01*
X212910594Y-96087660D01*
X212862974Y-95992422D01*
X212862974Y-95135279D02*
X213672498Y-95135279D01*
X213767736Y-95087660D01*
X213815355Y-95040041D01*
X213862974Y-94944803D01*
X213862974Y-94754326D01*
X213815355Y-94659088D01*
X213767736Y-94611469D01*
X213672498Y-94563850D01*
X212862974Y-94563850D01*
X212862974Y-94230517D02*
X212862974Y-93659088D01*
X213862974Y-93944803D02*
X212862974Y-93944803D01*
X193782975Y-106403136D02*
X193782975Y-106879326D01*
X193449642Y-105879326D02*
X193782975Y-106403136D01*
X194116308Y-105879326D01*
X194973451Y-106879326D02*
X194402023Y-106879326D01*
X194687737Y-106879326D02*
X194687737Y-105879326D01*
X194592499Y-106022184D01*
X194497261Y-106117422D01*
X194402023Y-106165041D01*
X193782975Y-108013136D02*
X193782975Y-108489326D01*
X193449642Y-107489326D02*
X193782975Y-108013136D01*
X194116308Y-107489326D01*
X194640118Y-107489326D02*
X194735356Y-107489326D01*
X194830594Y-107536946D01*
X194878213Y-107584565D01*
X194925832Y-107679803D01*
X194973451Y-107870279D01*
X194973451Y-108108374D01*
X194925832Y-108298850D01*
X194878213Y-108394088D01*
X194830594Y-108441707D01*
X194735356Y-108489326D01*
X194640118Y-108489326D01*
X194544880Y-108441707D01*
X194497261Y-108394088D01*
X194449642Y-108298850D01*
X194402023Y-108108374D01*
X194402023Y-107870279D01*
X194449642Y-107679803D01*
X194497261Y-107584565D01*
X194544880Y-107536946D01*
X194640118Y-107489326D01*
X212862974Y-85244803D02*
X213862974Y-84578136D01*
X212862974Y-84578136D02*
X213862974Y-85244803D01*
X212862974Y-83244803D02*
X212862974Y-83054326D01*
X212910594Y-82959088D01*
X213005832Y-82863850D01*
X213196308Y-82816231D01*
X213529641Y-82816231D01*
X213720117Y-82863850D01*
X213815355Y-82959088D01*
X213862974Y-83054326D01*
X213862974Y-83244803D01*
X213815355Y-83340041D01*
X213720117Y-83435279D01*
X213529641Y-83482898D01*
X213196308Y-83482898D01*
X213005832Y-83435279D01*
X212910594Y-83340041D01*
X212862974Y-83244803D01*
X212862974Y-82387660D02*
X213672498Y-82387660D01*
X213767736Y-82340041D01*
X213815355Y-82292422D01*
X213862974Y-82197184D01*
X213862974Y-82006707D01*
X213815355Y-81911469D01*
X213767736Y-81863850D01*
X213672498Y-81816231D01*
X212862974Y-81816231D01*
X212862974Y-81482898D02*
X212862974Y-80911469D01*
X213862974Y-81197184D02*
X212862974Y-81197184D01*
X212910594Y-119344326D02*
X212862974Y-119439565D01*
X212862974Y-119582422D01*
X212910594Y-119725279D01*
X213005832Y-119820517D01*
X213101070Y-119868136D01*
X213291546Y-119915755D01*
X213434403Y-119915755D01*
X213624879Y-119868136D01*
X213720117Y-119820517D01*
X213815355Y-119725279D01*
X213862974Y-119582422D01*
X213862974Y-119487184D01*
X213815355Y-119344326D01*
X213767736Y-119296707D01*
X213434403Y-119296707D01*
X213434403Y-119487184D01*
X213862974Y-118391946D02*
X213862974Y-118868136D01*
X212862974Y-118868136D01*
X213958213Y-118296707D02*
X213958213Y-117534803D01*
X212862974Y-117106231D02*
X212862974Y-116915755D01*
X212910594Y-116820517D01*
X213005832Y-116725279D01*
X213196308Y-116677660D01*
X213529641Y-116677660D01*
X213720117Y-116725279D01*
X213815355Y-116820517D01*
X213862974Y-116915755D01*
X213862974Y-117106231D01*
X213815355Y-117201469D01*
X213720117Y-117296707D01*
X213529641Y-117344326D01*
X213196308Y-117344326D01*
X213005832Y-117296707D01*
X212910594Y-117201469D01*
X212862974Y-117106231D01*
X212862974Y-116249088D02*
X213672498Y-116249088D01*
X213767736Y-116201469D01*
X213815355Y-116153850D01*
X213862974Y-116058612D01*
X213862974Y-115868136D01*
X213815355Y-115772898D01*
X213767736Y-115725279D01*
X213672498Y-115677660D01*
X212862974Y-115677660D01*
X212862974Y-115344326D02*
X212862974Y-114772898D01*
X213862974Y-115058612D02*
X212862974Y-115058612D01*
X193449642Y-116039326D02*
X194116308Y-116039326D01*
X193449642Y-117039326D01*
X194116308Y-117039326D01*
X195021070Y-117039326D02*
X194449642Y-117039326D01*
X194735356Y-117039326D02*
X194735356Y-116039326D01*
X194640118Y-116182184D01*
X194544880Y-116277422D01*
X194449642Y-116325041D01*
X193449642Y-117649326D02*
X194116308Y-117649326D01*
X193449642Y-118649326D01*
X194116308Y-118649326D01*
X194687737Y-117649326D02*
X194782975Y-117649326D01*
X194878213Y-117696946D01*
X194925832Y-117744565D01*
X194973451Y-117839803D01*
X195021070Y-118030279D01*
X195021070Y-118268374D01*
X194973451Y-118458850D01*
X194925832Y-118554088D01*
X194878213Y-118601707D01*
X194782975Y-118649326D01*
X194687737Y-118649326D01*
X194592499Y-118601707D01*
X194544880Y-118554088D01*
X194497261Y-118458850D01*
X194449642Y-118268374D01*
X194449642Y-118030279D01*
X194497261Y-117839803D01*
X194544880Y-117744565D01*
X194592499Y-117696946D01*
X194687737Y-117649326D01*
%TO.C,J_HVPULSE1*%
X144780000Y-73112380D02*
X144780000Y-73350476D01*
X144541904Y-73255238D02*
X144780000Y-73350476D01*
X145018095Y-73255238D01*
X144637142Y-73540952D02*
X144780000Y-73350476D01*
X144922857Y-73540952D01*
%TO.C,SW3_VADJ_OUT1*%
X141249660Y-126751846D02*
X141487756Y-126751846D01*
X141392518Y-126989941D02*
X141487756Y-126751846D01*
X141392518Y-126513750D01*
X141678232Y-126894703D02*
X141487756Y-126751846D01*
X141678232Y-126608988D01*
X141249660Y-126751846D02*
X141487756Y-126751846D01*
X141392518Y-126989941D02*
X141487756Y-126751846D01*
X141392518Y-126513750D01*
X141678232Y-126894703D02*
X141487756Y-126751846D01*
X141678232Y-126608988D01*
%TO.C,SW1_1V8_OUT1*%
X141249660Y-106431846D02*
X141487756Y-106431846D01*
X141392518Y-106669941D02*
X141487756Y-106431846D01*
X141392518Y-106193750D01*
X141678232Y-106574703D02*
X141487756Y-106431846D01*
X141678232Y-106288988D01*
X141249660Y-106431846D02*
X141487756Y-106431846D01*
X141392518Y-106669941D02*
X141487756Y-106431846D01*
X141392518Y-106193750D01*
X141678232Y-106574703D02*
X141487756Y-106431846D01*
X141678232Y-106288988D01*
%TO.C,SW5_2V5_OUT1*%
X141249660Y-96271846D02*
X141487756Y-96271846D01*
X141392518Y-96509941D02*
X141487756Y-96271846D01*
X141392518Y-96033750D01*
X141678232Y-96414703D02*
X141487756Y-96271846D01*
X141678232Y-96128988D01*
X141249660Y-96271846D02*
X141487756Y-96271846D01*
X141392518Y-96509941D02*
X141487756Y-96271846D01*
X141392518Y-96033750D01*
X141678232Y-96414703D02*
X141487756Y-96271846D01*
X141678232Y-96128988D01*
%TO.C,J_TRIG2*%
X154940000Y-72990380D02*
X154940000Y-73228476D01*
X154701904Y-73133238D02*
X154940000Y-73228476D01*
X155178095Y-73133238D01*
X154797142Y-73418952D02*
X154940000Y-73228476D01*
X155082857Y-73418952D01*
%TO.C,SW4_3V3_OUT1*%
X141249660Y-86111846D02*
X141487756Y-86111846D01*
X141392518Y-86349941D02*
X141487756Y-86111846D01*
X141392518Y-85873750D01*
X141678232Y-86254703D02*
X141487756Y-86111846D01*
X141678232Y-85968988D01*
%TO.C,SW2_1V2_OUT1*%
X141249660Y-116591846D02*
X141487756Y-116591846D01*
X141392518Y-116829941D02*
X141487756Y-116591846D01*
X141392518Y-116353750D01*
X141678232Y-116734703D02*
X141487756Y-116591846D01*
X141678232Y-116448988D01*
X141249660Y-116591846D02*
X141487756Y-116591846D01*
X141392518Y-116829941D02*
X141487756Y-116591846D01*
X141392518Y-116353750D01*
X141678232Y-116734703D02*
X141487756Y-116591846D01*
X141678232Y-116448988D01*
D11*
%TO.C,J_HVPULSE1*%
X148412200Y-77292200D02*
X148412200Y-76910211D01*
X141147800Y-77292200D02*
X141529789Y-77292200D01*
X148412200Y-70409789D02*
X148412200Y-70027800D01*
X141529789Y-70027800D02*
X141147800Y-70027800D01*
X141147800Y-70027800D02*
X141147800Y-70409789D01*
X148030211Y-77292200D02*
X148412200Y-77292200D01*
X148412200Y-75515189D02*
X148412200Y-71804811D01*
X141147800Y-76910211D02*
X141147800Y-77292200D01*
X142924811Y-77292200D02*
X146635189Y-77292200D01*
X148412200Y-70027800D02*
X148030211Y-70027800D01*
X146635189Y-70027800D02*
X142924811Y-70027800D01*
X141147800Y-71804811D02*
X141147800Y-75515189D01*
%TO.C,U6_VADJ_OUT1*%
X165444880Y-125411946D02*
X171454880Y-125411946D01*
X171454880Y-125411946D02*
X171454880Y-126671946D01*
X167694880Y-132231946D02*
X171454880Y-132231946D01*
X171454880Y-132231946D02*
X171454880Y-130971946D01*
%TO.C,J4*%
X218679880Y-81831946D02*
X218679880Y-86971946D01*
X216019880Y-86971946D02*
X218679880Y-86971946D01*
X216019880Y-79231946D02*
X217349880Y-79231946D01*
X216019880Y-81831946D02*
X218679880Y-81831946D01*
X216019880Y-80561946D02*
X216019880Y-79231946D01*
X216019880Y-81831946D02*
X216019880Y-86971946D01*
%TO.C,J_RIGHTEXP_OUTER1*%
X208914880Y-76691946D02*
X208914880Y-79351946D01*
X210184880Y-76691946D02*
X211514880Y-76691946D01*
X211514880Y-76691946D02*
X211514880Y-78021946D01*
X160594880Y-76691946D02*
X160594880Y-79351946D01*
X208914880Y-76691946D02*
X160594880Y-76691946D01*
X208914880Y-79351946D02*
X160594880Y-79351946D01*
%TO.C,C9*%
X161778613Y-88691946D02*
X162071147Y-88691946D01*
X161778613Y-87671946D02*
X162071147Y-87671946D01*
%TO.C,R2*%
X154050156Y-114104446D02*
X154559604Y-114104446D01*
X154050156Y-113059446D02*
X154559604Y-113059446D01*
%TO.C,C12*%
X177018613Y-105451946D02*
X177311147Y-105451946D01*
X177018613Y-106471946D02*
X177311147Y-106471946D01*
%TO.C,C18*%
X177018613Y-119171946D02*
X177311147Y-119171946D01*
X177018613Y-118151946D02*
X177311147Y-118151946D01*
%TO.C,D4*%
X155104880Y-84906946D02*
X152644880Y-84906946D01*
X152644880Y-86376946D02*
X155104880Y-86376946D01*
X152644880Y-84906946D02*
X152644880Y-86376946D01*
%TO.C,J_LEFTEXP1*%
X208914880Y-142731946D02*
X208914880Y-145391946D01*
X208914880Y-142731946D02*
X160594880Y-142731946D01*
X208914880Y-145391946D02*
X160594880Y-145391946D01*
X210184880Y-142731946D02*
X211514880Y-142731946D01*
X211514880Y-142731946D02*
X211514880Y-144061946D01*
X160594880Y-142731946D02*
X160594880Y-145391946D01*
%TO.C,SW3_VADJ_OUT1*%
X143255240Y-122116346D02*
X142062080Y-122116346D01*
X151307680Y-125367546D02*
X151307680Y-122116346D01*
X145114520Y-125367546D02*
X145755240Y-125367546D01*
X145755240Y-122116346D02*
X145114520Y-122116346D01*
X150114520Y-125367546D02*
X151307680Y-125367546D01*
X147614520Y-125367546D02*
X148255240Y-125367546D01*
X142062080Y-122116346D02*
X142062080Y-125367546D01*
X142062080Y-125367546D02*
X143255240Y-125367546D01*
X151307680Y-122116346D02*
X150114520Y-122116346D01*
X148255240Y-122116346D02*
X147614520Y-122116346D01*
%TO.C,C8*%
X139574880Y-141375679D02*
X139574880Y-141668213D01*
X138554880Y-141375679D02*
X138554880Y-141668213D01*
%TO.C,C15*%
X177018613Y-87821946D02*
X177311147Y-87821946D01*
X177018613Y-88841946D02*
X177311147Y-88841946D01*
%TO.C,C16*%
X177018613Y-98851946D02*
X177311147Y-98851946D01*
X177018613Y-97831946D02*
X177311147Y-97831946D01*
%TO.C,U4*%
X210184880Y-121181946D02*
X212134880Y-121181946D01*
X210184880Y-121181946D02*
X206734880Y-121181946D01*
X210184880Y-126301946D02*
X212134880Y-126301946D01*
X210184880Y-126301946D02*
X208234880Y-126301946D01*
D12*
%TO.C,RV1*%
X143164880Y-142436946D02*
X143164880Y-144876946D01*
X143164880Y-140606946D02*
X143164880Y-138166946D01*
X150204880Y-143146946D02*
X150204880Y-139896946D01*
X143164880Y-138166946D02*
X147914880Y-138166946D01*
X143164880Y-144876946D02*
X147914880Y-144876946D01*
D13*
X152484880Y-144521946D02*
G75*
G03*
X152484880Y-144521946I-100000J0D01*
G01*
D11*
%TO.C,C28*%
X184638613Y-130601946D02*
X184931147Y-130601946D01*
X184638613Y-129581946D02*
X184931147Y-129581946D01*
%TO.C,R7*%
X156322380Y-141267222D02*
X156322380Y-141776670D01*
X157367380Y-141267222D02*
X157367380Y-141776670D01*
%TO.C,TP4*%
X198934880Y-123741946D02*
G75*
G03*
X198934880Y-123741946I-1450000J0D01*
G01*
%TO.C,J_LEFTEXP_OUTER1*%
X210184880Y-137651946D02*
X211514880Y-137651946D01*
X211514880Y-137651946D02*
X211514880Y-138981946D01*
X208914880Y-137651946D02*
X208914880Y-140311946D01*
X160594880Y-137651946D02*
X160594880Y-140311946D01*
X208914880Y-140311946D02*
X160594880Y-140311946D01*
X208914880Y-137651946D02*
X160594880Y-137651946D01*
%TO.C,U8_2V5_OUT1*%
X165404880Y-94931946D02*
X171414880Y-94931946D01*
X171414880Y-94931946D02*
X171414880Y-96191946D01*
X167654880Y-101751946D02*
X171414880Y-101751946D01*
X171414880Y-101751946D02*
X171414880Y-100491946D01*
%TO.C,R3*%
X154050156Y-124264446D02*
X154559604Y-124264446D01*
X154050156Y-123219446D02*
X154559604Y-123219446D01*
%TO.C,HS2_OUT1*%
X222069880Y-120951946D02*
X222069880Y-121451946D01*
X222569880Y-121201946D02*
X222069880Y-120951946D01*
X222069880Y-121451946D02*
X222569880Y-121201946D01*
%TO.C,R1*%
X154050156Y-102899446D02*
X154559604Y-102899446D01*
X154050156Y-103944446D02*
X154559604Y-103944446D01*
%TO.C,C2*%
X161778613Y-120691946D02*
X162071147Y-120691946D01*
X161778613Y-121711946D02*
X162071147Y-121711946D01*
%TO.C,FB1*%
X136698924Y-73501946D02*
X137519408Y-73501946D01*
X136698924Y-72381946D02*
X137519408Y-72381946D01*
%TO.C,J2*%
X182184880Y-113641946D02*
X184844880Y-113641946D01*
X182184880Y-100881946D02*
X182184880Y-113641946D01*
X182184880Y-99611946D02*
X182184880Y-98281946D01*
X182184880Y-100881946D02*
X184844880Y-100881946D01*
X184844880Y-100881946D02*
X184844880Y-113641946D01*
X182184880Y-98281946D02*
X183514880Y-98281946D01*
%TO.C,C21*%
X177018613Y-95291946D02*
X177311147Y-95291946D01*
X177018613Y-96311946D02*
X177311147Y-96311946D01*
%TO.C,SW1_1V8_OUT1*%
X145114520Y-105047546D02*
X145755240Y-105047546D01*
X143255240Y-101796346D02*
X142062080Y-101796346D01*
X151307680Y-101796346D02*
X150114520Y-101796346D01*
X150114520Y-105047546D02*
X151307680Y-105047546D01*
X147614520Y-105047546D02*
X148255240Y-105047546D01*
X142062080Y-105047546D02*
X143255240Y-105047546D01*
X148255240Y-101796346D02*
X147614520Y-101796346D01*
X142062080Y-101796346D02*
X142062080Y-105047546D01*
X151307680Y-105047546D02*
X151307680Y-101796346D01*
X145755240Y-101796346D02*
X145114520Y-101796346D01*
%TO.C,SMA_Y1*%
X222069880Y-96051946D02*
X222569880Y-95801946D01*
X222069880Y-95551946D02*
X222069880Y-96051946D01*
X222569880Y-95801946D02*
X222069880Y-95551946D01*
%TO.C,U5_1V2_OUT1*%
X165404880Y-115251946D02*
X171414880Y-115251946D01*
X171414880Y-115251946D02*
X171414880Y-116511946D01*
X167654880Y-122071946D02*
X171414880Y-122071946D01*
X171414880Y-122071946D02*
X171414880Y-120811946D01*
%TO.C,PULLUP_MAX4619_EN1*%
X206629604Y-95279446D02*
X206120156Y-95279446D01*
X206629604Y-96324446D02*
X206120156Y-96324446D01*
%TO.C,SW5_2V5_OUT1*%
X150114520Y-94887546D02*
X151307680Y-94887546D01*
X145114520Y-94887546D02*
X145755240Y-94887546D01*
X148255240Y-91636346D02*
X147614520Y-91636346D01*
X151307680Y-94887546D02*
X151307680Y-91636346D01*
X143255240Y-91636346D02*
X142062080Y-91636346D01*
X147614520Y-94887546D02*
X148255240Y-94887546D01*
X142062080Y-91636346D02*
X142062080Y-94887546D01*
X145755240Y-91636346D02*
X145114520Y-91636346D01*
X142062080Y-94887546D02*
X143255240Y-94887546D01*
X151307680Y-91636346D02*
X150114520Y-91636346D01*
%TO.C,TRIG_IN1*%
X222069880Y-133651946D02*
X222069880Y-134151946D01*
X222569880Y-133901946D02*
X222069880Y-133651946D01*
X222069880Y-134151946D02*
X222569880Y-133901946D01*
%TO.C,C13*%
X177018613Y-116631946D02*
X177311147Y-116631946D01*
X177018613Y-115611946D02*
X177311147Y-115611946D01*
%TO.C,J7*%
X216019880Y-105961946D02*
X216019880Y-104631946D01*
X216019880Y-112371946D02*
X218679880Y-112371946D01*
X216019880Y-104631946D02*
X217349880Y-104631946D01*
X216019880Y-107231946D02*
X216019880Y-112371946D01*
X216019880Y-107231946D02*
X218679880Y-107231946D01*
X218679880Y-107231946D02*
X218679880Y-112371946D01*
%TO.C,J_EXT_UART1*%
X125159166Y-73001946D02*
X117479166Y-73001946D01*
X125159166Y-70341946D02*
X117479166Y-70341946D01*
X117479166Y-70341946D02*
X117479166Y-73001946D01*
X125159166Y-70341946D02*
X125159166Y-73001946D01*
X126429166Y-70341946D02*
X127759166Y-70341946D01*
X127759166Y-70341946D02*
X127759166Y-71671946D01*
%TO.C,J_RIGHTEXP1*%
X160594880Y-71611946D02*
X160594880Y-74271946D01*
X208914880Y-71611946D02*
X208914880Y-74271946D01*
X211514880Y-71611946D02*
X211514880Y-72941946D01*
X210184880Y-71611946D02*
X211514880Y-71611946D01*
X208914880Y-74271946D02*
X160594880Y-74271946D01*
X208914880Y-71611946D02*
X160594880Y-71611946D01*
%TO.C,R10*%
X210439604Y-129344446D02*
X209930156Y-129344446D01*
X210439604Y-128299446D02*
X209930156Y-128299446D01*
%TO.C,C25*%
X210694880Y-90575679D02*
X210694880Y-90868213D01*
X209674880Y-90575679D02*
X209674880Y-90868213D01*
%TO.C,R11*%
X101712380Y-140214690D02*
X101712380Y-140689206D01*
X102757380Y-140214690D02*
X102757380Y-140689206D01*
%TO.C,C20*%
X177018613Y-86151946D02*
X177311147Y-86151946D01*
X177018613Y-85131946D02*
X177311147Y-85131946D01*
%TO.C,C3*%
X161778613Y-129331946D02*
X162071147Y-129331946D01*
X161778613Y-128311946D02*
X162071147Y-128311946D01*
%TO.C,JP2*%
X111254880Y-73941946D02*
X108454880Y-73941946D01*
X108454880Y-71941946D02*
X111254880Y-71941946D01*
X108454880Y-73941946D02*
X108454880Y-71941946D01*
X111254880Y-71941946D02*
X111254880Y-73941946D01*
%TO.C,JP1*%
X206104880Y-133201946D02*
X206104880Y-134601946D01*
X204804880Y-132501946D02*
X205404880Y-132501946D01*
X205404880Y-135301946D02*
X204804880Y-135301946D01*
X204104880Y-134601946D02*
X204104880Y-133201946D01*
X204104880Y-134601946D02*
G75*
G03*
X204804880Y-135301946I700000J0D01*
G01*
X205404880Y-135301946D02*
G75*
G03*
X206104880Y-134601946I0J700000D01*
G01*
X204804880Y-132501946D02*
G75*
G03*
X204104880Y-133201946I-1J-699999D01*
G01*
X206104880Y-133201946D02*
G75*
G03*
X205404880Y-132501946I-699999J1D01*
G01*
%TO.C,R5*%
X154050156Y-93784446D02*
X154559604Y-93784446D01*
X154050156Y-92739446D02*
X154559604Y-92739446D01*
%TO.C,R9*%
X209930156Y-130839446D02*
X210439604Y-130839446D01*
X209930156Y-131884446D02*
X210439604Y-131884446D01*
%TO.C,C26*%
X184638613Y-132121946D02*
X184931147Y-132121946D01*
X184638613Y-133141946D02*
X184931147Y-133141946D01*
%TO.C,C14*%
X177018613Y-126791946D02*
X177311147Y-126791946D01*
X177018613Y-125771946D02*
X177311147Y-125771946D01*
%TO.C,J5*%
X216019880Y-94531946D02*
X216019880Y-99671946D01*
X216019880Y-91931946D02*
X217349880Y-91931946D01*
X216019880Y-99671946D02*
X218679880Y-99671946D01*
X216019880Y-94531946D02*
X218679880Y-94531946D01*
X218679880Y-94531946D02*
X218679880Y-99671946D01*
X216019880Y-93261946D02*
X216019880Y-91931946D01*
%TO.C,J6*%
X216019880Y-130031946D02*
X217349880Y-130031946D01*
X216019880Y-132631946D02*
X218679880Y-132631946D01*
X218679880Y-132631946D02*
X218679880Y-137771946D01*
X216019880Y-137771946D02*
X218679880Y-137771946D01*
X216019880Y-131361946D02*
X216019880Y-130031946D01*
X216019880Y-132631946D02*
X216019880Y-137771946D01*
%TO.C,C31*%
X197363613Y-128061946D02*
X197656147Y-128061946D01*
X197363613Y-127041946D02*
X197656147Y-127041946D01*
%TO.C,C11*%
X161778613Y-131871946D02*
X162071147Y-131871946D01*
X161778613Y-130851946D02*
X162071147Y-130851946D01*
%TO.C,JP4*%
X126494880Y-139951946D02*
X126494880Y-140551946D01*
X123694880Y-140551946D02*
X123694880Y-139951946D01*
X124394880Y-139251946D02*
X125794880Y-139251946D01*
X125794880Y-141251946D02*
X124394880Y-141251946D01*
X125794880Y-141251946D02*
G75*
G03*
X126494880Y-140551946I0J700000D01*
G01*
X124394880Y-139251946D02*
G75*
G03*
X123694880Y-139951946I-1J-699999D01*
G01*
X126494880Y-139951946D02*
G75*
G03*
X125794880Y-139251946I-700000J0D01*
G01*
X123694880Y-140551946D02*
G75*
G03*
X124394880Y-141251946I699999J-1D01*
G01*
%TO.C,C30*%
X197363613Y-132121946D02*
X197656147Y-132121946D01*
X197363613Y-133141946D02*
X197656147Y-133141946D01*
%TO.C,U4_1V8_OUT1*%
X171414880Y-111911946D02*
X171414880Y-110651946D01*
X171414880Y-105091946D02*
X171414880Y-106351946D01*
X165404880Y-105091946D02*
X171414880Y-105091946D01*
X167654880Y-111911946D02*
X171414880Y-111911946D01*
%TO.C,C4*%
X161778613Y-91231946D02*
X162071147Y-91231946D01*
X161778613Y-90211946D02*
X162071147Y-90211946D01*
%TO.C,REF\u002A\u002A*%
X211884880Y-134536946D02*
G75*
G03*
X211884880Y-134536946I-1700000J0D01*
G01*
%TO.C,C19*%
X177018613Y-128311946D02*
X177311147Y-128311946D01*
X177018613Y-129331946D02*
X177311147Y-129331946D01*
%TO.C,PINS_Z_INPUT1*%
X192464880Y-119991946D02*
X191134880Y-119991946D01*
X189804880Y-117391946D02*
X189804880Y-114791946D01*
X192464880Y-117391946D02*
X192464880Y-114791946D01*
X192464880Y-117391946D02*
X189804880Y-117391946D01*
X192464880Y-114791946D02*
X189804880Y-114791946D01*
X192464880Y-118661946D02*
X192464880Y-119991946D01*
%TO.C,C1*%
X161778613Y-110531946D02*
X162071147Y-110531946D01*
X161778613Y-111551946D02*
X162071147Y-111551946D01*
%TO.C,D3*%
X152644880Y-127016946D02*
X155104880Y-127016946D01*
X152644880Y-125546946D02*
X152644880Y-127016946D01*
X155104880Y-125546946D02*
X152644880Y-125546946D01*
%TO.C,C6*%
X161778613Y-109011946D02*
X162071147Y-109011946D01*
X161778613Y-107991946D02*
X162071147Y-107991946D01*
%TO.C,C24*%
X213234880Y-90575679D02*
X213234880Y-90868213D01*
X212214880Y-90575679D02*
X212214880Y-90868213D01*
%TO.C,U2*%
X132424880Y-76691946D02*
X120304880Y-76691946D01*
X135424880Y-76631946D02*
X117304880Y-76631946D01*
X120304880Y-137771946D02*
X125364880Y-137771946D01*
X117304880Y-76631946D02*
X117304880Y-137831946D01*
X117304880Y-137831946D02*
X135424880Y-137831946D01*
X127364880Y-137771946D02*
X132424880Y-137771946D01*
X132424880Y-137771946D02*
X132424880Y-76691946D01*
X120304880Y-76691946D02*
X120304880Y-137771946D01*
X135424880Y-137831946D02*
X135424880Y-76631946D01*
X127364880Y-137771946D02*
G75*
G03*
X125364880Y-137771946I-1000000J0D01*
G01*
%TO.C,J_TRIG2*%
X151307800Y-71682811D02*
X151307800Y-75393189D01*
X151307800Y-76788211D02*
X151307800Y-77170200D01*
X158572200Y-69905800D02*
X158190211Y-69905800D01*
X151307800Y-77170200D02*
X151689789Y-77170200D01*
X151689789Y-69905800D02*
X151307800Y-69905800D01*
X158572200Y-75393189D02*
X158572200Y-71682811D01*
X151307800Y-69905800D02*
X151307800Y-70287789D01*
X158572200Y-70287789D02*
X158572200Y-69905800D01*
X158572200Y-77170200D02*
X158572200Y-76788211D01*
X158190211Y-77170200D02*
X158572200Y-77170200D01*
X156795189Y-69905800D02*
X153084811Y-69905800D01*
X153084811Y-77170200D02*
X156795189Y-77170200D01*
%TO.C,D2*%
X155104880Y-115386946D02*
X152644880Y-115386946D01*
X152644880Y-116856946D02*
X155104880Y-116856946D01*
X152644880Y-115386946D02*
X152644880Y-116856946D01*
%TO.C,D1*%
X152644880Y-105226946D02*
X152644880Y-106696946D01*
X155104880Y-105226946D02*
X152644880Y-105226946D01*
X152644880Y-106696946D02*
X155104880Y-106696946D01*
%TO.C,C7*%
X161778613Y-118151946D02*
X162071147Y-118151946D01*
X161778613Y-119171946D02*
X162071147Y-119171946D01*
%TO.C,U3*%
X202844880Y-98271946D02*
X201594880Y-98271946D01*
X206094880Y-98271946D02*
X204844880Y-98271946D01*
X209094880Y-98211946D02*
X198594880Y-98211946D01*
X201594880Y-98271946D02*
X201594880Y-118711946D01*
X209094880Y-118771946D02*
X209094880Y-98211946D01*
X201594880Y-118711946D02*
X206094880Y-118711946D01*
X198594880Y-118771946D02*
X209094880Y-118771946D01*
X198594880Y-98211946D02*
X198594880Y-118771946D01*
X206094880Y-118711946D02*
X206094880Y-98271946D01*
X202844880Y-98271946D02*
G75*
G03*
X204844880Y-98271946I1000000J0D01*
G01*
%TO.C,U1*%
X105814166Y-127616946D02*
X105814166Y-76696946D01*
X108814166Y-76636946D02*
X90694166Y-76636946D01*
X96234166Y-127616946D02*
X108354166Y-127616946D01*
X98754166Y-76696946D02*
X93694166Y-76696946D01*
X90694166Y-76636946D02*
X90694166Y-127676946D01*
X96234166Y-76696946D02*
X96234166Y-127616946D01*
X105814166Y-76696946D02*
X100754166Y-76696946D01*
X111354166Y-127676946D02*
X111354166Y-76636946D01*
X93234166Y-127676946D02*
X111354166Y-127676946D01*
X98754166Y-76696946D02*
G75*
G03*
X100754166Y-76696946I1000000J0D01*
G01*
%TO.C,C5*%
X161778613Y-100371946D02*
X162071147Y-100371946D01*
X161778613Y-101391946D02*
X162071147Y-101391946D01*
%TO.C,J1*%
X83004892Y-130884442D02*
X97704892Y-130884442D01*
X97704892Y-130884442D02*
X97704892Y-133484442D01*
X83004892Y-140084442D02*
X83004892Y-130884442D01*
X91804892Y-140084442D02*
X83004892Y-140084442D01*
X96854892Y-130684442D02*
X97904892Y-130684442D01*
X97704892Y-140084442D02*
X95804892Y-140084442D01*
X97704892Y-137384442D02*
X97704892Y-140084442D01*
X97904892Y-131734442D02*
X97904892Y-130684442D01*
%TO.C,R8*%
X196827104Y-86164446D02*
X196317656Y-86164446D01*
X196827104Y-85119446D02*
X196317656Y-85119446D01*
%TO.C,TP3*%
X186234880Y-123741946D02*
G75*
G03*
X186234880Y-123741946I-1450000J0D01*
G01*
%TO.C,R6*%
X154827380Y-141776670D02*
X154827380Y-141267222D01*
X153782380Y-141776670D02*
X153782380Y-141267222D01*
%TO.C,C22*%
X197704880Y-90868213D02*
X197704880Y-90575679D01*
X196684880Y-90868213D02*
X196684880Y-90575679D01*
%TO.C,U9_3V3ALWAYS1*%
X201404880Y-86271946D02*
X202664880Y-86271946D01*
X201404880Y-92281946D02*
X201404880Y-86271946D01*
X208224880Y-90031946D02*
X208224880Y-86271946D01*
X208224880Y-86271946D02*
X206964880Y-86271946D01*
%TO.C,U7_3V3_OUT1*%
X165404880Y-84771946D02*
X171414880Y-84771946D01*
X167654880Y-91591946D02*
X171414880Y-91591946D01*
X171414880Y-84771946D02*
X171414880Y-86031946D01*
X171414880Y-91591946D02*
X171414880Y-90331946D01*
%TO.C,C29*%
X197363613Y-130601946D02*
X197656147Y-130601946D01*
X197363613Y-129581946D02*
X197656147Y-129581946D01*
%TO.C,C10*%
X161778613Y-98851946D02*
X162071147Y-98851946D01*
X161778613Y-97831946D02*
X162071147Y-97831946D01*
%TO.C,J3*%
X216019880Y-117331946D02*
X217349880Y-117331946D01*
X218679880Y-119931946D02*
X218679880Y-125071946D01*
X216019880Y-119931946D02*
X216019880Y-125071946D01*
X216019880Y-119931946D02*
X218679880Y-119931946D01*
X216019880Y-118661946D02*
X216019880Y-117331946D01*
X216019880Y-125071946D02*
X218679880Y-125071946D01*
%TO.C,SW4_3V3_OUT1*%
X142062080Y-81476346D02*
X142062080Y-84727546D01*
X142062080Y-84727546D02*
X143255240Y-84727546D01*
X150114520Y-84727546D02*
X151307680Y-84727546D01*
X143255240Y-81476346D02*
X142062080Y-81476346D01*
X151307680Y-84727546D02*
X151307680Y-81476346D01*
X151307680Y-81476346D02*
X150114520Y-81476346D01*
X145755240Y-81476346D02*
X145114520Y-81476346D01*
X147614520Y-84727546D02*
X148255240Y-84727546D01*
X145114520Y-84727546D02*
X145755240Y-84727546D01*
X148255240Y-81476346D02*
X147614520Y-81476346D01*
%TO.C,PINS_Y_INPUT1*%
X192464880Y-108501946D02*
X192464880Y-109831946D01*
X192464880Y-104631946D02*
X189804880Y-104631946D01*
X192464880Y-109831946D02*
X191134880Y-109831946D01*
X192464880Y-107231946D02*
X189804880Y-107231946D01*
X189804880Y-107231946D02*
X189804880Y-104631946D01*
X192464880Y-107231946D02*
X192464880Y-104631946D01*
%TO.C,SMA_Z1*%
X222569880Y-108501946D02*
X222069880Y-108251946D01*
X222069880Y-108751946D02*
X222569880Y-108501946D01*
X222069880Y-108251946D02*
X222069880Y-108751946D01*
%TO.C,D7*%
X101499880Y-137926948D02*
X102969880Y-137926948D01*
X102969880Y-137926948D02*
X102969880Y-135641948D01*
X101499880Y-135641948D02*
X101499880Y-137926948D01*
%TO.C,C17*%
X177018613Y-109011946D02*
X177311147Y-109011946D01*
X177018613Y-107991946D02*
X177311147Y-107991946D01*
%TO.C,D5*%
X152644880Y-95066946D02*
X152644880Y-96536946D01*
X152644880Y-96536946D02*
X155104880Y-96536946D01*
X155104880Y-95066946D02*
X152644880Y-95066946D01*
%TO.C,SMA_X1*%
X222069880Y-83351946D02*
X222569880Y-83101946D01*
X222569880Y-83101946D02*
X222069880Y-82851946D01*
X222069880Y-82851946D02*
X222069880Y-83351946D01*
%TO.C,D6*%
X193204880Y-84906946D02*
X190744880Y-84906946D01*
X190744880Y-86376946D02*
X193204880Y-86376946D01*
X190744880Y-84906946D02*
X190744880Y-86376946D01*
%TO.C,SW2_1V2_OUT1*%
X148255240Y-111956346D02*
X147614520Y-111956346D01*
X151307680Y-111956346D02*
X150114520Y-111956346D01*
X145755240Y-111956346D02*
X145114520Y-111956346D01*
X147614520Y-115207546D02*
X148255240Y-115207546D01*
X151307680Y-115207546D02*
X151307680Y-111956346D01*
X142062080Y-115207546D02*
X143255240Y-115207546D01*
X145114520Y-115207546D02*
X145755240Y-115207546D01*
X142062080Y-111956346D02*
X142062080Y-115207546D01*
X143255240Y-111956346D02*
X142062080Y-111956346D01*
X150114520Y-115207546D02*
X151307680Y-115207546D01*
%TO.C,C23*%
X199224880Y-90868213D02*
X199224880Y-90575679D01*
X200244880Y-90868213D02*
X200244880Y-90575679D01*
%TO.C,JP3*%
X131314880Y-71941946D02*
X134114880Y-71941946D01*
X131314880Y-73941946D02*
X131314880Y-71941946D01*
X134114880Y-73941946D02*
X131314880Y-73941946D01*
X134114880Y-71941946D02*
X134114880Y-73941946D01*
%TO.C,R4*%
X154050156Y-83624446D02*
X154559604Y-83624446D01*
X154050156Y-82579446D02*
X154559604Y-82579446D01*
%TO.C,C27*%
X184638613Y-127041946D02*
X184931147Y-127041946D01*
X184638613Y-128061946D02*
X184931147Y-128061946D01*
%TO.C,PINS_X_INPUT1*%
X192464880Y-97071946D02*
X192464880Y-99671946D01*
X189804880Y-99671946D02*
X192464880Y-99671946D01*
X189804880Y-97071946D02*
X192464880Y-97071946D01*
X189804880Y-95801946D02*
X189804880Y-94471946D01*
X189804880Y-97071946D02*
X189804880Y-99671946D01*
X189804880Y-94471946D02*
X191134880Y-94471946D01*
%TD*%
M02*
