M48
; DRILL file {KiCad (6.0.5)} date Sat Aug  6 22:36:08 2022
; FORMAT={-:-/ absolute / inch / decimal}
; #@! TF.CreationDate,2022-08-06T22:36:08+10:00
; #@! TF.GenerationSoftware,Kicad,Pcbnew,(6.0.5)
; #@! TF.FileFunction,Plated,1,6,PTH
FMAT,2
INCH
; #@! TA.AperFunction,Plated,PTH,ViaDrill
T1C0.0157
; #@! TA.AperFunction,Plated,PTH,ComponentDrill
T2C0.0181
; #@! TA.AperFunction,Plated,PTH,ComponentDrill
T3C0.0315
; #@! TA.AperFunction,Plated,PTH,ComponentDrill
T4C0.0394
; #@! TA.AperFunction,Plated,PTH,ComponentDrill
T5C0.0550
; #@! TA.AperFunction,Plated,PTH,ComponentDrill
T6C0.0590
; #@! TA.AperFunction,Plated,PTH,ComponentDrill
T7C0.0787
; #@! TA.AperFunction,Plated,PTH,ComponentDrill
T8C0.0984
%
G90
G05
T1
X4.275Y-5.4717
X4.275Y-5.5717
X5.4275Y-4.3717
X5.575Y-3.2717
X5.575Y-3.4717
X5.575Y-3.6717
X5.575Y-3.8717
X5.575Y-4.0717
X5.575Y-4.2717
X5.575Y-4.4717
X5.575Y-4.6717
X5.575Y-4.8717
X5.575Y-5.0717
X6.375Y-3.3717
X6.375Y-3.7717
X6.375Y-4.1717
X6.375Y-4.5717
X6.375Y-4.9717
X6.475Y-5.3717
X7.075Y-3.4717
X7.075Y-3.8717
X7.075Y-4.2717
X7.075Y-4.6717
X7.0775Y-5.0717
X7.675Y-3.5717
X7.975Y-3.7717
X8.175Y-3.3717
X8.175Y-5.0717
X8.275Y-3.7717
T2
X8.7396Y-3.1342
X8.7396Y-3.4092
X8.7396Y-3.6342
X8.7396Y-3.9092
X8.7396Y-4.1342
X8.7396Y-4.4092
X8.7396Y-4.6342
X8.7396Y-4.9092
X8.7396Y-5.1342
X8.7396Y-5.4092
T3
X3.6273Y-3.0719
X3.6273Y-3.1719
X3.6273Y-3.2719
X3.6273Y-3.3719
X3.6273Y-3.4719
X3.6273Y-3.5719
X3.6273Y-3.6719
X3.6273Y-3.7719
X3.6273Y-3.8719
X3.6273Y-3.9719
X3.6273Y-4.0719
X3.6273Y-4.1719
X3.6273Y-4.2719
X3.6273Y-4.3719
X3.6273Y-4.4719
X3.6273Y-4.5719
X3.6273Y-4.6719
X3.6273Y-4.7719
X3.6273Y-4.8719
X3.6273Y-4.9719
X4.3273Y-3.0719
X4.3273Y-3.1719
X4.3273Y-3.2719
X4.3273Y-3.3719
X4.3273Y-3.4719
X4.3273Y-3.5719
X4.3273Y-3.6719
X4.3273Y-3.7719
X4.3273Y-3.8719
X4.3273Y-3.9719
X4.3273Y-4.0719
X4.3273Y-4.1719
X4.3273Y-4.2719
X4.3273Y-4.3719
X4.3273Y-4.4719
X4.3273Y-4.5719
X4.3273Y-4.6719
X4.3273Y-4.7719
X4.3273Y-4.8719
X4.3273Y-4.9719
X4.675Y-3.0717
X4.675Y-3.1717
X4.675Y-3.2717
X4.675Y-3.3717
X4.675Y-3.4717
X4.675Y-3.5717
X4.675Y-3.6717
X4.675Y-3.7717
X4.675Y-3.8717
X4.675Y-3.9717
X4.675Y-4.0717
X4.675Y-4.1717
X4.675Y-4.2717
X4.675Y-4.3717
X4.675Y-4.4717
X4.675Y-4.5717
X4.675Y-4.6717
X4.675Y-4.7717
X4.675Y-4.8717
X4.675Y-4.9717
X4.675Y-5.0717
X4.675Y-5.1717
X4.675Y-5.2717
X4.675Y-5.3717
X5.275Y-3.0717
X5.275Y-3.1717
X5.275Y-3.2717
X5.275Y-3.3717
X5.275Y-3.4717
X5.275Y-3.5717
X5.275Y-3.6717
X5.275Y-3.7717
X5.275Y-3.8717
X5.275Y-3.9717
X5.275Y-4.0717
X5.275Y-4.1717
X5.275Y-4.2717
X5.275Y-4.3717
X5.275Y-4.4717
X5.275Y-4.5717
X5.275Y-4.6717
X5.275Y-4.7717
X5.275Y-4.8717
X5.275Y-4.9717
X5.275Y-5.0717
X5.275Y-5.1717
X5.275Y-5.2717
X5.275Y-5.3717
X7.8754Y-4.0213
X7.8754Y-4.1213
X7.8754Y-4.2213
X7.8754Y-4.3213
X7.8754Y-4.4213
X7.8754Y-4.5213
X7.8754Y-4.6213
X7.8754Y-3.9213
X8.1754Y-3.9213
X8.1754Y-4.0213
X8.1754Y-4.1213
X8.1754Y-4.2213
X8.1754Y-4.3213
X8.1754Y-4.4213
X8.1754Y-4.5213
X8.1754Y-4.6213
T4
X4.6775Y-2.8217
X4.7775Y-2.8217
X4.8775Y-2.8217
X4.9775Y-2.8217
X6.375Y-2.8717
X6.375Y-3.0717
X6.375Y-5.6717
X6.375Y-5.4717
X6.475Y-2.8717
X6.475Y-3.0717
X6.475Y-5.4717
X6.475Y-5.6717
X6.575Y-2.8717
X6.575Y-3.0717
X6.575Y-5.4717
X6.575Y-5.6717
X6.675Y-2.8717
X6.675Y-3.0717
X6.675Y-5.4717
X6.675Y-5.6717
X6.775Y-2.8717
X6.775Y-3.0717
X6.775Y-5.4717
X6.775Y-5.6717
X6.875Y-2.8717
X6.875Y-3.0717
X6.875Y-5.4717
X6.875Y-5.6717
X6.975Y-2.8717
X6.975Y-3.0717
X6.975Y-5.4717
X6.975Y-5.6717
X7.075Y-2.8717
X7.075Y-3.0717
X7.075Y-5.4717
X7.075Y-5.6717
X7.175Y-2.8717
X7.175Y-3.0717
X7.175Y-5.4717
X7.175Y-5.6717
X7.225Y-3.9217
X7.225Y-4.0217
X7.225Y-4.1217
X7.225Y-4.2217
X7.225Y-4.3217
X7.225Y-4.4217
X7.275Y-2.8717
X7.275Y-3.0717
X7.275Y-5.4717
X7.275Y-5.6717
X7.375Y-2.8717
X7.375Y-3.0717
X7.375Y-5.4717
X7.375Y-5.6717
X7.475Y-2.8717
X7.475Y-3.0717
X7.475Y-5.4717
X7.475Y-5.6717
X7.525Y-3.7717
X7.525Y-3.8717
X7.525Y-4.1717
X7.525Y-4.2717
X7.525Y-4.5717
X7.525Y-4.6717
X7.575Y-2.8717
X7.575Y-3.0717
X7.575Y-5.4717
X7.575Y-5.6717
X7.675Y-2.8717
X7.675Y-3.0717
X7.675Y-5.4717
X7.675Y-5.6717
X7.775Y-2.8717
X7.775Y-3.0717
X7.775Y-5.4717
X7.775Y-5.6717
X7.875Y-2.8717
X7.875Y-3.0717
X7.875Y-5.4717
X7.875Y-5.6717
X7.975Y-2.8717
X7.975Y-3.0717
X7.975Y-5.4717
X7.975Y-5.6717
X8.075Y-2.8717
X8.075Y-3.0717
X8.075Y-5.4717
X8.075Y-5.6717
X8.175Y-2.8717
X8.175Y-3.0717
X8.175Y-5.4717
X8.175Y-5.6717
X8.275Y-2.8717
X8.275Y-3.0717
X8.275Y-5.6717
X8.275Y-5.4717
X8.5571Y-3.1717
X8.5571Y-3.6717
X8.5571Y-4.1717
X8.5571Y-4.6717
X8.5571Y-5.1717
X8.5571Y-3.2717
X8.5571Y-3.3717
X8.5571Y-3.7717
X8.5571Y-3.8717
X8.5571Y-4.2717
X8.5571Y-4.3717
X8.5571Y-4.7717
X8.5571Y-4.8717
X8.5571Y-5.2717
X8.5571Y-5.3717
T5
X5.5995Y-2.7995
X5.5995Y-3.0005
X5.8005Y-2.7995
X5.8005Y-3.0005
X5.9995Y-2.7947
X5.9995Y-2.9957
X6.2005Y-2.7947
X6.2005Y-2.9957
T6
X5.7Y-2.9
X6.1Y-2.8952
T7
X8.275Y-5.2967
T8
X3.525Y-5.7217
X3.5275Y-2.8217
X8.775Y-2.8217
X8.775Y-5.7217
T4
G00X3.5112Y-5.2947
M15
G01X3.5112Y-5.3734
M16
G05
G00X3.6537Y-5.5191
M15
G01X3.7325Y-5.5191
M16
G05
G00X3.8112Y-5.2947
M15
G01X3.8112Y-5.3734
M16
G05
T0
M30
