%TF.GenerationSoftware,KiCad,Pcbnew,(6.0.5)*%
%TF.CreationDate,2022-08-03T12:20:48+10:00*%
%TF.ProjectId,special_target,73706563-6961-46c5-9f74-61726765742e,rev?*%
%TF.SameCoordinates,Original*%
%TF.FileFunction,Legend,Top*%
%TF.FilePolarity,Positive*%
%FSLAX46Y46*%
G04 Gerber Fmt 4.6, Leading zero omitted, Abs format (unit mm)*
G04 Created by KiCad (PCBNEW (6.0.5)) date 2022-08-03 12:20:48*
%MOMM*%
%LPD*%
G01*
G04 APERTURE LIST*
%ADD10C,0.150000*%
%ADD11C,0.120000*%
G04 APERTURE END LIST*
D10*
X124491904Y-116022380D02*
X124491904Y-115022380D01*
X124872857Y-115022380D01*
X124968095Y-115070000D01*
X125015714Y-115117619D01*
X125063333Y-115212857D01*
X125063333Y-115355714D01*
X125015714Y-115450952D01*
X124968095Y-115498571D01*
X124872857Y-115546190D01*
X124491904Y-115546190D01*
X126063333Y-115927142D02*
X126015714Y-115974761D01*
X125872857Y-116022380D01*
X125777619Y-116022380D01*
X125634761Y-115974761D01*
X125539523Y-115879523D01*
X125491904Y-115784285D01*
X125444285Y-115593809D01*
X125444285Y-115450952D01*
X125491904Y-115260476D01*
X125539523Y-115165238D01*
X125634761Y-115070000D01*
X125777619Y-115022380D01*
X125872857Y-115022380D01*
X126015714Y-115070000D01*
X126063333Y-115117619D01*
X126920476Y-115022380D02*
X126730000Y-115022380D01*
X126634761Y-115070000D01*
X126587142Y-115117619D01*
X126491904Y-115260476D01*
X126444285Y-115450952D01*
X126444285Y-115831904D01*
X126491904Y-115927142D01*
X126539523Y-115974761D01*
X126634761Y-116022380D01*
X126825238Y-116022380D01*
X126920476Y-115974761D01*
X126968095Y-115927142D01*
X127015714Y-115831904D01*
X127015714Y-115593809D01*
X126968095Y-115498571D01*
X126920476Y-115450952D01*
X126825238Y-115403333D01*
X126634761Y-115403333D01*
X126539523Y-115450952D01*
X126491904Y-115498571D01*
X126444285Y-115593809D01*
X124491904Y-113482380D02*
X124491904Y-112482380D01*
X124872857Y-112482380D01*
X124968095Y-112530000D01*
X125015714Y-112577619D01*
X125063333Y-112672857D01*
X125063333Y-112815714D01*
X125015714Y-112910952D01*
X124968095Y-112958571D01*
X124872857Y-113006190D01*
X124491904Y-113006190D01*
X126063333Y-113387142D02*
X126015714Y-113434761D01*
X125872857Y-113482380D01*
X125777619Y-113482380D01*
X125634761Y-113434761D01*
X125539523Y-113339523D01*
X125491904Y-113244285D01*
X125444285Y-113053809D01*
X125444285Y-112910952D01*
X125491904Y-112720476D01*
X125539523Y-112625238D01*
X125634761Y-112530000D01*
X125777619Y-112482380D01*
X125872857Y-112482380D01*
X126015714Y-112530000D01*
X126063333Y-112577619D01*
X126968095Y-112482380D02*
X126491904Y-112482380D01*
X126444285Y-112958571D01*
X126491904Y-112910952D01*
X126587142Y-112863333D01*
X126825238Y-112863333D01*
X126920476Y-112910952D01*
X126968095Y-112958571D01*
X127015714Y-113053809D01*
X127015714Y-113291904D01*
X126968095Y-113387142D01*
X126920476Y-113434761D01*
X126825238Y-113482380D01*
X126587142Y-113482380D01*
X126491904Y-113434761D01*
X126444285Y-113387142D01*
X124491904Y-110942380D02*
X124491904Y-109942380D01*
X124872857Y-109942380D01*
X124968095Y-109990000D01*
X125015714Y-110037619D01*
X125063333Y-110132857D01*
X125063333Y-110275714D01*
X125015714Y-110370952D01*
X124968095Y-110418571D01*
X124872857Y-110466190D01*
X124491904Y-110466190D01*
X126063333Y-110847142D02*
X126015714Y-110894761D01*
X125872857Y-110942380D01*
X125777619Y-110942380D01*
X125634761Y-110894761D01*
X125539523Y-110799523D01*
X125491904Y-110704285D01*
X125444285Y-110513809D01*
X125444285Y-110370952D01*
X125491904Y-110180476D01*
X125539523Y-110085238D01*
X125634761Y-109990000D01*
X125777619Y-109942380D01*
X125872857Y-109942380D01*
X126015714Y-109990000D01*
X126063333Y-110037619D01*
X126920476Y-110275714D02*
X126920476Y-110942380D01*
X126682380Y-109894761D02*
X126444285Y-110609047D01*
X127063333Y-110609047D01*
X124491904Y-108402380D02*
X124491904Y-107402380D01*
X124872857Y-107402380D01*
X124968095Y-107450000D01*
X125015714Y-107497619D01*
X125063333Y-107592857D01*
X125063333Y-107735714D01*
X125015714Y-107830952D01*
X124968095Y-107878571D01*
X124872857Y-107926190D01*
X124491904Y-107926190D01*
X126063333Y-108307142D02*
X126015714Y-108354761D01*
X125872857Y-108402380D01*
X125777619Y-108402380D01*
X125634761Y-108354761D01*
X125539523Y-108259523D01*
X125491904Y-108164285D01*
X125444285Y-107973809D01*
X125444285Y-107830952D01*
X125491904Y-107640476D01*
X125539523Y-107545238D01*
X125634761Y-107450000D01*
X125777619Y-107402380D01*
X125872857Y-107402380D01*
X126015714Y-107450000D01*
X126063333Y-107497619D01*
X126396666Y-107402380D02*
X127015714Y-107402380D01*
X126682380Y-107783333D01*
X126825238Y-107783333D01*
X126920476Y-107830952D01*
X126968095Y-107878571D01*
X127015714Y-107973809D01*
X127015714Y-108211904D01*
X126968095Y-108307142D01*
X126920476Y-108354761D01*
X126825238Y-108402380D01*
X126539523Y-108402380D01*
X126444285Y-108354761D01*
X126396666Y-108307142D01*
X124491904Y-105862380D02*
X124491904Y-104862380D01*
X124872857Y-104862380D01*
X124968095Y-104910000D01*
X125015714Y-104957619D01*
X125063333Y-105052857D01*
X125063333Y-105195714D01*
X125015714Y-105290952D01*
X124968095Y-105338571D01*
X124872857Y-105386190D01*
X124491904Y-105386190D01*
X126063333Y-105767142D02*
X126015714Y-105814761D01*
X125872857Y-105862380D01*
X125777619Y-105862380D01*
X125634761Y-105814761D01*
X125539523Y-105719523D01*
X125491904Y-105624285D01*
X125444285Y-105433809D01*
X125444285Y-105290952D01*
X125491904Y-105100476D01*
X125539523Y-105005238D01*
X125634761Y-104910000D01*
X125777619Y-104862380D01*
X125872857Y-104862380D01*
X126015714Y-104910000D01*
X126063333Y-104957619D01*
X126920476Y-105195714D02*
X126920476Y-105862380D01*
X126682380Y-104814761D02*
X126444285Y-105529047D01*
X127063333Y-105529047D01*
X124491904Y-103322380D02*
X124491904Y-102322380D01*
X124872857Y-102322380D01*
X124968095Y-102370000D01*
X125015714Y-102417619D01*
X125063333Y-102512857D01*
X125063333Y-102655714D01*
X125015714Y-102750952D01*
X124968095Y-102798571D01*
X124872857Y-102846190D01*
X124491904Y-102846190D01*
X126063333Y-103227142D02*
X126015714Y-103274761D01*
X125872857Y-103322380D01*
X125777619Y-103322380D01*
X125634761Y-103274761D01*
X125539523Y-103179523D01*
X125491904Y-103084285D01*
X125444285Y-102893809D01*
X125444285Y-102750952D01*
X125491904Y-102560476D01*
X125539523Y-102465238D01*
X125634761Y-102370000D01*
X125777619Y-102322380D01*
X125872857Y-102322380D01*
X126015714Y-102370000D01*
X126063333Y-102417619D01*
X126968095Y-102322380D02*
X126491904Y-102322380D01*
X126444285Y-102798571D01*
X126491904Y-102750952D01*
X126587142Y-102703333D01*
X126825238Y-102703333D01*
X126920476Y-102750952D01*
X126968095Y-102798571D01*
X127015714Y-102893809D01*
X127015714Y-103131904D01*
X126968095Y-103227142D01*
X126920476Y-103274761D01*
X126825238Y-103322380D01*
X126587142Y-103322380D01*
X126491904Y-103274761D01*
X126444285Y-103227142D01*
X99782380Y-145541904D02*
X99782380Y-144970476D01*
X100782380Y-145256190D02*
X99782380Y-145256190D01*
X99782380Y-144732380D02*
X100782380Y-144065714D01*
X99782380Y-144065714D02*
X100782380Y-144732380D01*
X118046666Y-94702380D02*
X118380000Y-95702380D01*
X118713333Y-94702380D01*
X119618095Y-95607142D02*
X119570476Y-95654761D01*
X119427619Y-95702380D01*
X119332380Y-95702380D01*
X119189523Y-95654761D01*
X119094285Y-95559523D01*
X119046666Y-95464285D01*
X118999047Y-95273809D01*
X118999047Y-95130952D01*
X119046666Y-94940476D01*
X119094285Y-94845238D01*
X119189523Y-94750000D01*
X119332380Y-94702380D01*
X119427619Y-94702380D01*
X119570476Y-94750000D01*
X119618095Y-94797619D01*
X120618095Y-95607142D02*
X120570476Y-95654761D01*
X120427619Y-95702380D01*
X120332380Y-95702380D01*
X120189523Y-95654761D01*
X120094285Y-95559523D01*
X120046666Y-95464285D01*
X119999047Y-95273809D01*
X119999047Y-95130952D01*
X120046666Y-94940476D01*
X120094285Y-94845238D01*
X120189523Y-94750000D01*
X120332380Y-94702380D01*
X120427619Y-94702380D01*
X120570476Y-94750000D01*
X120618095Y-94797619D01*
X103322380Y-144946666D02*
X102846190Y-145280000D01*
X103322380Y-145518095D02*
X102322380Y-145518095D01*
X102322380Y-145137142D01*
X102370000Y-145041904D01*
X102417619Y-144994285D01*
X102512857Y-144946666D01*
X102655714Y-144946666D01*
X102750952Y-144994285D01*
X102798571Y-145041904D01*
X102846190Y-145137142D01*
X102846190Y-145518095D01*
X102322380Y-144613333D02*
X103322380Y-143946666D01*
X102322380Y-143946666D02*
X103322380Y-144613333D01*
X98266666Y-94702380D02*
X98838095Y-94702380D01*
X98552380Y-95702380D02*
X98552380Y-94702380D01*
X99742857Y-95702380D02*
X99409523Y-95226190D01*
X99171428Y-95702380D02*
X99171428Y-94702380D01*
X99552380Y-94702380D01*
X99647619Y-94750000D01*
X99695238Y-94797619D01*
X99742857Y-94892857D01*
X99742857Y-95035714D01*
X99695238Y-95130952D01*
X99647619Y-95178571D01*
X99552380Y-95226190D01*
X99171428Y-95226190D01*
X100171428Y-95702380D02*
X100171428Y-94702380D01*
X101171428Y-94750000D02*
X101076190Y-94702380D01*
X100933333Y-94702380D01*
X100790476Y-94750000D01*
X100695238Y-94845238D01*
X100647619Y-94940476D01*
X100600000Y-95130952D01*
X100600000Y-95273809D01*
X100647619Y-95464285D01*
X100695238Y-95559523D01*
X100790476Y-95654761D01*
X100933333Y-95702380D01*
X101028571Y-95702380D01*
X101171428Y-95654761D01*
X101219047Y-95607142D01*
X101219047Y-95273809D01*
X101028571Y-95273809D01*
X101409523Y-95797619D02*
X102171428Y-95797619D01*
X102600000Y-94702380D02*
X102790476Y-94702380D01*
X102885714Y-94750000D01*
X102980952Y-94845238D01*
X103028571Y-95035714D01*
X103028571Y-95369047D01*
X102980952Y-95559523D01*
X102885714Y-95654761D01*
X102790476Y-95702380D01*
X102600000Y-95702380D01*
X102504761Y-95654761D01*
X102409523Y-95559523D01*
X102361904Y-95369047D01*
X102361904Y-95035714D01*
X102409523Y-94845238D01*
X102504761Y-94750000D01*
X102600000Y-94702380D01*
X103457142Y-94702380D02*
X103457142Y-95511904D01*
X103504761Y-95607142D01*
X103552380Y-95654761D01*
X103647619Y-95702380D01*
X103838095Y-95702380D01*
X103933333Y-95654761D01*
X103980952Y-95607142D01*
X104028571Y-95511904D01*
X104028571Y-94702380D01*
X104361904Y-94702380D02*
X104933333Y-94702380D01*
X104647619Y-95702380D02*
X104647619Y-94702380D01*
X104910000Y-145541904D02*
X104862380Y-145637142D01*
X104862380Y-145780000D01*
X104910000Y-145922857D01*
X105005238Y-146018095D01*
X105100476Y-146065714D01*
X105290952Y-146113333D01*
X105433809Y-146113333D01*
X105624285Y-146065714D01*
X105719523Y-146018095D01*
X105814761Y-145922857D01*
X105862380Y-145780000D01*
X105862380Y-145684761D01*
X105814761Y-145541904D01*
X105767142Y-145494285D01*
X105433809Y-145494285D01*
X105433809Y-145684761D01*
X105862380Y-145065714D02*
X104862380Y-145065714D01*
X105862380Y-144494285D01*
X104862380Y-144494285D01*
X105862380Y-144018095D02*
X104862380Y-144018095D01*
X104862380Y-143780000D01*
X104910000Y-143637142D01*
X105005238Y-143541904D01*
X105100476Y-143494285D01*
X105290952Y-143446666D01*
X105433809Y-143446666D01*
X105624285Y-143494285D01*
X105719523Y-143541904D01*
X105814761Y-143637142D01*
X105862380Y-143780000D01*
X105862380Y-144018095D01*
X97242380Y-146113333D02*
X98242380Y-145780000D01*
X97242380Y-145446666D01*
X98147142Y-144541904D02*
X98194761Y-144589523D01*
X98242380Y-144732380D01*
X98242380Y-144827619D01*
X98194761Y-144970476D01*
X98099523Y-145065714D01*
X98004285Y-145113333D01*
X97813809Y-145160952D01*
X97670952Y-145160952D01*
X97480476Y-145113333D01*
X97385238Y-145065714D01*
X97290000Y-144970476D01*
X97242380Y-144827619D01*
X97242380Y-144732380D01*
X97290000Y-144589523D01*
X97337619Y-144541904D01*
X98147142Y-143541904D02*
X98194761Y-143589523D01*
X98242380Y-143732380D01*
X98242380Y-143827619D01*
X98194761Y-143970476D01*
X98099523Y-144065714D01*
X98004285Y-144113333D01*
X97813809Y-144160952D01*
X97670952Y-144160952D01*
X97480476Y-144113333D01*
X97385238Y-144065714D01*
X97290000Y-143970476D01*
X97242380Y-143827619D01*
X97242380Y-143732380D01*
X97290000Y-143589523D01*
X97337619Y-143541904D01*
%TO.C,J7*%
X121586666Y-117352380D02*
X121586666Y-118066666D01*
X121539047Y-118209523D01*
X121443809Y-118304761D01*
X121300952Y-118352380D01*
X121205714Y-118352380D01*
X121967619Y-117352380D02*
X122634285Y-117352380D01*
X122205714Y-118352380D01*
%TO.C,SW1*%
X96456666Y-100734761D02*
X96599523Y-100782380D01*
X96837619Y-100782380D01*
X96932857Y-100734761D01*
X96980476Y-100687142D01*
X97028095Y-100591904D01*
X97028095Y-100496666D01*
X96980476Y-100401428D01*
X96932857Y-100353809D01*
X96837619Y-100306190D01*
X96647142Y-100258571D01*
X96551904Y-100210952D01*
X96504285Y-100163333D01*
X96456666Y-100068095D01*
X96456666Y-99972857D01*
X96504285Y-99877619D01*
X96551904Y-99830000D01*
X96647142Y-99782380D01*
X96885238Y-99782380D01*
X97028095Y-99830000D01*
X97361428Y-99782380D02*
X97599523Y-100782380D01*
X97790000Y-100068095D01*
X97980476Y-100782380D01*
X98218571Y-99782380D01*
X99123333Y-100782380D02*
X98551904Y-100782380D01*
X98837619Y-100782380D02*
X98837619Y-99782380D01*
X98742380Y-99925238D01*
X98647142Y-100020476D01*
X98551904Y-100068095D01*
%TO.C,R1*%
X104592380Y-105566666D02*
X104116190Y-105900000D01*
X104592380Y-106138095D02*
X103592380Y-106138095D01*
X103592380Y-105757142D01*
X103640000Y-105661904D01*
X103687619Y-105614285D01*
X103782857Y-105566666D01*
X103925714Y-105566666D01*
X104020952Y-105614285D01*
X104068571Y-105661904D01*
X104116190Y-105757142D01*
X104116190Y-106138095D01*
X104592380Y-104614285D02*
X104592380Y-105185714D01*
X104592380Y-104900000D02*
X103592380Y-104900000D01*
X103735238Y-104995238D01*
X103830476Y-105090476D01*
X103878095Y-105185714D01*
%TO.C,R4*%
X96353333Y-134892380D02*
X96020000Y-134416190D01*
X95781904Y-134892380D02*
X95781904Y-133892380D01*
X96162857Y-133892380D01*
X96258095Y-133940000D01*
X96305714Y-133987619D01*
X96353333Y-134082857D01*
X96353333Y-134225714D01*
X96305714Y-134320952D01*
X96258095Y-134368571D01*
X96162857Y-134416190D01*
X95781904Y-134416190D01*
X97210476Y-134225714D02*
X97210476Y-134892380D01*
X96972380Y-133844761D02*
X96734285Y-134559047D01*
X97353333Y-134559047D01*
%TO.C,Y1*%
X120911190Y-124936190D02*
X121387380Y-124936190D01*
X120387380Y-125269523D02*
X120911190Y-124936190D01*
X120387380Y-124602857D01*
X121387380Y-123745714D02*
X121387380Y-124317142D01*
X121387380Y-124031428D02*
X120387380Y-124031428D01*
X120530238Y-124126666D01*
X120625476Y-124221904D01*
X120673095Y-124317142D01*
%TO.C,D3*%
X102131904Y-127292380D02*
X102131904Y-126292380D01*
X102370000Y-126292380D01*
X102512857Y-126340000D01*
X102608095Y-126435238D01*
X102655714Y-126530476D01*
X102703333Y-126720952D01*
X102703333Y-126863809D01*
X102655714Y-127054285D01*
X102608095Y-127149523D01*
X102512857Y-127244761D01*
X102370000Y-127292380D01*
X102131904Y-127292380D01*
X103036666Y-126292380D02*
X103655714Y-126292380D01*
X103322380Y-126673333D01*
X103465238Y-126673333D01*
X103560476Y-126720952D01*
X103608095Y-126768571D01*
X103655714Y-126863809D01*
X103655714Y-127101904D01*
X103608095Y-127197142D01*
X103560476Y-127244761D01*
X103465238Y-127292380D01*
X103179523Y-127292380D01*
X103084285Y-127244761D01*
X103036666Y-127197142D01*
%TO.C,J4*%
X124932380Y-86583333D02*
X125646666Y-86583333D01*
X125789523Y-86630952D01*
X125884761Y-86726190D01*
X125932380Y-86869047D01*
X125932380Y-86964285D01*
X125265714Y-85678571D02*
X125932380Y-85678571D01*
X124884761Y-85916666D02*
X125599047Y-86154761D01*
X125599047Y-85535714D01*
%TO.C,J2*%
X94922380Y-141303333D02*
X95636666Y-141303333D01*
X95779523Y-141350952D01*
X95874761Y-141446190D01*
X95922380Y-141589047D01*
X95922380Y-141684285D01*
X95017619Y-140874761D02*
X94970000Y-140827142D01*
X94922380Y-140731904D01*
X94922380Y-140493809D01*
X94970000Y-140398571D01*
X95017619Y-140350952D01*
X95112857Y-140303333D01*
X95208095Y-140303333D01*
X95350952Y-140350952D01*
X95922380Y-140922380D01*
X95922380Y-140303333D01*
%TO.C,U1*%
X113548095Y-99992380D02*
X113548095Y-100801904D01*
X113595714Y-100897142D01*
X113643333Y-100944761D01*
X113738571Y-100992380D01*
X113929047Y-100992380D01*
X114024285Y-100944761D01*
X114071904Y-100897142D01*
X114119523Y-100801904D01*
X114119523Y-99992380D01*
X115119523Y-100992380D02*
X114548095Y-100992380D01*
X114833809Y-100992380D02*
X114833809Y-99992380D01*
X114738571Y-100135238D01*
X114643333Y-100230476D01*
X114548095Y-100278095D01*
%TO.C,J6*%
X96182380Y-93043333D02*
X96896666Y-93043333D01*
X97039523Y-93090952D01*
X97134761Y-93186190D01*
X97182380Y-93329047D01*
X97182380Y-93424285D01*
X96182380Y-92138571D02*
X96182380Y-92329047D01*
X96230000Y-92424285D01*
X96277619Y-92471904D01*
X96420476Y-92567142D01*
X96610952Y-92614761D01*
X96991904Y-92614761D01*
X97087142Y-92567142D01*
X97134761Y-92519523D01*
X97182380Y-92424285D01*
X97182380Y-92233809D01*
X97134761Y-92138571D01*
X97087142Y-92090952D01*
X96991904Y-92043333D01*
X96753809Y-92043333D01*
X96658571Y-92090952D01*
X96610952Y-92138571D01*
X96563333Y-92233809D01*
X96563333Y-92424285D01*
X96610952Y-92519523D01*
X96658571Y-92567142D01*
X96753809Y-92614761D01*
%TO.C,R2*%
X96353333Y-117112380D02*
X96020000Y-116636190D01*
X95781904Y-117112380D02*
X95781904Y-116112380D01*
X96162857Y-116112380D01*
X96258095Y-116160000D01*
X96305714Y-116207619D01*
X96353333Y-116302857D01*
X96353333Y-116445714D01*
X96305714Y-116540952D01*
X96258095Y-116588571D01*
X96162857Y-116636190D01*
X95781904Y-116636190D01*
X96734285Y-116207619D02*
X96781904Y-116160000D01*
X96877142Y-116112380D01*
X97115238Y-116112380D01*
X97210476Y-116160000D01*
X97258095Y-116207619D01*
X97305714Y-116302857D01*
X97305714Y-116398095D01*
X97258095Y-116540952D01*
X96686666Y-117112380D01*
X97305714Y-117112380D01*
%TO.C,D2*%
X102131904Y-119672380D02*
X102131904Y-118672380D01*
X102370000Y-118672380D01*
X102512857Y-118720000D01*
X102608095Y-118815238D01*
X102655714Y-118910476D01*
X102703333Y-119100952D01*
X102703333Y-119243809D01*
X102655714Y-119434285D01*
X102608095Y-119529523D01*
X102512857Y-119624761D01*
X102370000Y-119672380D01*
X102131904Y-119672380D01*
X103084285Y-118767619D02*
X103131904Y-118720000D01*
X103227142Y-118672380D01*
X103465238Y-118672380D01*
X103560476Y-118720000D01*
X103608095Y-118767619D01*
X103655714Y-118862857D01*
X103655714Y-118958095D01*
X103608095Y-119100952D01*
X103036666Y-119672380D01*
X103655714Y-119672380D01*
%TO.C,J5*%
X107152380Y-86583323D02*
X107866666Y-86583323D01*
X108009523Y-86630942D01*
X108104761Y-86726180D01*
X108152380Y-86869037D01*
X108152380Y-86964275D01*
X107152380Y-85630942D02*
X107152380Y-86107132D01*
X107628571Y-86154751D01*
X107580952Y-86107132D01*
X107533333Y-86011894D01*
X107533333Y-85773799D01*
X107580952Y-85678561D01*
X107628571Y-85630942D01*
X107723809Y-85583323D01*
X107961904Y-85583323D01*
X108057142Y-85630942D01*
X108104761Y-85678561D01*
X108152380Y-85773799D01*
X108152380Y-86011894D01*
X108104761Y-86107132D01*
X108057142Y-86154751D01*
%TO.C,J1*%
X108897380Y-143838333D02*
X109611666Y-143838333D01*
X109754523Y-143885952D01*
X109849761Y-143981190D01*
X109897380Y-144124047D01*
X109897380Y-144219285D01*
X109897380Y-142838333D02*
X109897380Y-143409761D01*
X109897380Y-143124047D02*
X108897380Y-143124047D01*
X109040238Y-143219285D01*
X109135476Y-143314523D01*
X109183095Y-143409761D01*
%TO.C,R3*%
X96353333Y-126002380D02*
X96020000Y-125526190D01*
X95781904Y-126002380D02*
X95781904Y-125002380D01*
X96162857Y-125002380D01*
X96258095Y-125050000D01*
X96305714Y-125097619D01*
X96353333Y-125192857D01*
X96353333Y-125335714D01*
X96305714Y-125430952D01*
X96258095Y-125478571D01*
X96162857Y-125526190D01*
X95781904Y-125526190D01*
X96686666Y-125002380D02*
X97305714Y-125002380D01*
X96972380Y-125383333D01*
X97115238Y-125383333D01*
X97210476Y-125430952D01*
X97258095Y-125478571D01*
X97305714Y-125573809D01*
X97305714Y-125811904D01*
X97258095Y-125907142D01*
X97210476Y-125954761D01*
X97115238Y-126002380D01*
X96829523Y-126002380D01*
X96734285Y-125954761D01*
X96686666Y-125907142D01*
%TO.C,D1*%
X102131904Y-112052380D02*
X102131904Y-111052380D01*
X102370000Y-111052380D01*
X102512857Y-111100000D01*
X102608095Y-111195238D01*
X102655714Y-111290476D01*
X102703333Y-111480952D01*
X102703333Y-111623809D01*
X102655714Y-111814285D01*
X102608095Y-111909523D01*
X102512857Y-112004761D01*
X102370000Y-112052380D01*
X102131904Y-112052380D01*
X103655714Y-112052380D02*
X103084285Y-112052380D01*
X103370000Y-112052380D02*
X103370000Y-111052380D01*
X103274761Y-111195238D01*
X103179523Y-111290476D01*
X103084285Y-111338095D01*
%TO.C,J3*%
X113977380Y-93058333D02*
X114691666Y-93058333D01*
X114834523Y-93105952D01*
X114929761Y-93201190D01*
X114977380Y-93344047D01*
X114977380Y-93439285D01*
X113977380Y-92677380D02*
X113977380Y-92058333D01*
X114358333Y-92391666D01*
X114358333Y-92248809D01*
X114405952Y-92153571D01*
X114453571Y-92105952D01*
X114548809Y-92058333D01*
X114786904Y-92058333D01*
X114882142Y-92105952D01*
X114929761Y-92153571D01*
X114977380Y-92248809D01*
X114977380Y-92534523D01*
X114929761Y-92629761D01*
X114882142Y-92677380D01*
D11*
%TO.C,J7*%
X123250000Y-114300000D02*
X123250000Y-101540000D01*
X123250000Y-115570000D02*
X123250000Y-116900000D01*
X123250000Y-116900000D02*
X121920000Y-116900000D01*
X123250000Y-114300000D02*
X120590000Y-114300000D01*
X123250000Y-101540000D02*
X120590000Y-101540000D01*
X120590000Y-114300000D02*
X120590000Y-101540000D01*
%TO.C,SW1*%
X96460000Y-102875001D02*
X96460000Y-101545001D01*
X96460000Y-104145001D02*
X96460000Y-109285001D01*
X96460000Y-104145001D02*
X99120000Y-104145001D01*
X96460000Y-101545001D02*
X97790000Y-101545001D01*
X96460000Y-109285001D02*
X99120000Y-109285001D01*
X99120000Y-104145001D02*
X99120000Y-109285001D01*
%TO.C,R1*%
X104140000Y-100090000D02*
X104140000Y-100860000D01*
X102770000Y-107400000D02*
X105510000Y-107400000D01*
X105510000Y-107400000D02*
X105510000Y-100860000D01*
X105510000Y-100860000D02*
X102770000Y-100860000D01*
X104140000Y-108170000D02*
X104140000Y-107400000D01*
X102770000Y-100860000D02*
X102770000Y-107400000D01*
%TO.C,R4*%
X96420000Y-132070000D02*
X96350000Y-132070000D01*
X99160000Y-132070000D02*
G75*
G03*
X99160000Y-132070000I-1370000J0D01*
G01*
%TO.C,Y1*%
X126985000Y-127585000D02*
X126985000Y-121335000D01*
X121935000Y-127585000D02*
X121935000Y-121335000D01*
X121935000Y-127585000D02*
G75*
G03*
X126985000Y-127585000I2525000J0D01*
G01*
X126985000Y-121335000D02*
G75*
G03*
X121935000Y-121335000I-2525000J0D01*
G01*
%TO.C,D3*%
X100310000Y-129255000D02*
X100310000Y-132345000D01*
X105860000Y-130800462D02*
G75*
G03*
X100310000Y-129255170I-2990000J462D01*
G01*
X100310000Y-132344830D02*
G75*
G03*
X105860000Y-130799538I2560000J1544830D01*
G01*
X105370000Y-130800000D02*
G75*
G03*
X105370000Y-130800000I-2500000J0D01*
G01*
%TO.C,J4*%
X119380000Y-87945000D02*
X119130000Y-88445000D01*
X119630000Y-88445000D02*
X119380000Y-87945000D01*
X119130000Y-88445000D02*
X119630000Y-88445000D01*
%TO.C,J2*%
X99070000Y-142300000D02*
X106750000Y-142300000D01*
X99070000Y-142300000D02*
X99070000Y-139640000D01*
X97800000Y-142300000D02*
X96470000Y-142300000D01*
X99070000Y-139640000D02*
X106750000Y-139640000D01*
X106750000Y-142300000D02*
X106750000Y-139640000D01*
X96470000Y-142300000D02*
X96470000Y-140970000D01*
%TO.C,U1*%
X111660000Y-137220000D02*
X116960000Y-137220000D01*
X113310000Y-101540000D02*
X111660000Y-101540000D01*
X111660000Y-101540000D02*
X111660000Y-137220000D01*
X116960000Y-137220000D02*
X116960000Y-101540000D01*
X116960000Y-101540000D02*
X115310000Y-101540000D01*
X113310000Y-101540000D02*
G75*
G03*
X115310000Y-101540000I1000000J0D01*
G01*
%TO.C,J6*%
X100330000Y-94040000D02*
X100330000Y-91380000D01*
X105470000Y-94040000D02*
X105470000Y-91380000D01*
X100330000Y-91380000D02*
X105470000Y-91380000D01*
X100330000Y-94040000D02*
X105470000Y-94040000D01*
X99060000Y-94040000D02*
X97730000Y-94040000D01*
X97730000Y-94040000D02*
X97730000Y-92710000D01*
%TO.C,R2*%
X96420000Y-114290000D02*
X96350000Y-114290000D01*
X99160000Y-114290000D02*
G75*
G03*
X99160000Y-114290000I-1370000J0D01*
G01*
%TO.C,D2*%
X100310000Y-121635000D02*
X100310000Y-124725000D01*
X100310000Y-124724830D02*
G75*
G03*
X105860000Y-123179538I2560000J1544830D01*
G01*
X105860000Y-123180462D02*
G75*
G03*
X100310000Y-121635170I-2990000J462D01*
G01*
X105370000Y-123180000D02*
G75*
G03*
X105370000Y-123180000I-2500000J0D01*
G01*
%TO.C,J5*%
X101850000Y-88444990D02*
X101600000Y-87944990D01*
X101350000Y-88444990D02*
X101850000Y-88444990D01*
X101600000Y-87944990D02*
X101350000Y-88444990D01*
%TO.C,J1*%
X118185000Y-146105000D02*
X118185000Y-140905000D01*
X113045000Y-143505000D02*
X110445000Y-143505000D01*
X110445000Y-143505000D02*
X110445000Y-140905000D01*
X110445000Y-140905000D02*
X118185000Y-140905000D01*
X113045000Y-146105000D02*
X118185000Y-146105000D01*
X113045000Y-146105000D02*
X113045000Y-143505000D01*
X111775000Y-146105000D02*
X110445000Y-146105000D01*
X110445000Y-146105000D02*
X110445000Y-144775000D01*
%TO.C,R3*%
X96420000Y-123180000D02*
X96350000Y-123180000D01*
X99160000Y-123180000D02*
G75*
G03*
X99160000Y-123180000I-1370000J0D01*
G01*
%TO.C,D1*%
X100310000Y-114015000D02*
X100310000Y-117105000D01*
X105860000Y-115560462D02*
G75*
G03*
X100310000Y-114015170I-2990000J462D01*
G01*
X100310000Y-117104830D02*
G75*
G03*
X105860000Y-115559538I2560000J1544830D01*
G01*
X105370000Y-115560000D02*
G75*
G03*
X105370000Y-115560000I-2500000J0D01*
G01*
%TO.C,J3*%
X123265000Y-94055000D02*
X123265000Y-91395000D01*
X116855000Y-94055000D02*
X115525000Y-94055000D01*
X118125000Y-91395000D02*
X123265000Y-91395000D01*
X118125000Y-94055000D02*
X123265000Y-94055000D01*
X118125000Y-94055000D02*
X118125000Y-91395000D01*
X115525000Y-94055000D02*
X115525000Y-92725000D01*
%TD*%
M02*
