M48
; DRILL file {KiCad (6.0.5)} date Wed Aug  3 12:20:51 2022
; FORMAT={-:-/ absolute / inch / decimal}
; #@! TF.CreationDate,2022-08-03T12:20:51+10:00
; #@! TF.GenerationSoftware,Kicad,Pcbnew,(6.0.5)
; #@! TF.FileFunction,Plated,1,2,PTH
FMAT,2
INCH
; #@! TA.AperFunction,Plated,PTH,ViaDrill
T1C0.0157
; #@! TA.AperFunction,Plated,PTH,ComponentDrill
T2C0.0181
; #@! TA.AperFunction,Plated,PTH,ComponentDrill
T3C0.0315
; #@! TA.AperFunction,Plated,PTH,ComponentDrill
T4C0.0354
; #@! TA.AperFunction,Plated,PTH,ComponentDrill
T5C0.0394
%
G90
G05
T1
X3.95Y-5.45
X4.2511Y-4.1011
T2
X3.8625Y-3.4854
X4.1375Y-3.4854
X4.5625Y-3.4854
X4.8375Y-3.4854
T3
X3.75Y-4.4996
X3.75Y-4.8496
X3.75Y-5.1996
X3.85Y-4.4996
X3.85Y-4.8496
X3.85Y-5.1996
X4.1Y-3.8996
X4.1Y-4.2996
X4.3504Y-4.05
X4.3504Y-4.15
X4.3504Y-4.25
X4.3504Y-4.35
X4.3504Y-4.45
X4.3504Y-4.55
X4.3504Y-4.65
X4.3504Y-4.75
X4.3504Y-4.85
X4.3504Y-4.95
X4.3504Y-5.05
X4.3504Y-5.15
X4.3504Y-5.25
X4.3504Y-5.35
X4.6504Y-4.05
X4.6504Y-4.15
X4.6504Y-4.25
X4.6504Y-4.35
X4.6504Y-4.45
X4.6504Y-4.55
X4.6504Y-4.65
X4.6504Y-4.75
X4.6504Y-4.85
X4.6504Y-4.95
X4.6504Y-5.05
X4.6504Y-5.15
X4.6504Y-5.25
X4.6504Y-5.35
X4.9Y-4.8039
X4.9Y-4.9961
T4
X4.0Y-4.5496
X4.0Y-4.8496
X4.0Y-5.1496
X4.1Y-4.5496
X4.1Y-4.8496
X4.1Y-5.1496
T5
X3.85Y-4.0502
X3.85Y-4.2502
X3.8504Y-5.55
X3.9Y-3.65
X3.9504Y-5.55
X4.0Y-3.65
X4.0504Y-5.55
X4.1Y-3.65
X4.1504Y-5.55
X4.4006Y-5.5998
X4.4006Y-5.6998
X4.5006Y-5.5998
X4.5006Y-5.6998
X4.6006Y-3.6506
X4.6006Y-5.5998
X4.6006Y-5.6998
X4.7006Y-3.6506
X4.8Y-4.05
X4.8Y-4.15
X4.8Y-4.25
X4.8Y-4.35
X4.8Y-4.45
X4.8Y-4.55
X4.8006Y-3.6506
T0
M30
