%TF.GenerationSoftware,KiCad,Pcbnew,(6.0.5)*%
%TF.CreationDate,2022-08-03T12:20:48+10:00*%
%TF.ProjectId,special_target,73706563-6961-46c5-9f74-61726765742e,rev?*%
%TF.SameCoordinates,Original*%
%TF.FileFunction,Soldermask,Top*%
%TF.FilePolarity,Negative*%
%FSLAX46Y46*%
G04 Gerber Fmt 4.6, Leading zero omitted, Abs format (unit mm)*
G04 Created by KiCad (PCBNEW (6.0.5)) date 2022-08-03 12:20:48*
%MOMM*%
%LPD*%
G01*
G04 APERTURE LIST*
%ADD10C,1.700000*%
%ADD11O,1.700000X1.700000*%
%ADD12C,1.600000*%
%ADD13O,1.600000X1.600000*%
%ADD14C,1.500000*%
%ADD15R,1.800000X1.800000*%
%ADD16C,1.800000*%
%ADD17R,1.780000X4.190000*%
%ADD18R,2.665000X4.190000*%
%ADD19R,1.700000X1.700000*%
%ADD20R,1.600000X1.600000*%
G04 APERTURE END LIST*
D10*
%TO.C,J7*%
X121920000Y-115570000D03*
D11*
X121920000Y-113030000D03*
X121920000Y-110490000D03*
X121920000Y-107950000D03*
X121920000Y-105410000D03*
X121920000Y-102870000D03*
%TD*%
D10*
%TO.C,SW1*%
X97790000Y-102875001D03*
D11*
X97790000Y-107955001D03*
%TD*%
D12*
%TO.C,R1*%
X104140000Y-99050000D03*
D13*
X104140000Y-109210000D03*
%TD*%
D12*
%TO.C,R4*%
X97790000Y-132070000D03*
D13*
X95250000Y-132070000D03*
%TD*%
D14*
%TO.C,Y1*%
X124460000Y-126900000D03*
X124460000Y-122020000D03*
%TD*%
D15*
%TO.C,D3*%
X101600000Y-130800000D03*
D16*
X104140000Y-130800000D03*
%TD*%
D17*
%TO.C,J4*%
X119380000Y-85545000D03*
D18*
X115887500Y-85545000D03*
X122872500Y-85545000D03*
%TD*%
D10*
%TO.C,J2*%
X97800008Y-140970000D03*
D11*
X100340000Y-140970000D03*
X102880000Y-140970000D03*
D19*
X105420008Y-140970000D03*
%TD*%
D20*
%TO.C,U1*%
X110500000Y-102870000D03*
D13*
X110500000Y-105410000D03*
X110500000Y-107950000D03*
X110500000Y-110490000D03*
X110500000Y-113030000D03*
X110500000Y-115570000D03*
X110500000Y-118110000D03*
X110500000Y-120650000D03*
X110500000Y-123190000D03*
X110500000Y-125730000D03*
X110500000Y-128270000D03*
X110500000Y-130810000D03*
X110500000Y-133350000D03*
X110500000Y-135890000D03*
X118120000Y-135890000D03*
X118120000Y-133350000D03*
X118120000Y-130810000D03*
X118120000Y-128270000D03*
X118120000Y-125730000D03*
X118120000Y-123190000D03*
X118120000Y-120650000D03*
X118120000Y-118110000D03*
X118120000Y-115570000D03*
X118120000Y-113030000D03*
X118120000Y-110490000D03*
X118120000Y-107950000D03*
X118120000Y-105410000D03*
X118120000Y-102870000D03*
%TD*%
D19*
%TO.C,J6*%
X99060000Y-92710000D03*
D11*
X101600000Y-92710000D03*
X104140000Y-92710000D03*
%TD*%
D12*
%TO.C,R2*%
X97790000Y-114290000D03*
D13*
X95250000Y-114290000D03*
%TD*%
D15*
%TO.C,D2*%
X101600000Y-123180000D03*
D16*
X104140000Y-123180000D03*
%TD*%
D17*
%TO.C,J5*%
X101600000Y-85544990D03*
D18*
X98107500Y-85544990D03*
X105092500Y-85544990D03*
%TD*%
D19*
%TO.C,J1*%
X111775000Y-144775000D03*
D11*
X111775000Y-142235000D03*
X114315000Y-144775000D03*
X114315000Y-142235000D03*
X116855000Y-144775000D03*
X116855000Y-142235000D03*
%TD*%
D12*
%TO.C,R3*%
X97790000Y-123180000D03*
D13*
X95250000Y-123180000D03*
%TD*%
D15*
%TO.C,D1*%
X101600000Y-115560000D03*
D16*
X104140000Y-115560000D03*
%TD*%
D19*
%TO.C,J3*%
X116855000Y-92725000D03*
D11*
X119395000Y-92725000D03*
X121935000Y-92725000D03*
%TD*%
M02*
