%TF.GenerationSoftware,KiCad,Pcbnew,(7.0.0)*%
%TF.CreationDate,2025-01-20T14:18:13+11:00*%
%TF.ProjectId,shield-v3,73686965-6c64-42d7-9633-2e6b69636164,rev?*%
%TF.SameCoordinates,Original*%
%TF.FileFunction,Copper,L1,Top*%
%TF.FilePolarity,Positive*%
%FSLAX46Y46*%
G04 Gerber Fmt 4.6, Leading zero omitted, Abs format (unit mm)*
G04 Created by KiCad (PCBNEW (7.0.0)) date 2025-01-20 14:18:13*
%MOMM*%
%LPD*%
G01*
G04 APERTURE LIST*
G04 Aperture macros list*
%AMFreePoly0*
4,1,19,0.500000,-0.750000,0.000000,-0.750000,0.000000,-0.744911,-0.071157,-0.744911,-0.207708,-0.704816,-0.327430,-0.627875,-0.420627,-0.520320,-0.479746,-0.390866,-0.500000,-0.250000,-0.500000,0.250000,-0.479746,0.390866,-0.420627,0.520320,-0.327430,0.627875,-0.207708,0.704816,-0.071157,0.744911,0.000000,0.744911,0.000000,0.750000,0.500000,0.750000,0.500000,-0.750000,0.500000,-0.750000,
$1*%
%AMFreePoly1*
4,1,19,0.000000,0.744911,0.071157,0.744911,0.207708,0.704816,0.327430,0.627875,0.420627,0.520320,0.479746,0.390866,0.500000,0.250000,0.500000,-0.250000,0.479746,-0.390866,0.420627,-0.520320,0.327430,-0.627875,0.207708,-0.704816,0.071157,-0.744911,0.000000,-0.744911,0.000000,-0.750000,-0.500000,-0.750000,-0.500000,0.750000,0.000000,0.750000,0.000000,0.744911,0.000000,0.744911,
$1*%
G04 Aperture macros list end*
%TA.AperFunction,SMDPad,CuDef*%
%ADD10FreePoly0,0.000000*%
%TD*%
%TA.AperFunction,SMDPad,CuDef*%
%ADD11FreePoly1,0.000000*%
%TD*%
%TA.AperFunction,ComponentPad*%
%ADD12C,1.700000*%
%TD*%
%TA.AperFunction,ComponentPad*%
%ADD13O,1.700000X1.700000*%
%TD*%
%TA.AperFunction,ViaPad*%
%ADD14C,0.800000*%
%TD*%
%TA.AperFunction,Conductor*%
%ADD15C,0.250000*%
%TD*%
G04 APERTURE END LIST*
D10*
%TO.P,JP2,1,A*%
%TO.N,L2*%
X100935000Y-113030000D03*
D11*
%TO.P,JP2,2,B*%
%TO.N,GP15*%
X102235000Y-113030000D03*
%TD*%
D12*
%TO.P,J2,1,Pin_1*%
%TO.N,GND_BASE*%
X111760000Y-64770000D03*
D13*
%TO.P,J2,2,Pin_2*%
%TO.N,N/C*%
X111759999Y-67309999D03*
%TO.P,J2,3,Pin_3*%
%TO.N,GP2_EN*%
X111759999Y-69849999D03*
%TO.P,J2,16,Pin_16*%
%TO.N,GP15*%
X111759999Y-102869999D03*
%TO.P,J2,17,Pin_17*%
%TO.N,unconnected-(J2-Pin_17-Pad17)*%
X111759999Y-105409999D03*
%TO.P,J2,18,Pin_18*%
%TO.N,unconnected-(J2-Pin_18-Pad18)*%
X111759999Y-107949999D03*
%TO.P,J2,19,Pin_19*%
%TO.N,unconnected-(J2-Pin_19-Pad19)*%
X111759999Y-110489999D03*
%TO.P,J2,20,Pin_20*%
%TO.N,unconnected-(J2-Pin_20-Pad20)*%
X111759999Y-113029999D03*
%TD*%
D12*
%TO.P,J3,1,Pin_1*%
%TO.N,unconnected-(J3-Pin_1-Pad1)*%
X50800000Y-64770000D03*
D13*
%TO.P,J3,2,Pin_2*%
%TO.N,unconnected-(J3-Pin_2-Pad2)*%
X50799999Y-67309999D03*
%TO.P,J3,3,Pin_3*%
%TO.N,unconnected-(J3-Pin_3-Pad3)*%
X50799999Y-69849999D03*
%TO.P,J3,16,Pin_16*%
%TO.N,unconnected-(J3-Pin_16-Pad16)*%
X50799999Y-102869999D03*
%TO.P,J3,17,Pin_17*%
%TO.N,unconnected-(J3-Pin_17-Pad17)*%
X50799999Y-105409999D03*
%TO.P,J3,18,Pin_18*%
%TO.N,L2*%
X50799999Y-107949999D03*
%TD*%
D14*
%TO.N,L2*%
X98425000Y-113030000D03*
%TD*%
D15*
%TO.N,GP15*%
X102235000Y-109855000D02*
X102235000Y-113030000D01*
X109220000Y-102870000D02*
X102235000Y-109855000D01*
X111760000Y-102870000D02*
X109220000Y-102870000D01*
%TO.N,L2*%
X98425000Y-113030000D02*
X100935000Y-113030000D01*
%TD*%
%TA.AperFunction,Conductor*%
%TO.N,GND*%
G36*
X111763032Y-60960649D02*
G01*
X111765828Y-60960786D01*
X111912663Y-60967999D01*
X112135097Y-60979658D01*
X112146757Y-60980825D01*
X112322923Y-61006957D01*
X112323840Y-61007098D01*
X112517424Y-61037758D01*
X112528111Y-61039938D01*
X112705944Y-61084483D01*
X112707696Y-61084938D01*
X112891842Y-61134279D01*
X112901513Y-61137301D01*
X113076097Y-61199768D01*
X113078743Y-61200748D01*
X113254560Y-61268238D01*
X113263091Y-61271886D01*
X113431811Y-61351685D01*
X113434954Y-61353228D01*
X113601803Y-61438242D01*
X113609239Y-61442359D01*
X113769823Y-61538610D01*
X113773530Y-61540923D01*
X113930016Y-61642546D01*
X113936337Y-61646937D01*
X114086991Y-61758669D01*
X114091161Y-61761901D01*
X114235861Y-61879077D01*
X114241098Y-61883565D01*
X114380185Y-62009626D01*
X114384593Y-62013823D01*
X114516175Y-62145405D01*
X114520372Y-62149813D01*
X114646433Y-62288900D01*
X114650921Y-62294137D01*
X114768097Y-62438837D01*
X114771329Y-62443007D01*
X114883061Y-62593661D01*
X114887458Y-62599991D01*
X114989057Y-62756439D01*
X114991406Y-62760204D01*
X115087634Y-62920751D01*
X115091761Y-62928205D01*
X115176750Y-63095005D01*
X115178341Y-63098245D01*
X115258097Y-63266873D01*
X115261766Y-63275453D01*
X115329243Y-63451238D01*
X115330230Y-63453901D01*
X115392697Y-63628485D01*
X115395721Y-63638165D01*
X115445033Y-63822198D01*
X115445542Y-63824162D01*
X115490055Y-64001866D01*
X115492244Y-64012598D01*
X115522874Y-64205991D01*
X115523059Y-64207194D01*
X115549170Y-64383220D01*
X115550342Y-64394925D01*
X115561992Y-64617222D01*
X115561889Y-64617227D01*
X115562014Y-64617627D01*
X115569351Y-64766967D01*
X115569500Y-64773052D01*
X115569500Y-113026948D01*
X115569351Y-113033033D01*
X115562017Y-113182303D01*
X115561996Y-113182708D01*
X115550342Y-113405073D01*
X115549170Y-113416778D01*
X115523059Y-113592804D01*
X115522874Y-113594007D01*
X115492244Y-113787400D01*
X115490055Y-113798132D01*
X115445542Y-113975836D01*
X115445033Y-113977800D01*
X115395721Y-114161833D01*
X115392697Y-114171513D01*
X115330230Y-114346097D01*
X115329243Y-114348760D01*
X115261766Y-114524545D01*
X115258097Y-114533125D01*
X115178360Y-114701715D01*
X115176750Y-114704993D01*
X115091761Y-114871793D01*
X115087634Y-114879247D01*
X114991406Y-115039794D01*
X114989043Y-115043581D01*
X114887458Y-115200007D01*
X114883061Y-115206337D01*
X114771329Y-115356991D01*
X114768097Y-115361161D01*
X114650921Y-115505861D01*
X114646433Y-115511098D01*
X114520372Y-115650185D01*
X114516175Y-115654593D01*
X114384593Y-115786175D01*
X114380185Y-115790372D01*
X114241098Y-115916433D01*
X114235861Y-115920921D01*
X114091161Y-116038097D01*
X114086991Y-116041329D01*
X113936337Y-116153061D01*
X113930007Y-116157458D01*
X113773581Y-116259043D01*
X113769794Y-116261406D01*
X113609247Y-116357634D01*
X113601793Y-116361761D01*
X113434993Y-116446750D01*
X113431715Y-116448360D01*
X113263125Y-116528097D01*
X113254545Y-116531766D01*
X113078760Y-116599243D01*
X113076097Y-116600230D01*
X112901513Y-116662697D01*
X112891833Y-116665721D01*
X112707800Y-116715033D01*
X112705836Y-116715542D01*
X112528132Y-116760055D01*
X112517400Y-116762244D01*
X112324007Y-116792874D01*
X112322804Y-116793059D01*
X112146778Y-116819170D01*
X112135073Y-116820342D01*
X111912708Y-116831996D01*
X111912303Y-116832017D01*
X111763033Y-116839351D01*
X111756948Y-116839500D01*
X62233481Y-116839500D01*
X62226528Y-116839305D01*
X62222045Y-116839053D01*
X62114774Y-116833028D01*
X62114242Y-116832997D01*
X61945670Y-116822801D01*
X61932385Y-116821275D01*
X61800446Y-116798857D01*
X61798865Y-116798578D01*
X61653807Y-116771995D01*
X61641831Y-116769180D01*
X61509246Y-116730983D01*
X61506684Y-116730214D01*
X61369866Y-116687580D01*
X61359303Y-116683756D01*
X61230291Y-116630317D01*
X61226873Y-116628841D01*
X61097713Y-116570710D01*
X61088626Y-116566164D01*
X60965667Y-116498207D01*
X60961498Y-116495796D01*
X60841010Y-116422958D01*
X60833406Y-116417971D01*
X60718473Y-116336423D01*
X60713754Y-116332904D01*
X60603246Y-116246326D01*
X60597092Y-116241175D01*
X60491865Y-116147139D01*
X60486811Y-116142360D01*
X60387638Y-116043187D01*
X60382859Y-116038133D01*
X60288823Y-115932906D01*
X60283672Y-115926752D01*
X60232458Y-115861382D01*
X60197078Y-115816223D01*
X60193575Y-115811525D01*
X60112027Y-115696592D01*
X60107040Y-115688988D01*
X60034202Y-115568500D01*
X60031791Y-115564331D01*
X60013272Y-115530824D01*
X59963832Y-115441369D01*
X59959298Y-115432306D01*
X59901130Y-115303063D01*
X59899693Y-115299736D01*
X59846237Y-115170682D01*
X59842423Y-115160146D01*
X59799773Y-115023279D01*
X59799015Y-115020752D01*
X59790545Y-114991351D01*
X59760814Y-114888153D01*
X59758007Y-114876210D01*
X59731397Y-114731007D01*
X59731160Y-114729665D01*
X59708720Y-114597591D01*
X59707199Y-114584353D01*
X59696983Y-114415453D01*
X59690694Y-114303471D01*
X59690500Y-114296521D01*
X59690500Y-113030000D01*
X97511496Y-113030000D01*
X97512175Y-113036460D01*
X97530778Y-113213467D01*
X97530779Y-113213475D01*
X97531458Y-113219928D01*
X97533463Y-113226100D01*
X97533465Y-113226107D01*
X97552412Y-113284418D01*
X97590473Y-113401556D01*
X97593720Y-113407180D01*
X97593721Y-113407182D01*
X97645912Y-113497580D01*
X97685960Y-113566944D01*
X97813747Y-113708866D01*
X97818997Y-113712680D01*
X97819000Y-113712683D01*
X97921839Y-113787400D01*
X97968248Y-113821118D01*
X97974181Y-113823759D01*
X97974182Y-113823760D01*
X98129401Y-113892868D01*
X98142712Y-113898794D01*
X98149070Y-113900145D01*
X98149072Y-113900146D01*
X98185874Y-113907968D01*
X98329513Y-113938500D01*
X98513984Y-113938500D01*
X98520487Y-113938500D01*
X98707288Y-113898794D01*
X98881752Y-113821118D01*
X99036253Y-113708866D01*
X99040600Y-113704037D01*
X99045429Y-113699690D01*
X99045978Y-113700299D01*
X99081874Y-113674220D01*
X99132309Y-113663500D01*
X99916011Y-113663500D01*
X99962098Y-113672383D01*
X100001581Y-113697758D01*
X100028803Y-113735986D01*
X100042744Y-113766512D01*
X100045136Y-113770235D01*
X100045141Y-113770243D01*
X100104738Y-113862977D01*
X100121795Y-113889518D01*
X100124698Y-113892868D01*
X100198290Y-113977800D01*
X100215949Y-113998179D01*
X100267780Y-114050011D01*
X100326460Y-114093938D01*
X100447414Y-114171670D01*
X100580423Y-114232413D01*
X100718378Y-114272920D01*
X100863111Y-114293729D01*
X101430947Y-114293729D01*
X101435000Y-114293729D01*
X101567963Y-114276224D01*
X101568353Y-114279184D01*
X101601647Y-114279184D01*
X101602037Y-114276224D01*
X101735000Y-114293729D01*
X102302463Y-114293729D01*
X102306889Y-114293729D01*
X102451622Y-114272920D01*
X102589577Y-114232413D01*
X102722586Y-114171670D01*
X102843540Y-114093938D01*
X102902220Y-114050011D01*
X102954051Y-113998179D01*
X103048205Y-113889518D01*
X103127256Y-113766512D01*
X103186984Y-113635727D01*
X103212599Y-113567050D01*
X103228180Y-113495427D01*
X103248642Y-113353112D01*
X103253871Y-113280000D01*
X103249045Y-113212522D01*
X103248729Y-113203676D01*
X103248729Y-112856324D01*
X103249045Y-112847478D01*
X103253555Y-112784418D01*
X103253871Y-112780000D01*
X103248642Y-112706888D01*
X103228180Y-112564573D01*
X103212599Y-112492950D01*
X103186984Y-112424273D01*
X103127256Y-112293488D01*
X103048205Y-112170482D01*
X102954051Y-112061821D01*
X102904818Y-112012587D01*
X102877939Y-111972359D01*
X102868500Y-111924907D01*
X102868500Y-110168766D01*
X102877939Y-110121313D01*
X102904819Y-110081085D01*
X109446086Y-103539819D01*
X109486314Y-103512939D01*
X109533767Y-103503500D01*
X110484044Y-103503500D01*
X110543062Y-103518445D01*
X110587853Y-103559679D01*
X110681470Y-103702972D01*
X110681478Y-103702982D01*
X110684278Y-103707268D01*
X110687752Y-103711041D01*
X110687753Y-103711043D01*
X110833288Y-103869135D01*
X110833291Y-103869138D01*
X110836760Y-103872906D01*
X110840801Y-103876051D01*
X111010376Y-104008039D01*
X111010381Y-104008042D01*
X111014424Y-104011189D01*
X111018931Y-104013628D01*
X111018934Y-104013630D01*
X111050930Y-104030945D01*
X111098436Y-104076526D01*
X111115913Y-104140000D01*
X111098436Y-104203474D01*
X111050930Y-104249055D01*
X111018934Y-104266369D01*
X111018922Y-104266376D01*
X111014424Y-104268811D01*
X111010389Y-104271951D01*
X111010376Y-104271960D01*
X110840801Y-104403948D01*
X110840795Y-104403952D01*
X110836760Y-104407094D01*
X110833297Y-104410855D01*
X110833288Y-104410864D01*
X110687753Y-104568956D01*
X110687747Y-104568963D01*
X110684278Y-104572732D01*
X110681481Y-104577012D01*
X110681474Y-104577022D01*
X110563942Y-104756920D01*
X110561140Y-104761209D01*
X110559085Y-104765892D01*
X110559080Y-104765903D01*
X110472764Y-104962687D01*
X110470704Y-104967384D01*
X110469446Y-104972349D01*
X110469445Y-104972354D01*
X110416695Y-105180657D01*
X110416693Y-105180666D01*
X110415436Y-105185632D01*
X110415012Y-105190741D01*
X110415011Y-105190751D01*
X110397268Y-105404883D01*
X110396844Y-105410000D01*
X110397268Y-105415117D01*
X110415011Y-105629248D01*
X110415012Y-105629256D01*
X110415436Y-105634368D01*
X110416693Y-105639335D01*
X110416695Y-105639342D01*
X110469445Y-105847645D01*
X110470704Y-105852616D01*
X110472764Y-105857312D01*
X110559080Y-106054096D01*
X110559083Y-106054101D01*
X110561140Y-106058791D01*
X110620505Y-106149656D01*
X110681474Y-106242977D01*
X110681477Y-106242981D01*
X110684278Y-106247268D01*
X110687752Y-106251041D01*
X110687753Y-106251043D01*
X110833288Y-106409135D01*
X110833291Y-106409138D01*
X110836760Y-106412906D01*
X110840801Y-106416051D01*
X111010376Y-106548039D01*
X111010381Y-106548042D01*
X111014424Y-106551189D01*
X111050930Y-106570945D01*
X111098434Y-106616523D01*
X111115913Y-106679996D01*
X111098437Y-106743471D01*
X111050933Y-106789053D01*
X111018930Y-106806372D01*
X111018925Y-106806374D01*
X111014424Y-106808811D01*
X111010389Y-106811951D01*
X111010376Y-106811960D01*
X110840801Y-106943948D01*
X110840795Y-106943952D01*
X110836760Y-106947094D01*
X110833297Y-106950855D01*
X110833288Y-106950864D01*
X110687753Y-107108956D01*
X110687747Y-107108963D01*
X110684278Y-107112732D01*
X110681481Y-107117012D01*
X110681474Y-107117022D01*
X110563942Y-107296920D01*
X110561140Y-107301209D01*
X110559085Y-107305892D01*
X110559080Y-107305903D01*
X110472764Y-107502687D01*
X110470704Y-107507384D01*
X110469446Y-107512349D01*
X110469445Y-107512354D01*
X110416695Y-107720657D01*
X110416693Y-107720666D01*
X110415436Y-107725632D01*
X110415012Y-107730741D01*
X110415011Y-107730751D01*
X110397268Y-107944883D01*
X110396844Y-107950000D01*
X110397268Y-107955117D01*
X110415011Y-108169248D01*
X110415012Y-108169256D01*
X110415436Y-108174368D01*
X110416693Y-108179335D01*
X110416695Y-108179342D01*
X110430621Y-108234334D01*
X110470704Y-108392616D01*
X110472764Y-108397312D01*
X110559080Y-108594096D01*
X110559083Y-108594101D01*
X110561140Y-108598791D01*
X110609805Y-108673279D01*
X110681474Y-108782977D01*
X110681477Y-108782981D01*
X110684278Y-108787268D01*
X110687752Y-108791041D01*
X110687753Y-108791043D01*
X110833288Y-108949135D01*
X110833291Y-108949138D01*
X110836760Y-108952906D01*
X110840801Y-108956051D01*
X111010376Y-109088039D01*
X111010381Y-109088042D01*
X111014424Y-109091189D01*
X111050930Y-109110945D01*
X111098434Y-109156523D01*
X111115913Y-109219996D01*
X111098437Y-109283471D01*
X111050933Y-109329053D01*
X111018930Y-109346372D01*
X111018925Y-109346374D01*
X111014424Y-109348811D01*
X111010389Y-109351951D01*
X111010376Y-109351960D01*
X110840801Y-109483948D01*
X110840795Y-109483952D01*
X110836760Y-109487094D01*
X110833297Y-109490855D01*
X110833288Y-109490864D01*
X110687753Y-109648956D01*
X110687747Y-109648963D01*
X110684278Y-109652732D01*
X110681481Y-109657012D01*
X110681474Y-109657022D01*
X110578405Y-109814783D01*
X110561140Y-109841209D01*
X110559085Y-109845892D01*
X110559080Y-109845903D01*
X110480436Y-110025197D01*
X110470704Y-110047384D01*
X110469446Y-110052349D01*
X110469445Y-110052354D01*
X110416695Y-110260657D01*
X110416693Y-110260666D01*
X110415436Y-110265632D01*
X110415012Y-110270741D01*
X110415011Y-110270751D01*
X110404711Y-110395057D01*
X110396844Y-110490000D01*
X110397268Y-110495117D01*
X110415011Y-110709248D01*
X110415012Y-110709256D01*
X110415436Y-110714368D01*
X110416693Y-110719335D01*
X110416695Y-110719342D01*
X110457315Y-110879744D01*
X110470704Y-110932616D01*
X110472764Y-110937312D01*
X110559080Y-111134096D01*
X110559083Y-111134101D01*
X110561140Y-111138791D01*
X110620505Y-111229656D01*
X110681474Y-111322977D01*
X110681477Y-111322981D01*
X110684278Y-111327268D01*
X110687752Y-111331041D01*
X110687753Y-111331043D01*
X110833288Y-111489135D01*
X110833291Y-111489138D01*
X110836760Y-111492906D01*
X110840801Y-111496051D01*
X111010376Y-111628039D01*
X111010381Y-111628042D01*
X111014424Y-111631189D01*
X111050930Y-111650945D01*
X111098434Y-111696523D01*
X111115913Y-111759996D01*
X111098437Y-111823471D01*
X111050933Y-111869053D01*
X111018930Y-111886372D01*
X111018925Y-111886374D01*
X111014424Y-111888811D01*
X111010389Y-111891951D01*
X111010376Y-111891960D01*
X110840801Y-112023948D01*
X110840795Y-112023952D01*
X110836760Y-112027094D01*
X110833297Y-112030855D01*
X110833288Y-112030864D01*
X110687753Y-112188956D01*
X110687747Y-112188963D01*
X110684278Y-112192732D01*
X110681481Y-112197012D01*
X110681474Y-112197022D01*
X110574794Y-112360310D01*
X110561140Y-112381209D01*
X110559085Y-112385892D01*
X110559080Y-112385903D01*
X110479754Y-112566752D01*
X110470704Y-112587384D01*
X110469446Y-112592349D01*
X110469445Y-112592354D01*
X110416695Y-112800657D01*
X110416693Y-112800666D01*
X110415436Y-112805632D01*
X110415012Y-112810741D01*
X110415011Y-112810751D01*
X110408666Y-112887329D01*
X110396844Y-113030000D01*
X110397268Y-113035117D01*
X110415011Y-113249248D01*
X110415012Y-113249256D01*
X110415436Y-113254368D01*
X110416693Y-113259335D01*
X110416695Y-113259342D01*
X110454134Y-113407182D01*
X110470704Y-113472616D01*
X110472764Y-113477312D01*
X110559080Y-113674096D01*
X110559083Y-113674101D01*
X110561140Y-113678791D01*
X110573532Y-113697758D01*
X110681474Y-113862977D01*
X110681477Y-113862981D01*
X110684278Y-113867268D01*
X110687752Y-113871041D01*
X110687753Y-113871043D01*
X110833288Y-114029135D01*
X110833291Y-114029138D01*
X110836760Y-114032906D01*
X110840801Y-114036051D01*
X111010376Y-114168039D01*
X111010381Y-114168042D01*
X111014424Y-114171189D01*
X111018931Y-114173628D01*
X111018934Y-114173630D01*
X111127556Y-114232413D01*
X111212426Y-114278342D01*
X111425365Y-114351444D01*
X111647431Y-114388500D01*
X111867436Y-114388500D01*
X111872569Y-114388500D01*
X112094635Y-114351444D01*
X112307574Y-114278342D01*
X112505576Y-114171189D01*
X112683240Y-114032906D01*
X112835722Y-113867268D01*
X112958860Y-113678791D01*
X113049296Y-113472616D01*
X113104564Y-113254368D01*
X113123156Y-113030000D01*
X113104564Y-112805632D01*
X113049296Y-112587384D01*
X112958860Y-112381209D01*
X112835722Y-112192732D01*
X112815239Y-112170482D01*
X112686711Y-112030864D01*
X112686708Y-112030861D01*
X112683240Y-112027094D01*
X112661264Y-112009989D01*
X112509623Y-111891960D01*
X112509615Y-111891955D01*
X112505576Y-111888811D01*
X112501066Y-111886370D01*
X112501061Y-111886367D01*
X112469070Y-111869055D01*
X112421564Y-111823474D01*
X112404086Y-111760000D01*
X112421564Y-111696526D01*
X112469070Y-111650945D01*
X112476737Y-111646796D01*
X112505576Y-111631189D01*
X112683240Y-111492906D01*
X112835722Y-111327268D01*
X112958860Y-111138791D01*
X113049296Y-110932616D01*
X113104564Y-110714368D01*
X113123156Y-110490000D01*
X113104564Y-110265632D01*
X113049296Y-110047384D01*
X112958860Y-109841209D01*
X112835722Y-109652732D01*
X112771442Y-109582906D01*
X112686711Y-109490864D01*
X112686708Y-109490861D01*
X112683240Y-109487094D01*
X112626742Y-109443119D01*
X112509623Y-109351960D01*
X112509615Y-109351955D01*
X112505576Y-109348811D01*
X112501066Y-109346370D01*
X112501061Y-109346367D01*
X112469070Y-109329055D01*
X112421564Y-109283474D01*
X112404086Y-109220000D01*
X112421564Y-109156526D01*
X112469070Y-109110945D01*
X112469109Y-109110923D01*
X112505576Y-109091189D01*
X112683240Y-108952906D01*
X112835722Y-108787268D01*
X112958860Y-108598791D01*
X113049296Y-108392616D01*
X113104564Y-108174368D01*
X113123156Y-107950000D01*
X113104564Y-107725632D01*
X113049296Y-107507384D01*
X112958860Y-107301209D01*
X112835722Y-107112732D01*
X112683240Y-106947094D01*
X112670597Y-106937253D01*
X112509623Y-106811960D01*
X112509615Y-106811955D01*
X112505576Y-106808811D01*
X112501069Y-106806372D01*
X112501060Y-106806366D01*
X112469068Y-106789053D01*
X112421562Y-106743471D01*
X112404086Y-106679996D01*
X112421565Y-106616522D01*
X112469067Y-106570946D01*
X112505576Y-106551189D01*
X112683240Y-106412906D01*
X112835722Y-106247268D01*
X112958860Y-106058791D01*
X113049296Y-105852616D01*
X113104564Y-105634368D01*
X113123156Y-105410000D01*
X113104564Y-105185632D01*
X113049296Y-104967384D01*
X112958860Y-104761209D01*
X112835722Y-104572732D01*
X112683240Y-104407094D01*
X112670597Y-104397253D01*
X112509623Y-104271960D01*
X112509615Y-104271955D01*
X112505576Y-104268811D01*
X112501064Y-104266369D01*
X112501061Y-104266367D01*
X112469070Y-104249055D01*
X112421564Y-104203474D01*
X112404086Y-104140000D01*
X112421564Y-104076526D01*
X112469070Y-104030945D01*
X112469109Y-104030923D01*
X112505576Y-104011189D01*
X112683240Y-103872906D01*
X112835722Y-103707268D01*
X112958860Y-103518791D01*
X113049296Y-103312616D01*
X113104564Y-103094368D01*
X113123156Y-102870000D01*
X113104564Y-102645632D01*
X113049296Y-102427384D01*
X112958860Y-102221209D01*
X112835722Y-102032732D01*
X112683240Y-101867094D01*
X112670597Y-101857253D01*
X112509623Y-101731960D01*
X112509615Y-101731955D01*
X112505576Y-101728811D01*
X112501071Y-101726373D01*
X112501065Y-101726369D01*
X112312080Y-101624096D01*
X112312074Y-101624093D01*
X112307574Y-101621658D01*
X112302733Y-101619996D01*
X112302726Y-101619993D01*
X112099488Y-101550222D01*
X112099487Y-101550221D01*
X112094635Y-101548556D01*
X112089585Y-101547713D01*
X112089576Y-101547711D01*
X111877631Y-101512344D01*
X111877622Y-101512343D01*
X111872569Y-101511500D01*
X111647431Y-101511500D01*
X111642378Y-101512343D01*
X111642368Y-101512344D01*
X111430423Y-101547711D01*
X111430411Y-101547713D01*
X111425365Y-101548556D01*
X111420515Y-101550220D01*
X111420511Y-101550222D01*
X111217273Y-101619993D01*
X111217262Y-101619997D01*
X111212426Y-101621658D01*
X111207929Y-101624091D01*
X111207919Y-101624096D01*
X111018934Y-101726369D01*
X111018922Y-101726376D01*
X111014424Y-101728811D01*
X111010389Y-101731951D01*
X111010376Y-101731960D01*
X110840801Y-101863948D01*
X110840795Y-101863952D01*
X110836760Y-101867094D01*
X110833297Y-101870855D01*
X110833288Y-101870864D01*
X110687753Y-102028956D01*
X110687747Y-102028963D01*
X110684278Y-102032732D01*
X110681482Y-102037011D01*
X110681470Y-102037027D01*
X110587853Y-102180321D01*
X110543062Y-102221555D01*
X110484044Y-102236500D01*
X109298848Y-102236500D01*
X109287563Y-102235968D01*
X109280092Y-102234298D01*
X109272294Y-102234543D01*
X109211970Y-102236439D01*
X109208075Y-102236500D01*
X109180144Y-102236500D01*
X109176289Y-102236986D01*
X109176255Y-102236989D01*
X109176024Y-102237019D01*
X109164405Y-102237933D01*
X109127905Y-102239080D01*
X109127897Y-102239081D01*
X109120111Y-102239326D01*
X109112625Y-102241500D01*
X109112622Y-102241501D01*
X109100499Y-102245023D01*
X109081461Y-102248965D01*
X109068946Y-102250546D01*
X109068933Y-102250549D01*
X109061203Y-102251526D01*
X109053957Y-102254394D01*
X109053948Y-102254397D01*
X109020004Y-102267836D01*
X109008961Y-102271617D01*
X108973896Y-102281805D01*
X108973888Y-102281808D01*
X108966407Y-102283982D01*
X108959695Y-102287950D01*
X108959695Y-102287951D01*
X108948834Y-102294374D01*
X108931370Y-102302929D01*
X108919636Y-102307575D01*
X108919629Y-102307578D01*
X108912383Y-102310448D01*
X108906079Y-102315027D01*
X108906068Y-102315034D01*
X108876534Y-102336491D01*
X108866776Y-102342901D01*
X108835355Y-102361483D01*
X108835341Y-102361493D01*
X108828638Y-102365458D01*
X108823122Y-102370973D01*
X108823119Y-102370976D01*
X108814197Y-102379897D01*
X108799414Y-102392523D01*
X108789206Y-102399940D01*
X108789200Y-102399944D01*
X108782893Y-102404528D01*
X108777926Y-102410530D01*
X108777915Y-102410542D01*
X108754643Y-102438673D01*
X108746783Y-102447311D01*
X101842793Y-109351300D01*
X101834444Y-109358898D01*
X101827982Y-109363000D01*
X101822641Y-109368686D01*
X101822639Y-109368689D01*
X101781339Y-109412668D01*
X101778634Y-109415460D01*
X101758865Y-109435230D01*
X101756481Y-109438302D01*
X101756478Y-109438306D01*
X101756322Y-109438508D01*
X101748752Y-109447370D01*
X101735461Y-109461525D01*
X101718414Y-109479679D01*
X101714659Y-109486507D01*
X101714658Y-109486510D01*
X101708579Y-109497567D01*
X101697903Y-109513819D01*
X101690168Y-109523791D01*
X101690160Y-109523802D01*
X101685386Y-109529959D01*
X101682291Y-109537110D01*
X101682288Y-109537116D01*
X101667786Y-109570628D01*
X101662648Y-109581115D01*
X101645065Y-109613098D01*
X101645061Y-109613106D01*
X101641305Y-109619940D01*
X101639366Y-109627491D01*
X101639363Y-109627499D01*
X101636225Y-109639722D01*
X101629926Y-109658119D01*
X101621819Y-109676855D01*
X101620599Y-109684553D01*
X101620598Y-109684559D01*
X101614888Y-109720611D01*
X101612520Y-109732045D01*
X101603438Y-109767417D01*
X101603436Y-109767426D01*
X101601500Y-109774970D01*
X101601500Y-109782766D01*
X101601500Y-109795385D01*
X101599972Y-109814783D01*
X101596780Y-109834943D01*
X101597514Y-109842708D01*
X101597514Y-109842711D01*
X101600950Y-109879058D01*
X101601500Y-109890727D01*
X101601500Y-111646796D01*
X101582081Y-111713421D01*
X101529906Y-111759178D01*
X101461317Y-111769735D01*
X101439024Y-111766800D01*
X101439012Y-111766799D01*
X101435000Y-111766271D01*
X100863111Y-111766271D01*
X100858742Y-111766899D01*
X100858730Y-111766900D01*
X100722763Y-111786449D01*
X100722755Y-111786450D01*
X100718378Y-111787080D01*
X100714135Y-111788325D01*
X100714125Y-111788328D01*
X100584676Y-111826338D01*
X100584673Y-111826339D01*
X100580423Y-111827587D01*
X100576401Y-111829423D01*
X100576387Y-111829429D01*
X100451448Y-111886487D01*
X100451439Y-111886491D01*
X100447414Y-111888330D01*
X100443699Y-111890717D01*
X100443687Y-111890724D01*
X100328320Y-111964866D01*
X100328307Y-111964874D01*
X100326460Y-111966062D01*
X100324705Y-111967375D01*
X100324683Y-111967391D01*
X100271331Y-112007330D01*
X100271324Y-112007335D01*
X100267780Y-112009989D01*
X100264649Y-112013119D01*
X100264642Y-112013126D01*
X100217526Y-112060243D01*
X100217512Y-112060257D01*
X100215949Y-112061821D01*
X100214503Y-112063489D01*
X100214486Y-112063508D01*
X100124698Y-112167131D01*
X100124694Y-112167136D01*
X100121795Y-112170482D01*
X100119403Y-112174203D01*
X100119397Y-112174212D01*
X100045141Y-112289756D01*
X100045133Y-112289770D01*
X100042744Y-112293488D01*
X100028803Y-112324013D01*
X100001581Y-112362242D01*
X99962098Y-112387617D01*
X99916011Y-112396500D01*
X99132309Y-112396500D01*
X99081874Y-112385780D01*
X99045978Y-112359700D01*
X99045429Y-112360310D01*
X99040598Y-112355960D01*
X99036253Y-112351134D01*
X99031003Y-112347319D01*
X99030999Y-112347316D01*
X98887006Y-112242699D01*
X98887004Y-112242697D01*
X98881752Y-112238882D01*
X98875821Y-112236241D01*
X98875817Y-112236239D01*
X98713226Y-112163849D01*
X98713219Y-112163846D01*
X98707288Y-112161206D01*
X98700935Y-112159855D01*
X98700927Y-112159853D01*
X98526849Y-112122852D01*
X98526846Y-112122851D01*
X98520487Y-112121500D01*
X98329513Y-112121500D01*
X98323154Y-112122851D01*
X98323150Y-112122852D01*
X98149072Y-112159853D01*
X98149061Y-112159856D01*
X98142712Y-112161206D01*
X98136782Y-112163845D01*
X98136773Y-112163849D01*
X97974182Y-112236239D01*
X97974174Y-112236243D01*
X97968248Y-112238882D01*
X97962999Y-112242695D01*
X97962993Y-112242699D01*
X97819000Y-112347316D01*
X97818991Y-112347323D01*
X97813747Y-112351134D01*
X97809403Y-112355957D01*
X97809400Y-112355961D01*
X97690307Y-112488228D01*
X97685960Y-112493056D01*
X97682714Y-112498676D01*
X97682711Y-112498682D01*
X97593721Y-112652817D01*
X97593718Y-112652822D01*
X97590473Y-112658444D01*
X97588467Y-112664616D01*
X97588465Y-112664622D01*
X97533465Y-112833892D01*
X97533463Y-112833901D01*
X97531458Y-112840072D01*
X97530780Y-112846522D01*
X97530778Y-112846532D01*
X97512778Y-113017795D01*
X97511496Y-113030000D01*
X59690500Y-113030000D01*
X59690500Y-112890814D01*
X59690500Y-112887329D01*
X59658552Y-112603780D01*
X59595057Y-112325591D01*
X59500814Y-112056261D01*
X59377009Y-111799176D01*
X59225197Y-111557569D01*
X59047289Y-111334479D01*
X58845521Y-111132711D01*
X58622431Y-110954803D01*
X58619487Y-110952953D01*
X58383769Y-110804841D01*
X58383762Y-110804837D01*
X58380824Y-110802991D01*
X58377689Y-110801481D01*
X58377685Y-110801479D01*
X58126879Y-110680698D01*
X58126876Y-110680697D01*
X58123739Y-110679186D01*
X58120454Y-110678036D01*
X58120448Y-110678034D01*
X57857706Y-110586096D01*
X57857695Y-110586092D01*
X57854409Y-110584943D01*
X57851015Y-110584168D01*
X57851007Y-110584166D01*
X57579619Y-110522223D01*
X57579605Y-110522220D01*
X57576220Y-110521448D01*
X57572753Y-110521057D01*
X57572751Y-110521057D01*
X57296137Y-110489890D01*
X57296127Y-110489889D01*
X57292671Y-110489500D01*
X57289186Y-110489500D01*
X49533481Y-110489500D01*
X49526528Y-110489305D01*
X49522045Y-110489053D01*
X49414774Y-110483028D01*
X49414242Y-110482997D01*
X49245670Y-110472801D01*
X49232385Y-110471275D01*
X49100446Y-110448857D01*
X49098865Y-110448578D01*
X48953807Y-110421995D01*
X48941831Y-110419180D01*
X48809246Y-110380983D01*
X48806684Y-110380214D01*
X48669866Y-110337580D01*
X48659303Y-110333756D01*
X48530291Y-110280317D01*
X48526873Y-110278841D01*
X48397713Y-110220710D01*
X48388626Y-110216164D01*
X48265667Y-110148207D01*
X48261498Y-110145796D01*
X48141010Y-110072958D01*
X48133406Y-110067971D01*
X48018473Y-109986423D01*
X48013754Y-109982904D01*
X47903246Y-109896326D01*
X47897092Y-109891175D01*
X47791865Y-109797139D01*
X47786811Y-109792360D01*
X47687638Y-109693187D01*
X47682859Y-109688133D01*
X47588823Y-109582906D01*
X47583672Y-109576752D01*
X47552619Y-109537116D01*
X47497078Y-109466223D01*
X47493575Y-109461525D01*
X47412027Y-109346592D01*
X47407040Y-109338988D01*
X47335109Y-109220000D01*
X47334198Y-109218494D01*
X47331791Y-109214331D01*
X47313272Y-109180824D01*
X47263832Y-109091369D01*
X47259298Y-109082306D01*
X47201130Y-108953063D01*
X47199693Y-108949736D01*
X47146237Y-108820682D01*
X47142423Y-108810146D01*
X47099773Y-108673279D01*
X47099015Y-108670752D01*
X47079519Y-108603079D01*
X47060814Y-108538153D01*
X47058007Y-108526210D01*
X47031397Y-108381007D01*
X47031160Y-108379665D01*
X47008720Y-108247591D01*
X47007199Y-108234353D01*
X46996983Y-108065453D01*
X46990694Y-107953471D01*
X46990597Y-107950000D01*
X49436844Y-107950000D01*
X49437268Y-107955117D01*
X49455011Y-108169248D01*
X49455012Y-108169256D01*
X49455436Y-108174368D01*
X49456693Y-108179335D01*
X49456695Y-108179342D01*
X49470621Y-108234334D01*
X49510704Y-108392616D01*
X49512764Y-108397312D01*
X49599080Y-108594096D01*
X49599083Y-108594101D01*
X49601140Y-108598791D01*
X49649805Y-108673279D01*
X49721474Y-108782977D01*
X49721477Y-108782981D01*
X49724278Y-108787268D01*
X49727752Y-108791041D01*
X49727753Y-108791043D01*
X49873288Y-108949135D01*
X49873291Y-108949138D01*
X49876760Y-108952906D01*
X49880801Y-108956051D01*
X50050376Y-109088039D01*
X50050381Y-109088042D01*
X50054424Y-109091189D01*
X50058931Y-109093628D01*
X50058934Y-109093630D01*
X50220055Y-109180824D01*
X50252426Y-109198342D01*
X50465365Y-109271444D01*
X50687431Y-109308500D01*
X50907436Y-109308500D01*
X50912569Y-109308500D01*
X51134635Y-109271444D01*
X51347574Y-109198342D01*
X51545576Y-109091189D01*
X51723240Y-108952906D01*
X51875722Y-108787268D01*
X51998860Y-108598791D01*
X52089296Y-108392616D01*
X52144564Y-108174368D01*
X52163156Y-107950000D01*
X52144564Y-107725632D01*
X52089296Y-107507384D01*
X51998860Y-107301209D01*
X51875722Y-107112732D01*
X51723240Y-106947094D01*
X51710597Y-106937253D01*
X51549623Y-106811960D01*
X51549615Y-106811955D01*
X51545576Y-106808811D01*
X51541064Y-106806369D01*
X51541061Y-106806367D01*
X51509070Y-106789055D01*
X51461564Y-106743474D01*
X51444086Y-106680000D01*
X51461564Y-106616526D01*
X51509070Y-106570945D01*
X51509109Y-106570923D01*
X51545576Y-106551189D01*
X51723240Y-106412906D01*
X51875722Y-106247268D01*
X51998860Y-106058791D01*
X52089296Y-105852616D01*
X52144564Y-105634368D01*
X52163156Y-105410000D01*
X52144564Y-105185632D01*
X52089296Y-104967384D01*
X51998860Y-104761209D01*
X51875722Y-104572732D01*
X51723240Y-104407094D01*
X51710597Y-104397253D01*
X51549623Y-104271960D01*
X51549615Y-104271955D01*
X51545576Y-104268811D01*
X51541064Y-104266369D01*
X51541061Y-104266367D01*
X51509070Y-104249055D01*
X51461564Y-104203474D01*
X51444086Y-104140000D01*
X51461564Y-104076526D01*
X51509070Y-104030945D01*
X51509109Y-104030923D01*
X51545576Y-104011189D01*
X51723240Y-103872906D01*
X51875722Y-103707268D01*
X51998860Y-103518791D01*
X52089296Y-103312616D01*
X52144564Y-103094368D01*
X52163156Y-102870000D01*
X52144564Y-102645632D01*
X52089296Y-102427384D01*
X51998860Y-102221209D01*
X51875722Y-102032732D01*
X51723240Y-101867094D01*
X51710597Y-101857253D01*
X51549623Y-101731960D01*
X51549615Y-101731955D01*
X51545576Y-101728811D01*
X51541071Y-101726373D01*
X51541065Y-101726369D01*
X51352080Y-101624096D01*
X51352074Y-101624093D01*
X51347574Y-101621658D01*
X51342733Y-101619996D01*
X51342726Y-101619993D01*
X51139488Y-101550222D01*
X51139487Y-101550221D01*
X51134635Y-101548556D01*
X51129585Y-101547713D01*
X51129576Y-101547711D01*
X50917631Y-101512344D01*
X50917622Y-101512343D01*
X50912569Y-101511500D01*
X50687431Y-101511500D01*
X50682378Y-101512343D01*
X50682368Y-101512344D01*
X50470423Y-101547711D01*
X50470411Y-101547713D01*
X50465365Y-101548556D01*
X50460515Y-101550220D01*
X50460511Y-101550222D01*
X50257273Y-101619993D01*
X50257262Y-101619997D01*
X50252426Y-101621658D01*
X50247929Y-101624091D01*
X50247919Y-101624096D01*
X50058934Y-101726369D01*
X50058922Y-101726376D01*
X50054424Y-101728811D01*
X50050389Y-101731951D01*
X50050376Y-101731960D01*
X49880801Y-101863948D01*
X49880795Y-101863952D01*
X49876760Y-101867094D01*
X49873297Y-101870855D01*
X49873288Y-101870864D01*
X49727753Y-102028956D01*
X49727747Y-102028963D01*
X49724278Y-102032732D01*
X49721481Y-102037012D01*
X49721474Y-102037022D01*
X49627853Y-102180321D01*
X49601140Y-102221209D01*
X49599085Y-102225892D01*
X49599080Y-102225903D01*
X49512764Y-102422687D01*
X49510704Y-102427384D01*
X49509446Y-102432349D01*
X49509445Y-102432354D01*
X49456695Y-102640657D01*
X49456693Y-102640666D01*
X49455436Y-102645632D01*
X49455012Y-102650741D01*
X49455011Y-102650751D01*
X49437268Y-102864883D01*
X49436844Y-102870000D01*
X49437268Y-102875117D01*
X49455011Y-103089248D01*
X49455012Y-103089256D01*
X49455436Y-103094368D01*
X49456693Y-103099335D01*
X49456695Y-103099342D01*
X49509445Y-103307645D01*
X49510704Y-103312616D01*
X49512764Y-103317312D01*
X49599080Y-103514096D01*
X49599083Y-103514101D01*
X49601140Y-103518791D01*
X49660505Y-103609656D01*
X49721474Y-103702977D01*
X49721477Y-103702981D01*
X49724278Y-103707268D01*
X49727752Y-103711041D01*
X49727753Y-103711043D01*
X49873288Y-103869135D01*
X49873291Y-103869138D01*
X49876760Y-103872906D01*
X49880801Y-103876051D01*
X50050376Y-104008039D01*
X50050381Y-104008042D01*
X50054424Y-104011189D01*
X50058931Y-104013628D01*
X50058934Y-104013630D01*
X50090930Y-104030945D01*
X50138436Y-104076526D01*
X50155913Y-104140000D01*
X50138436Y-104203474D01*
X50090930Y-104249055D01*
X50058934Y-104266369D01*
X50058922Y-104266376D01*
X50054424Y-104268811D01*
X50050389Y-104271951D01*
X50050376Y-104271960D01*
X49880801Y-104403948D01*
X49880795Y-104403952D01*
X49876760Y-104407094D01*
X49873297Y-104410855D01*
X49873288Y-104410864D01*
X49727753Y-104568956D01*
X49727747Y-104568963D01*
X49724278Y-104572732D01*
X49721481Y-104577012D01*
X49721474Y-104577022D01*
X49603942Y-104756920D01*
X49601140Y-104761209D01*
X49599085Y-104765892D01*
X49599080Y-104765903D01*
X49512764Y-104962687D01*
X49510704Y-104967384D01*
X49509446Y-104972349D01*
X49509445Y-104972354D01*
X49456695Y-105180657D01*
X49456693Y-105180666D01*
X49455436Y-105185632D01*
X49455012Y-105190741D01*
X49455011Y-105190751D01*
X49437268Y-105404883D01*
X49436844Y-105410000D01*
X49437268Y-105415117D01*
X49455011Y-105629248D01*
X49455012Y-105629256D01*
X49455436Y-105634368D01*
X49456693Y-105639335D01*
X49456695Y-105639342D01*
X49509445Y-105847645D01*
X49510704Y-105852616D01*
X49512764Y-105857312D01*
X49599080Y-106054096D01*
X49599083Y-106054101D01*
X49601140Y-106058791D01*
X49660505Y-106149656D01*
X49721474Y-106242977D01*
X49721477Y-106242981D01*
X49724278Y-106247268D01*
X49727752Y-106251041D01*
X49727753Y-106251043D01*
X49873288Y-106409135D01*
X49873291Y-106409138D01*
X49876760Y-106412906D01*
X49880801Y-106416051D01*
X50050376Y-106548039D01*
X50050381Y-106548042D01*
X50054424Y-106551189D01*
X50058931Y-106553628D01*
X50058934Y-106553630D01*
X50090930Y-106570945D01*
X50138436Y-106616526D01*
X50155913Y-106680000D01*
X50138436Y-106743474D01*
X50090930Y-106789055D01*
X50058934Y-106806369D01*
X50058922Y-106806376D01*
X50054424Y-106808811D01*
X50050389Y-106811951D01*
X50050376Y-106811960D01*
X49880801Y-106943948D01*
X49880795Y-106943952D01*
X49876760Y-106947094D01*
X49873297Y-106950855D01*
X49873288Y-106950864D01*
X49727753Y-107108956D01*
X49727747Y-107108963D01*
X49724278Y-107112732D01*
X49721481Y-107117012D01*
X49721474Y-107117022D01*
X49603942Y-107296920D01*
X49601140Y-107301209D01*
X49599085Y-107305892D01*
X49599080Y-107305903D01*
X49512764Y-107502687D01*
X49510704Y-107507384D01*
X49509446Y-107512349D01*
X49509445Y-107512354D01*
X49456695Y-107720657D01*
X49456693Y-107720666D01*
X49455436Y-107725632D01*
X49455012Y-107730741D01*
X49455011Y-107730751D01*
X49437268Y-107944883D01*
X49436844Y-107950000D01*
X46990597Y-107950000D01*
X46990500Y-107946521D01*
X46990500Y-69850000D01*
X49436844Y-69850000D01*
X49437268Y-69855117D01*
X49455011Y-70069248D01*
X49455012Y-70069256D01*
X49455436Y-70074368D01*
X49456693Y-70079335D01*
X49456695Y-70079342D01*
X49509445Y-70287645D01*
X49510704Y-70292616D01*
X49512764Y-70297312D01*
X49599080Y-70494096D01*
X49599083Y-70494101D01*
X49601140Y-70498791D01*
X49660505Y-70589656D01*
X49721474Y-70682977D01*
X49721477Y-70682981D01*
X49724278Y-70687268D01*
X49727752Y-70691041D01*
X49727753Y-70691043D01*
X49873288Y-70849135D01*
X49873291Y-70849138D01*
X49876760Y-70852906D01*
X49880801Y-70856051D01*
X50050376Y-70988039D01*
X50050381Y-70988042D01*
X50054424Y-70991189D01*
X50058931Y-70993628D01*
X50058934Y-70993630D01*
X50247919Y-71095903D01*
X50252426Y-71098342D01*
X50465365Y-71171444D01*
X50687431Y-71208500D01*
X50907436Y-71208500D01*
X50912569Y-71208500D01*
X51134635Y-71171444D01*
X51347574Y-71098342D01*
X51545576Y-70991189D01*
X51723240Y-70852906D01*
X51875722Y-70687268D01*
X51998860Y-70498791D01*
X52089296Y-70292616D01*
X52144564Y-70074368D01*
X52163156Y-69850000D01*
X110396844Y-69850000D01*
X110397268Y-69855117D01*
X110415011Y-70069248D01*
X110415012Y-70069256D01*
X110415436Y-70074368D01*
X110416693Y-70079335D01*
X110416695Y-70079342D01*
X110469445Y-70287645D01*
X110470704Y-70292616D01*
X110472764Y-70297312D01*
X110559080Y-70494096D01*
X110559083Y-70494101D01*
X110561140Y-70498791D01*
X110620505Y-70589656D01*
X110681474Y-70682977D01*
X110681477Y-70682981D01*
X110684278Y-70687268D01*
X110687752Y-70691041D01*
X110687753Y-70691043D01*
X110833288Y-70849135D01*
X110833291Y-70849138D01*
X110836760Y-70852906D01*
X110840801Y-70856051D01*
X111010376Y-70988039D01*
X111010381Y-70988042D01*
X111014424Y-70991189D01*
X111018931Y-70993628D01*
X111018934Y-70993630D01*
X111207919Y-71095903D01*
X111212426Y-71098342D01*
X111425365Y-71171444D01*
X111647431Y-71208500D01*
X111867436Y-71208500D01*
X111872569Y-71208500D01*
X112094635Y-71171444D01*
X112307574Y-71098342D01*
X112505576Y-70991189D01*
X112683240Y-70852906D01*
X112835722Y-70687268D01*
X112958860Y-70498791D01*
X113049296Y-70292616D01*
X113104564Y-70074368D01*
X113123156Y-69850000D01*
X113104564Y-69625632D01*
X113049296Y-69407384D01*
X112958860Y-69201209D01*
X112835722Y-69012732D01*
X112683240Y-68847094D01*
X112670597Y-68837253D01*
X112509623Y-68711960D01*
X112509615Y-68711955D01*
X112505576Y-68708811D01*
X112501064Y-68706369D01*
X112501061Y-68706367D01*
X112469070Y-68689055D01*
X112421564Y-68643474D01*
X112404086Y-68580000D01*
X112421564Y-68516526D01*
X112469070Y-68470945D01*
X112469109Y-68470923D01*
X112505576Y-68451189D01*
X112683240Y-68312906D01*
X112835722Y-68147268D01*
X112958860Y-67958791D01*
X113049296Y-67752616D01*
X113104564Y-67534368D01*
X113123156Y-67310000D01*
X113104564Y-67085632D01*
X113049296Y-66867384D01*
X112958860Y-66661209D01*
X112835722Y-66472732D01*
X112683240Y-66307094D01*
X112670597Y-66297253D01*
X112509623Y-66171960D01*
X112509615Y-66171955D01*
X112505576Y-66168811D01*
X112501069Y-66166372D01*
X112501060Y-66166366D01*
X112469068Y-66149053D01*
X112421562Y-66103471D01*
X112404086Y-66039996D01*
X112421565Y-65976522D01*
X112469067Y-65930946D01*
X112505576Y-65911189D01*
X112683240Y-65772906D01*
X112835722Y-65607268D01*
X112958860Y-65418791D01*
X113049296Y-65212616D01*
X113104564Y-64994368D01*
X113123156Y-64770000D01*
X113104564Y-64545632D01*
X113049296Y-64327384D01*
X112958860Y-64121209D01*
X112835722Y-63932732D01*
X112832246Y-63928956D01*
X112686711Y-63770864D01*
X112686708Y-63770861D01*
X112683240Y-63767094D01*
X112670597Y-63757253D01*
X112509623Y-63631960D01*
X112509615Y-63631955D01*
X112505576Y-63628811D01*
X112501071Y-63626373D01*
X112501065Y-63626369D01*
X112312080Y-63524096D01*
X112312074Y-63524093D01*
X112307574Y-63521658D01*
X112302733Y-63519996D01*
X112302726Y-63519993D01*
X112099488Y-63450222D01*
X112099487Y-63450221D01*
X112094635Y-63448556D01*
X112089585Y-63447713D01*
X112089576Y-63447711D01*
X111877631Y-63412344D01*
X111877622Y-63412343D01*
X111872569Y-63411500D01*
X111647431Y-63411500D01*
X111642378Y-63412343D01*
X111642368Y-63412344D01*
X111430423Y-63447711D01*
X111430411Y-63447713D01*
X111425365Y-63448556D01*
X111420515Y-63450220D01*
X111420511Y-63450222D01*
X111217273Y-63519993D01*
X111217262Y-63519997D01*
X111212426Y-63521658D01*
X111207929Y-63524091D01*
X111207919Y-63524096D01*
X111018934Y-63626369D01*
X111018922Y-63626376D01*
X111014424Y-63628811D01*
X111010389Y-63631951D01*
X111010376Y-63631960D01*
X110840801Y-63763948D01*
X110840795Y-63763952D01*
X110836760Y-63767094D01*
X110833297Y-63770855D01*
X110833288Y-63770864D01*
X110687753Y-63928956D01*
X110687747Y-63928963D01*
X110684278Y-63932732D01*
X110681481Y-63937012D01*
X110681474Y-63937022D01*
X110622818Y-64026803D01*
X110561140Y-64121209D01*
X110559085Y-64125892D01*
X110559080Y-64125903D01*
X110522101Y-64210209D01*
X110470704Y-64327384D01*
X110469446Y-64332349D01*
X110469445Y-64332354D01*
X110416695Y-64540657D01*
X110416693Y-64540666D01*
X110415436Y-64545632D01*
X110415012Y-64550741D01*
X110415011Y-64550751D01*
X110397268Y-64764883D01*
X110396844Y-64770000D01*
X110397268Y-64775117D01*
X110415011Y-64989248D01*
X110415012Y-64989256D01*
X110415436Y-64994368D01*
X110416693Y-64999335D01*
X110416695Y-64999342D01*
X110469445Y-65207645D01*
X110470704Y-65212616D01*
X110472764Y-65217312D01*
X110559080Y-65414096D01*
X110559083Y-65414101D01*
X110561140Y-65418791D01*
X110620505Y-65509656D01*
X110681474Y-65602977D01*
X110681477Y-65602981D01*
X110684278Y-65607268D01*
X110687752Y-65611041D01*
X110687753Y-65611043D01*
X110833288Y-65769135D01*
X110833291Y-65769138D01*
X110836760Y-65772906D01*
X110840801Y-65776051D01*
X111010376Y-65908039D01*
X111010381Y-65908042D01*
X111014424Y-65911189D01*
X111050930Y-65930945D01*
X111098434Y-65976523D01*
X111115913Y-66039996D01*
X111098437Y-66103471D01*
X111050933Y-66149053D01*
X111018930Y-66166372D01*
X111018925Y-66166374D01*
X111014424Y-66168811D01*
X111010389Y-66171951D01*
X111010376Y-66171960D01*
X110840801Y-66303948D01*
X110840795Y-66303952D01*
X110836760Y-66307094D01*
X110833297Y-66310855D01*
X110833288Y-66310864D01*
X110687753Y-66468956D01*
X110687747Y-66468963D01*
X110684278Y-66472732D01*
X110681481Y-66477012D01*
X110681474Y-66477022D01*
X110563942Y-66656920D01*
X110561140Y-66661209D01*
X110559085Y-66665892D01*
X110559080Y-66665903D01*
X110472764Y-66862687D01*
X110470704Y-66867384D01*
X110469446Y-66872349D01*
X110469445Y-66872354D01*
X110416695Y-67080657D01*
X110416693Y-67080666D01*
X110415436Y-67085632D01*
X110415012Y-67090741D01*
X110415011Y-67090751D01*
X110397268Y-67304883D01*
X110396844Y-67310000D01*
X110397268Y-67315117D01*
X110415011Y-67529248D01*
X110415012Y-67529256D01*
X110415436Y-67534368D01*
X110416693Y-67539335D01*
X110416695Y-67539342D01*
X110469445Y-67747645D01*
X110470704Y-67752616D01*
X110472764Y-67757312D01*
X110559080Y-67954096D01*
X110559083Y-67954101D01*
X110561140Y-67958791D01*
X110620505Y-68049656D01*
X110681474Y-68142977D01*
X110681477Y-68142981D01*
X110684278Y-68147268D01*
X110687752Y-68151041D01*
X110687753Y-68151043D01*
X110833288Y-68309135D01*
X110833291Y-68309138D01*
X110836760Y-68312906D01*
X110840801Y-68316051D01*
X111010376Y-68448039D01*
X111010381Y-68448042D01*
X111014424Y-68451189D01*
X111018931Y-68453628D01*
X111018934Y-68453630D01*
X111050930Y-68470945D01*
X111098436Y-68516526D01*
X111115913Y-68580000D01*
X111098436Y-68643474D01*
X111050930Y-68689055D01*
X111018934Y-68706369D01*
X111018922Y-68706376D01*
X111014424Y-68708811D01*
X111010389Y-68711951D01*
X111010376Y-68711960D01*
X110840801Y-68843948D01*
X110840795Y-68843952D01*
X110836760Y-68847094D01*
X110833297Y-68850855D01*
X110833288Y-68850864D01*
X110687753Y-69008956D01*
X110687747Y-69008963D01*
X110684278Y-69012732D01*
X110681481Y-69017012D01*
X110681474Y-69017022D01*
X110563942Y-69196920D01*
X110561140Y-69201209D01*
X110559085Y-69205892D01*
X110559080Y-69205903D01*
X110472764Y-69402687D01*
X110470704Y-69407384D01*
X110469446Y-69412349D01*
X110469445Y-69412354D01*
X110416695Y-69620657D01*
X110416693Y-69620666D01*
X110415436Y-69625632D01*
X110415012Y-69630741D01*
X110415011Y-69630751D01*
X110397268Y-69844883D01*
X110396844Y-69850000D01*
X52163156Y-69850000D01*
X52144564Y-69625632D01*
X52089296Y-69407384D01*
X51998860Y-69201209D01*
X51875722Y-69012732D01*
X51723240Y-68847094D01*
X51710597Y-68837253D01*
X51549623Y-68711960D01*
X51549615Y-68711955D01*
X51545576Y-68708811D01*
X51541064Y-68706369D01*
X51541061Y-68706367D01*
X51509070Y-68689055D01*
X51461564Y-68643474D01*
X51444086Y-68580000D01*
X51461564Y-68516526D01*
X51509070Y-68470945D01*
X51509109Y-68470923D01*
X51545576Y-68451189D01*
X51723240Y-68312906D01*
X51875722Y-68147268D01*
X51998860Y-67958791D01*
X52089296Y-67752616D01*
X52144564Y-67534368D01*
X52163156Y-67310000D01*
X52144564Y-67085632D01*
X52089296Y-66867384D01*
X51998860Y-66661209D01*
X51875722Y-66472732D01*
X51723240Y-66307094D01*
X51710597Y-66297253D01*
X51549623Y-66171960D01*
X51549615Y-66171955D01*
X51545576Y-66168811D01*
X51541069Y-66166372D01*
X51541060Y-66166366D01*
X51509068Y-66149053D01*
X51461562Y-66103471D01*
X51444086Y-66039996D01*
X51461565Y-65976522D01*
X51509067Y-65930946D01*
X51545576Y-65911189D01*
X51723240Y-65772906D01*
X51875722Y-65607268D01*
X51998860Y-65418791D01*
X52089296Y-65212616D01*
X52144564Y-64994368D01*
X52163156Y-64770000D01*
X52144564Y-64545632D01*
X52089296Y-64327384D01*
X51998860Y-64121209D01*
X51875722Y-63932732D01*
X51872246Y-63928956D01*
X51726711Y-63770864D01*
X51726708Y-63770861D01*
X51723240Y-63767094D01*
X51710597Y-63757253D01*
X51549623Y-63631960D01*
X51549615Y-63631955D01*
X51545576Y-63628811D01*
X51541071Y-63626373D01*
X51541065Y-63626369D01*
X51352080Y-63524096D01*
X51352074Y-63524093D01*
X51347574Y-63521658D01*
X51342733Y-63519996D01*
X51342726Y-63519993D01*
X51139488Y-63450222D01*
X51139487Y-63450221D01*
X51134635Y-63448556D01*
X51129585Y-63447713D01*
X51129576Y-63447711D01*
X50917631Y-63412344D01*
X50917622Y-63412343D01*
X50912569Y-63411500D01*
X50687431Y-63411500D01*
X50682378Y-63412343D01*
X50682368Y-63412344D01*
X50470423Y-63447711D01*
X50470411Y-63447713D01*
X50465365Y-63448556D01*
X50460515Y-63450220D01*
X50460511Y-63450222D01*
X50257273Y-63519993D01*
X50257262Y-63519997D01*
X50252426Y-63521658D01*
X50247929Y-63524091D01*
X50247919Y-63524096D01*
X50058934Y-63626369D01*
X50058922Y-63626376D01*
X50054424Y-63628811D01*
X50050389Y-63631951D01*
X50050376Y-63631960D01*
X49880801Y-63763948D01*
X49880795Y-63763952D01*
X49876760Y-63767094D01*
X49873297Y-63770855D01*
X49873288Y-63770864D01*
X49727753Y-63928956D01*
X49727747Y-63928963D01*
X49724278Y-63932732D01*
X49721481Y-63937012D01*
X49721474Y-63937022D01*
X49662818Y-64026803D01*
X49601140Y-64121209D01*
X49599085Y-64125892D01*
X49599080Y-64125903D01*
X49562101Y-64210209D01*
X49510704Y-64327384D01*
X49509446Y-64332349D01*
X49509445Y-64332354D01*
X49456695Y-64540657D01*
X49456693Y-64540666D01*
X49455436Y-64545632D01*
X49455012Y-64550741D01*
X49455011Y-64550751D01*
X49437268Y-64764883D01*
X49436844Y-64770000D01*
X49437268Y-64775117D01*
X49455011Y-64989248D01*
X49455012Y-64989256D01*
X49455436Y-64994368D01*
X49456693Y-64999335D01*
X49456695Y-64999342D01*
X49509445Y-65207645D01*
X49510704Y-65212616D01*
X49512764Y-65217312D01*
X49599080Y-65414096D01*
X49599083Y-65414101D01*
X49601140Y-65418791D01*
X49660505Y-65509656D01*
X49721474Y-65602977D01*
X49721477Y-65602981D01*
X49724278Y-65607268D01*
X49727752Y-65611041D01*
X49727753Y-65611043D01*
X49873288Y-65769135D01*
X49873291Y-65769138D01*
X49876760Y-65772906D01*
X49880801Y-65776051D01*
X50050376Y-65908039D01*
X50050381Y-65908042D01*
X50054424Y-65911189D01*
X50090930Y-65930945D01*
X50138434Y-65976523D01*
X50155913Y-66039996D01*
X50138437Y-66103471D01*
X50090933Y-66149053D01*
X50058930Y-66166372D01*
X50058925Y-66166374D01*
X50054424Y-66168811D01*
X50050389Y-66171951D01*
X50050376Y-66171960D01*
X49880801Y-66303948D01*
X49880795Y-66303952D01*
X49876760Y-66307094D01*
X49873297Y-66310855D01*
X49873288Y-66310864D01*
X49727753Y-66468956D01*
X49727747Y-66468963D01*
X49724278Y-66472732D01*
X49721481Y-66477012D01*
X49721474Y-66477022D01*
X49603942Y-66656920D01*
X49601140Y-66661209D01*
X49599085Y-66665892D01*
X49599080Y-66665903D01*
X49512764Y-66862687D01*
X49510704Y-66867384D01*
X49509446Y-66872349D01*
X49509445Y-66872354D01*
X49456695Y-67080657D01*
X49456693Y-67080666D01*
X49455436Y-67085632D01*
X49455012Y-67090741D01*
X49455011Y-67090751D01*
X49437268Y-67304883D01*
X49436844Y-67310000D01*
X49437268Y-67315117D01*
X49455011Y-67529248D01*
X49455012Y-67529256D01*
X49455436Y-67534368D01*
X49456693Y-67539335D01*
X49456695Y-67539342D01*
X49509445Y-67747645D01*
X49510704Y-67752616D01*
X49512764Y-67757312D01*
X49599080Y-67954096D01*
X49599083Y-67954101D01*
X49601140Y-67958791D01*
X49660505Y-68049656D01*
X49721474Y-68142977D01*
X49721477Y-68142981D01*
X49724278Y-68147268D01*
X49727752Y-68151041D01*
X49727753Y-68151043D01*
X49873288Y-68309135D01*
X49873291Y-68309138D01*
X49876760Y-68312906D01*
X49880801Y-68316051D01*
X50050376Y-68448039D01*
X50050381Y-68448042D01*
X50054424Y-68451189D01*
X50058931Y-68453628D01*
X50058934Y-68453630D01*
X50090930Y-68470945D01*
X50138436Y-68516526D01*
X50155913Y-68580000D01*
X50138436Y-68643474D01*
X50090930Y-68689055D01*
X50058934Y-68706369D01*
X50058922Y-68706376D01*
X50054424Y-68708811D01*
X50050389Y-68711951D01*
X50050376Y-68711960D01*
X49880801Y-68843948D01*
X49880795Y-68843952D01*
X49876760Y-68847094D01*
X49873297Y-68850855D01*
X49873288Y-68850864D01*
X49727753Y-69008956D01*
X49727747Y-69008963D01*
X49724278Y-69012732D01*
X49721481Y-69017012D01*
X49721474Y-69017022D01*
X49603942Y-69196920D01*
X49601140Y-69201209D01*
X49599085Y-69205892D01*
X49599080Y-69205903D01*
X49512764Y-69402687D01*
X49510704Y-69407384D01*
X49509446Y-69412349D01*
X49509445Y-69412354D01*
X49456695Y-69620657D01*
X49456693Y-69620666D01*
X49455436Y-69625632D01*
X49455012Y-69630741D01*
X49455011Y-69630751D01*
X49437268Y-69844883D01*
X49436844Y-69850000D01*
X46990500Y-69850000D01*
X46990500Y-64773051D01*
X46990649Y-64766967D01*
X46990751Y-64764883D01*
X46997993Y-64617463D01*
X47009658Y-64394898D01*
X47010825Y-64383247D01*
X47036969Y-64206994D01*
X47037087Y-64206226D01*
X47067760Y-64012566D01*
X47069936Y-64001897D01*
X47114500Y-63823991D01*
X47114922Y-63822362D01*
X47164283Y-63638143D01*
X47167301Y-63628485D01*
X47229768Y-63453901D01*
X47230727Y-63451312D01*
X47298246Y-63275420D01*
X47301877Y-63266927D01*
X47381711Y-63098133D01*
X47383201Y-63095099D01*
X47468255Y-62928171D01*
X47472345Y-62920785D01*
X47568641Y-62760125D01*
X47570891Y-62756518D01*
X47672566Y-62599952D01*
X47676937Y-62593661D01*
X47788695Y-62442972D01*
X47791857Y-62438893D01*
X47909107Y-62294101D01*
X47913534Y-62288935D01*
X48039664Y-62149772D01*
X48043783Y-62145446D01*
X48175446Y-62013783D01*
X48179772Y-62009664D01*
X48318935Y-61883534D01*
X48324101Y-61879107D01*
X48468893Y-61761857D01*
X48472972Y-61758695D01*
X48623670Y-61646930D01*
X48629952Y-61642566D01*
X48786518Y-61540891D01*
X48790125Y-61538641D01*
X48950785Y-61442345D01*
X48958171Y-61438255D01*
X49125099Y-61353201D01*
X49128133Y-61351711D01*
X49296927Y-61271877D01*
X49305420Y-61268246D01*
X49481312Y-61200727D01*
X49483901Y-61199768D01*
X49658485Y-61137301D01*
X49668143Y-61134283D01*
X49852362Y-61084922D01*
X49853991Y-61084500D01*
X50031897Y-61039936D01*
X50042566Y-61037760D01*
X50236226Y-61007087D01*
X50236994Y-61006969D01*
X50413247Y-60980825D01*
X50424898Y-60979658D01*
X50647494Y-60967992D01*
X50793578Y-60960815D01*
X50796968Y-60960649D01*
X50803051Y-60960500D01*
X111756949Y-60960500D01*
X111763032Y-60960649D01*
G37*
%TD.AperFunction*%
%TD*%
M02*
