M48
; DRILL file {KiCad (6.0.5)} date Thu Jul 21 21:10:48 2022
; FORMAT={-:-/ absolute / inch / decimal}
; #@! TF.CreationDate,2022-07-21T21:10:48+10:00
; #@! TF.GenerationSoftware,Kicad,Pcbnew,(6.0.5)
; #@! TF.FileFunction,Plated,1,4,PTH
FMAT,2
INCH
; #@! TA.AperFunction,Plated,PTH,ViaDrill
T1C0.0157
; #@! TA.AperFunction,Plated,PTH,ComponentDrill
T2C0.0181
; #@! TA.AperFunction,Plated,PTH,ComponentDrill
T3C0.0315
; #@! TA.AperFunction,Plated,PTH,ComponentDrill
T4C0.0394
; #@! TA.AperFunction,Plated,PTH,ComponentDrill
T5C0.0787
; #@! TA.AperFunction,Plated,PTH,ComponentDrill
T6C0.0984
%
G90
G05
T1
X4.2975Y-4.4
X4.2975Y-4.5
X5.45Y-3.3
X5.5975Y-2.2
X5.5975Y-2.4
X5.5975Y-2.6
X5.5975Y-2.8
X5.5975Y-3.0
X5.5975Y-3.2
X5.5975Y-3.4
X5.5975Y-3.6
X5.5975Y-3.8
X5.5975Y-4.0
X6.3975Y-2.3
X6.3975Y-2.7
X6.3975Y-3.1
X6.3975Y-3.5
X6.3975Y-3.9
X6.4975Y-4.3
X7.0975Y-2.4
X7.0975Y-2.8
X7.0975Y-3.2
X7.0975Y-3.6
X7.6975Y-2.5
X7.9975Y-2.7
X8.1975Y-2.3
X8.1975Y-4.0
X8.2975Y-2.7
T2
X8.762Y-2.0625
X8.762Y-2.3375
X8.762Y-2.5625
X8.762Y-2.8375
X8.762Y-3.0625
X8.762Y-3.3375
X8.762Y-3.5625
X8.762Y-3.8375
X8.762Y-4.0625
X8.762Y-4.3375
T3
X3.6498Y-2.0002
X3.6498Y-2.1002
X3.6498Y-2.2002
X3.6498Y-2.3002
X3.6498Y-2.4002
X3.6498Y-2.5002
X3.6498Y-2.6002
X3.6498Y-2.7002
X3.6498Y-2.8002
X3.6498Y-2.9002
X3.6498Y-3.0002
X3.6498Y-3.1002
X3.6498Y-3.2002
X3.6498Y-3.3002
X3.6498Y-3.4002
X3.6498Y-3.5002
X3.6498Y-3.6002
X3.6498Y-3.7002
X3.6498Y-3.8002
X3.6498Y-3.9002
X4.3498Y-2.0002
X4.3498Y-2.1002
X4.3498Y-2.2002
X4.3498Y-2.3002
X4.3498Y-2.4002
X4.3498Y-2.5002
X4.3498Y-2.6002
X4.3498Y-2.7002
X4.3498Y-2.8002
X4.3498Y-2.9002
X4.3498Y-3.0002
X4.3498Y-3.1002
X4.3498Y-3.2002
X4.3498Y-3.3002
X4.3498Y-3.4002
X4.3498Y-3.5002
X4.3498Y-3.6002
X4.3498Y-3.7002
X4.3498Y-3.8002
X4.3498Y-3.9002
X4.6975Y-2.0
X4.6975Y-2.1
X4.6975Y-2.2
X4.6975Y-2.3
X4.6975Y-2.4
X4.6975Y-2.5
X4.6975Y-2.6
X4.6975Y-2.7
X4.6975Y-2.8
X4.6975Y-2.9
X4.6975Y-3.0
X4.6975Y-3.1
X4.6975Y-3.2
X4.6975Y-3.3
X4.6975Y-3.4
X4.6975Y-3.5
X4.6975Y-3.6
X4.6975Y-3.7
X4.6975Y-3.8
X4.6975Y-3.9
X4.6975Y-4.0
X4.6975Y-4.1
X4.6975Y-4.2
X4.6975Y-4.3
X5.2975Y-2.0
X5.2975Y-2.1
X5.2975Y-2.2
X5.2975Y-2.3
X5.2975Y-2.4
X5.2975Y-2.5
X5.2975Y-2.6
X5.2975Y-2.7
X5.2975Y-2.8
X5.2975Y-2.9
X5.2975Y-3.0
X5.2975Y-3.1
X5.2975Y-3.2
X5.2975Y-3.3
X5.2975Y-3.4
X5.2975Y-3.5
X5.2975Y-3.6
X5.2975Y-3.7
X5.2975Y-3.8
X5.2975Y-3.9
X5.2975Y-4.0
X5.2975Y-4.1
X5.2975Y-4.2
X5.2975Y-4.3
X7.8979Y-2.9496
X7.8979Y-3.0496
X7.8979Y-3.1496
X7.8979Y-3.2496
X7.8979Y-3.3496
X7.8979Y-3.4496
X7.8979Y-3.5496
X7.8979Y-2.8496
X8.1979Y-2.8496
X8.1979Y-2.9496
X8.1979Y-3.0496
X8.1979Y-3.1496
X8.1979Y-3.2496
X8.1979Y-3.3496
X8.1979Y-3.4496
X8.1979Y-3.5496
T4
X6.3975Y-1.8
X6.3975Y-2.0
X6.3975Y-4.6
X6.3975Y-4.4
X6.4975Y-1.8
X6.4975Y-2.0
X6.4975Y-4.4
X6.4975Y-4.6
X6.5975Y-1.8
X6.5975Y-2.0
X6.5975Y-4.4
X6.5975Y-4.6
X6.6975Y-1.8
X6.6975Y-2.0
X6.6975Y-4.4
X6.6975Y-4.6
X6.7975Y-1.8
X6.7975Y-2.0
X6.7975Y-4.4
X6.7975Y-4.6
X6.8975Y-1.8
X6.8975Y-2.0
X6.8975Y-4.4
X6.8975Y-4.6
X6.9975Y-1.8
X6.9975Y-2.0
X6.9975Y-4.4
X6.9975Y-4.6
X7.0975Y-1.8
X7.0975Y-2.0
X7.0975Y-4.4
X7.0975Y-4.6
X7.1975Y-1.8
X7.1975Y-2.0
X7.1975Y-4.4
X7.1975Y-4.6
X7.2475Y-2.85
X7.2475Y-2.95
X7.2475Y-3.05
X7.2475Y-3.15
X7.2475Y-3.25
X7.2475Y-3.35
X7.2975Y-1.8
X7.2975Y-2.0
X7.2975Y-4.4
X7.2975Y-4.6
X7.3975Y-1.8
X7.3975Y-2.0
X7.3975Y-4.4
X7.3975Y-4.6
X7.4975Y-1.8
X7.4975Y-2.0
X7.4975Y-4.4
X7.4975Y-4.6
X7.5475Y-2.7
X7.5475Y-2.8
X7.5475Y-3.1
X7.5475Y-3.2
X7.5475Y-3.5
X7.5475Y-3.6
X7.5975Y-1.8
X7.5975Y-2.0
X7.5975Y-4.4
X7.5975Y-4.6
X7.6975Y-1.8
X7.6975Y-2.0
X7.6975Y-4.4
X7.6975Y-4.6
X7.7975Y-1.8
X7.7975Y-2.0
X7.7975Y-4.4
X7.7975Y-4.6
X7.8975Y-1.8
X7.8975Y-2.0
X7.8975Y-4.4
X7.8975Y-4.6
X7.9975Y-1.8
X7.9975Y-2.0
X7.9975Y-4.4
X7.9975Y-4.6
X8.0975Y-1.8
X8.0975Y-2.0
X8.0975Y-4.4
X8.0975Y-4.6
X8.1975Y-1.8
X8.1975Y-2.0
X8.1975Y-4.4
X8.1975Y-4.6
X8.2975Y-1.8
X8.2975Y-2.0
X8.2975Y-4.6
X8.2975Y-4.4
X8.5796Y-2.1
X8.5796Y-2.6
X8.5796Y-3.1
X8.5796Y-3.6
X8.5796Y-4.1
X8.5796Y-2.2
X8.5796Y-2.3
X8.5796Y-2.7
X8.5796Y-2.8
X8.5796Y-3.2
X8.5796Y-3.3
X8.5796Y-3.7
X8.5796Y-3.8
X8.5796Y-4.2
X8.5796Y-4.3
T5
X8.2975Y-4.225
T6
X3.5475Y-4.65
X3.55Y-1.75
X8.7975Y-1.75
X8.7975Y-4.65
T4
G00X3.5337Y-4.2229
M15
G01X3.5337Y-4.3017
M16
G05
G00X3.6762Y-4.4473
M15
G01X3.7549Y-4.4473
M16
G05
G00X3.8337Y-4.2229
M15
G01X3.8337Y-4.3017
M16
G05
T0
M30
