%TF.GenerationSoftware,KiCad,Pcbnew,(6.0.5)*%
%TF.CreationDate,2022-07-21T21:10:46+10:00*%
%TF.ProjectId,glitcher,676c6974-6368-4657-922e-6b696361645f,rev?*%
%TF.SameCoordinates,Original*%
%TF.FileFunction,Paste,Top*%
%TF.FilePolarity,Positive*%
%FSLAX46Y46*%
G04 Gerber Fmt 4.6, Leading zero omitted, Abs format (unit mm)*
G04 Created by KiCad (PCBNEW (6.0.5)) date 2022-07-21 21:10:46*
%MOMM*%
%LPD*%
G01*
G04 APERTURE LIST*
G04 Aperture macros list*
%AMRoundRect*
0 Rectangle with rounded corners*
0 $1 Rounding radius*
0 $2 $3 $4 $5 $6 $7 $8 $9 X,Y pos of 4 corners*
0 Add a 4 corners polygon primitive as box body*
4,1,4,$2,$3,$4,$5,$6,$7,$8,$9,$2,$3,0*
0 Add four circle primitives for the rounded corners*
1,1,$1+$1,$2,$3*
1,1,$1+$1,$4,$5*
1,1,$1+$1,$6,$7*
1,1,$1+$1,$8,$9*
0 Add four rect primitives between the rounded corners*
20,1,$1+$1,$2,$3,$4,$5,0*
20,1,$1+$1,$4,$5,$6,$7,0*
20,1,$1+$1,$6,$7,$8,$9,0*
20,1,$1+$1,$8,$9,$2,$3,0*%
G04 Aperture macros list end*
%ADD10R,2.000000X1.500000*%
%ADD11R,2.000000X3.800000*%
%ADD12RoundRect,0.237500X-0.300000X-0.237500X0.300000X-0.237500X0.300000X0.237500X-0.300000X0.237500X0*%
%ADD13RoundRect,0.237500X-0.250000X-0.237500X0.250000X-0.237500X0.250000X0.237500X-0.250000X0.237500X0*%
%ADD14RoundRect,0.237500X-0.287500X-0.237500X0.287500X-0.237500X0.287500X0.237500X-0.287500X0.237500X0*%
%ADD15R,1.193800X2.489200*%
%ADD16RoundRect,0.237500X-0.237500X0.300000X-0.237500X-0.300000X0.237500X-0.300000X0.237500X0.300000X0*%
%ADD17RoundRect,0.230000X-0.230000X-0.375000X0.230000X-0.375000X0.230000X0.375000X-0.230000X0.375000X0*%
%ADD18RoundRect,0.150000X-0.825000X-0.150000X0.825000X-0.150000X0.825000X0.150000X-0.825000X0.150000X0*%
%ADD19R,3.300000X1.190000*%
%ADD20RoundRect,0.237500X-0.237500X0.250000X-0.237500X-0.250000X0.237500X-0.250000X0.237500X0.250000X0*%
%ADD21R,4.190000X1.780000*%
%ADD22R,4.190000X2.665000*%
%ADD23RoundRect,0.250000X-0.275000X-0.350000X0.275000X-0.350000X0.275000X0.350000X-0.275000X0.350000X0*%
%ADD24RoundRect,0.237500X0.250000X0.237500X-0.250000X0.237500X-0.250000X-0.237500X0.250000X-0.237500X0*%
%ADD25RoundRect,0.600000X-1.590000X-0.600000X1.590000X-0.600000X1.590000X0.600000X-1.590000X0.600000X0*%
%ADD26RoundRect,0.237500X0.237500X-0.250000X0.237500X0.250000X-0.237500X0.250000X-0.237500X-0.250000X0*%
%ADD27RoundRect,0.237500X0.237500X-0.300000X0.237500X0.300000X-0.237500X0.300000X-0.237500X-0.300000X0*%
%ADD28R,1.500000X2.000000*%
%ADD29R,3.800000X2.000000*%
G04 APERTURE END LIST*
D10*
%TO.C,U6_VADJ_OUT1*%
X166965714Y-99300000D03*
X166965714Y-101600000D03*
D11*
X173265714Y-101600000D03*
D10*
X166965714Y-103900000D03*
%TD*%
D12*
%TO.C,C9*%
X161633214Y-60960000D03*
X163358214Y-60960000D03*
%TD*%
D13*
%TO.C,R2*%
X153963214Y-86360000D03*
X155788214Y-86360000D03*
%TD*%
D12*
%TO.C,C12*%
X176873214Y-78740000D03*
X178598214Y-78740000D03*
%TD*%
%TO.C,C18*%
X176873214Y-91440000D03*
X178598214Y-91440000D03*
%TD*%
D14*
%TO.C,D4*%
X154000714Y-58420000D03*
X155750714Y-58420000D03*
%TD*%
D15*
%TO.C,SW3_VADJ_OUT1*%
X144755714Y-99275900D03*
X147255714Y-99275900D03*
X149755714Y-99275900D03*
X149755714Y-93764100D03*
X147255714Y-93764100D03*
X144755714Y-93764100D03*
%TD*%
D16*
%TO.C,C8*%
X139635714Y-113437500D03*
X139635714Y-115162500D03*
%TD*%
D12*
%TO.C,C15*%
X176873214Y-61110000D03*
X178598214Y-61110000D03*
%TD*%
%TO.C,C16*%
X176873214Y-71120000D03*
X178598214Y-71120000D03*
%TD*%
D17*
%TO.C,U4*%
X210185714Y-97270000D03*
X211325714Y-95770000D03*
X211325714Y-97270000D03*
X210185714Y-95770000D03*
D18*
X208280714Y-94615000D03*
X208280714Y-95885000D03*
X208280714Y-97155000D03*
X208280714Y-98425000D03*
X213230714Y-98425000D03*
X213230714Y-97155000D03*
X213230714Y-95885000D03*
X213230714Y-94615000D03*
%TD*%
D19*
%TO.C,RV1*%
X150455714Y-116840000D03*
X144055714Y-114300000D03*
X150455714Y-111760000D03*
%TD*%
D12*
%TO.C,C28*%
X184493214Y-102870000D03*
X186218214Y-102870000D03*
%TD*%
D20*
%TO.C,R7*%
X157415714Y-113387500D03*
X157415714Y-115212500D03*
%TD*%
D10*
%TO.C,U8_2V5_OUT1*%
X166925714Y-68820000D03*
D11*
X173225714Y-71120000D03*
D10*
X166925714Y-71120000D03*
X166925714Y-73420000D03*
%TD*%
D13*
%TO.C,R3*%
X153963214Y-96520000D03*
X155788214Y-96520000D03*
%TD*%
D21*
%TO.C,HS2_OUT1*%
X225540714Y-93980000D03*
D22*
X225540714Y-97472500D03*
X225540714Y-90487500D03*
%TD*%
D13*
%TO.C,R1*%
X153963214Y-76200000D03*
X155788214Y-76200000D03*
%TD*%
D12*
%TO.C,C2*%
X161633214Y-93980000D03*
X163358214Y-93980000D03*
%TD*%
D23*
%TO.C,FB1*%
X136530000Y-45720000D03*
X138830000Y-45720000D03*
%TD*%
D12*
%TO.C,C21*%
X176873214Y-68580000D03*
X178598214Y-68580000D03*
%TD*%
D15*
%TO.C,SW1_1V8_OUT1*%
X144755714Y-78955900D03*
X147255714Y-78955900D03*
X149755714Y-78955900D03*
X149755714Y-73444100D03*
X147255714Y-73444100D03*
X144755714Y-73444100D03*
%TD*%
D21*
%TO.C,SMA_Y1*%
X225540714Y-68580000D03*
D22*
X225540714Y-72072500D03*
X225540714Y-65087500D03*
%TD*%
D10*
%TO.C,U5_1V2_OUT1*%
X166925714Y-89140000D03*
D11*
X173225714Y-91440000D03*
D10*
X166925714Y-91440000D03*
X166925714Y-93740000D03*
%TD*%
D24*
%TO.C,PULLUP_MAX4619_EN1*%
X207858214Y-68580000D03*
X206033214Y-68580000D03*
%TD*%
D15*
%TO.C,SW5_2V5_OUT1*%
X144755714Y-68795900D03*
X147255714Y-68795900D03*
X149755714Y-68795900D03*
X149755714Y-63284100D03*
X147255714Y-63284100D03*
X144755714Y-63284100D03*
%TD*%
D21*
%TO.C,TRIG_IN1*%
X225540714Y-106680000D03*
D22*
X225540714Y-103187500D03*
X225540714Y-110172500D03*
%TD*%
D12*
%TO.C,C13*%
X176873214Y-88900000D03*
X178598214Y-88900000D03*
%TD*%
D24*
%TO.C,R10*%
X211668214Y-101600000D03*
X209843214Y-101600000D03*
%TD*%
D16*
%TO.C,C25*%
X210755714Y-62637500D03*
X210755714Y-64362500D03*
%TD*%
D25*
%TO.C,L1*%
X192975714Y-100020000D03*
X192975714Y-105720000D03*
%TD*%
D12*
%TO.C,C20*%
X176873214Y-58420000D03*
X178598214Y-58420000D03*
%TD*%
%TO.C,C3*%
X161633214Y-101600000D03*
X163358214Y-101600000D03*
%TD*%
D13*
%TO.C,R5*%
X153963214Y-66040000D03*
X155788214Y-66040000D03*
%TD*%
%TO.C,R9*%
X209843214Y-104140000D03*
X211668214Y-104140000D03*
%TD*%
D12*
%TO.C,C26*%
X184493214Y-105410000D03*
X186218214Y-105410000D03*
%TD*%
%TO.C,C14*%
X176873214Y-99060000D03*
X178598214Y-99060000D03*
%TD*%
%TO.C,C31*%
X197218214Y-100330000D03*
X198943214Y-100330000D03*
%TD*%
%TO.C,C11*%
X161633214Y-104140000D03*
X163358214Y-104140000D03*
%TD*%
%TO.C,C30*%
X197218214Y-105410000D03*
X198943214Y-105410000D03*
%TD*%
D10*
%TO.C,U4_1V8_OUT1*%
X166925714Y-78980000D03*
D11*
X173225714Y-81280000D03*
D10*
X166925714Y-81280000D03*
X166925714Y-83580000D03*
%TD*%
D12*
%TO.C,C4*%
X161633214Y-63500000D03*
X163358214Y-63500000D03*
%TD*%
%TO.C,C19*%
X176873214Y-101600000D03*
X178598214Y-101600000D03*
%TD*%
%TO.C,C1*%
X161633214Y-83820000D03*
X163358214Y-83820000D03*
%TD*%
D14*
%TO.C,D3*%
X154000714Y-99060000D03*
X155750714Y-99060000D03*
%TD*%
D12*
%TO.C,C6*%
X161633214Y-81280000D03*
X163358214Y-81280000D03*
%TD*%
D16*
%TO.C,C24*%
X213295714Y-62637500D03*
X213295714Y-64362500D03*
%TD*%
D14*
%TO.C,D2*%
X154000714Y-88900000D03*
X155750714Y-88900000D03*
%TD*%
%TO.C,D1*%
X154000714Y-78740000D03*
X155750714Y-78740000D03*
%TD*%
D12*
%TO.C,C7*%
X161633214Y-91440000D03*
X163358214Y-91440000D03*
%TD*%
%TO.C,C5*%
X161633214Y-73660000D03*
X163358214Y-73660000D03*
%TD*%
D24*
%TO.C,R8*%
X198055714Y-58420000D03*
X196230714Y-58420000D03*
%TD*%
D26*
%TO.C,R6*%
X154875714Y-115212500D03*
X154875714Y-113387500D03*
%TD*%
D27*
%TO.C,C22*%
X197765714Y-64362500D03*
X197765714Y-62637500D03*
%TD*%
D28*
%TO.C,U9_3V3ALWAYS1*%
X203085714Y-64110000D03*
D29*
X205385714Y-57810000D03*
D28*
X205385714Y-64110000D03*
X207685714Y-64110000D03*
%TD*%
D10*
%TO.C,U7_3V3_OUT1*%
X166925714Y-58660000D03*
X166925714Y-60960000D03*
D11*
X173225714Y-60960000D03*
D10*
X166925714Y-63260000D03*
%TD*%
D12*
%TO.C,C29*%
X197218214Y-102870000D03*
X198943214Y-102870000D03*
%TD*%
%TO.C,C10*%
X161633214Y-71120000D03*
X163358214Y-71120000D03*
%TD*%
D15*
%TO.C,SW4_3V3_OUT1*%
X144755714Y-58635900D03*
X147255714Y-58635900D03*
X149755714Y-58635900D03*
X149755714Y-53124100D03*
X147255714Y-53124100D03*
X144755714Y-53124100D03*
%TD*%
D21*
%TO.C,SMA_Z1*%
X225540714Y-81280000D03*
D22*
X225540714Y-77787500D03*
X225540714Y-84772500D03*
%TD*%
D12*
%TO.C,C17*%
X176873214Y-81280000D03*
X178598214Y-81280000D03*
%TD*%
D14*
%TO.C,D5*%
X154000714Y-68580000D03*
X155750714Y-68580000D03*
%TD*%
D21*
%TO.C,SMA_X1*%
X225540714Y-55880000D03*
D22*
X225540714Y-52387500D03*
X225540714Y-59372500D03*
%TD*%
D14*
%TO.C,D6*%
X192100714Y-58420000D03*
X193850714Y-58420000D03*
%TD*%
D15*
%TO.C,SW2_1V2_OUT1*%
X144755714Y-89115900D03*
X147255714Y-89115900D03*
X149755714Y-89115900D03*
X149755714Y-83604100D03*
X147255714Y-83604100D03*
X144755714Y-83604100D03*
%TD*%
D27*
%TO.C,C23*%
X200305714Y-64362500D03*
X200305714Y-62637500D03*
%TD*%
D13*
%TO.C,R4*%
X153963214Y-55880000D03*
X155788214Y-55880000D03*
%TD*%
D12*
%TO.C,C27*%
X184493214Y-100330000D03*
X186218214Y-100330000D03*
%TD*%
M02*
